<svg xmlns="http://www.w3.org/2000/svg" version="1.0" viewBox="0 0 752 752"><path fill="none" d="M538.9 539.7c-1.3 1.6-1.2 1.7.4.4 1.6-1.3 2.1-2.1 1.3-2.1-.2 0-1 .8-1.7 1.7z"/><path fill-opacity=".13" d="M386.8 530.7c12.7.2 33.7.2 46.5 0 12.7-.1 2.3-.2-23.3-.2s-36 .1-23.2.2zm-209.1 48c9.4.2 25.2.2 35 0 9.8-.1 2.1-.2-17.2-.2-19.2-.1-27.3.1-17.8.2zm196.1 0c23.3.2 61.1.2 84 0 22.9-.1 3.9-.2-42.3-.2-46.2 0-65 .1-41.7.2z"/><path fill-opacity=".2" d="M385.8 515.7c12.7.2 33.7.2 46.5 0 12.7-.1 2.3-.2-23.3-.2s-36 .1-23.2.2z"/><path fill-opacity=".16" d="M447 315.4c0 .2.8 1 1.8 1.7 1.5 1.3 1.6 1.2.3-.4s-2.1-2.1-2.1-1.3z"/><g stroke-width="0"><path d="M377 160.5c-27 5.6-49 22.2-61 46.2-4.3 8.6-8 21.5-8 27.7 0 2.3-.4 4.6-.8 5.3-.4.7-3.7 2.1-7.2 3.2-19.5 6.1-35.9 22.9-42.2 43.1-3.2 10.6-3.2 26.5 0 37 6.3 20.4 22.7 36.9 42.7 43.3l7 2.2h245l7-2.2c19.8-6.3 35.1-21.5 42.3-42.2 2.3-6.6 2.6-9.2 2.6-19.6 0-10.4-.4-13-2.8-20-1.5-4.4-4.3-10.6-6.3-13.8-9-14.9-25.8-26.6-42.7-29.8-2.7-.5-5.1-1.1-5.3-1.3-.2-.1-1-2.8-1.8-6-4.4-16.7-17.3-31.2-33.2-37.5-11.5-4.5-27.8-4.4-39.3.2l-5.9 2.4-5.1-6.8c-15.8-21.3-40.3-33.1-68.2-32.8-5.7 0-13.2.7-16.8 1.4zm36.5 15.3c18.6 5 31.2 14.6 41.7 31.9 2.2 3.8 4.6 7.1 5.2 7.5 2.2 1.5 6.7.7 10.4-1.7 19.6-13 47-5.7 57.5 15.2 2.5 4.9 4.7 13.4 4.7 18 0 4.1 3.6 7.3 8.1 7.3 11.3 0 24 5.4 33.5 14.2 21 19.7 21 52.9 0 72.6-7.1 6.6-15.9 11.3-24.4 13.1-3.7.8-40.2 1.1-120.5 1.1-127.4 0-122.3.2-134.2-6.5-10-5.6-18.4-15.1-22.5-25.5-11.5-29.2 7.1-62.4 38.3-68.1 9-1.7 10.7-3.7 10.7-12.8.1-23.2 13.8-46.5 34.5-58.7 16.6-9.7 38.3-12.6 57-7.6z"/><path d="M384.5 238c-3.5 1.4-24.5 23.5-24.5 25.8 0 3.4 1.1 5.2 4.1 6.7 3.6 1.9 5.4 1.2 11.2-4.4l4.7-4.5v55.5l2.5 2.4c3 3.1 6.5 3.2 9.3.2 2.2-2.3 2.2-3 2.2-30.2v-27.9l5 4.9c5.7 5.6 10 6.5 13.2 2.6 3.7-4.7 2.6-6.8-9.9-19.3-12-11.8-14.2-13.3-17.8-11.8zm69.6.4c-1.4.8-2.8 2.2-3.2 3.2-.4 1.1-.8 14-.8 28.9l-.1 26.9-4.8-4.7c-3.6-3.5-5.5-4.7-7.8-4.7-3.9 0-6.7 3-6.7 7.1 0 2.7 1.8 4.9 12 15 9.7 9.7 12.5 11.9 14.8 11.9 2.4 0 5.1-2.2 14.7-11.8 10.2-10.1 11.8-12.2 11.8-15 0-1.9-.8-4-2-5.2-3.2-3.2-7.1-2.5-12.3 2l-4.6 4.1-.3-27.1-.3-27.2-2.8-2.4c-3.2-2.7-4.2-2.9-7.6-1zM148.9 370.9l-2.9 3 .2 107.4c.3 104.1.4 107.6 2.2 109.6 1.9 2.1 2.4 2.1 47.1 2.1h45.2l2.1-2.3c2.1-2.2 2.2-3.3 2.2-17.1 0-11.4.3-14.7 1.3-14.3.6.2 18.5 7.8 39.7 16.8l38.5 16.4h182.2l3.5-2.5c6.2-4.5 86.2-87 89.6-92.3 9.4-15.1 6.7-36.3-6.2-49.3-12.4-12.3-31.4-15.6-46.6-7.9-2.6 1.3-9.6 6.6-15.6 11.7-6 5.2-16.1 13.7-22.4 19.1l-11.4 9.6-2.2-6c-3.5-9.7-9.4-17.3-17.8-22.6-7.9-5.1-10.8-5.6-33.6-6.2l-21.5-.6-34-26c-18.7-14.3-35.8-26.9-38-28-3.8-1.9-6.2-2-54.7-2.3l-50.8-.3v-7.8c0-6.3-.4-8.4-1.9-10.2l-1.9-2.4-44.7-.3-44.6-.3-3 3zM231 481v98h-70V383h70v98zm147.5-51c18.7 14.3 35.6 26.8 37.5 27.7 2.9 1.5 7.2 1.9 25 2.3 23.4.6 25 1 32.9 7.6 14.7 12.3 10.8 37.4-7.1 45.5l-5.3 2.4-50.6.3c-49 .3-50.7.3-52.4 2.2-2.6 2.9-2.4 7.9.5 10.2 2.2 1.8 4.6 1.9 54.4 1.6l52.1-.3 6.8-3.2c8.4-4 16.5-11.6 20.6-19.2 2.7-5.2 6.3-8.7 28.7-27.8 32.8-28 32.5-27.8 42.8-27.8 9.2 0 13.3 1.5 18.9 7.2 5.6 5.6 7.2 9.7 7.2 18.8 0 7-.4 8.6-2.7 12.5-1.6 2.5-21.6 23.5-44.5 46.8L501.5 579h-171L288 561.1l-42.5-17.9-.3-69.6-.2-69.6h99.5l34 26z"/></g><path fill-opacity=".37" d="M230.1 390.6c0 1.1.3 1.4.6.6.3-.7.2-1.6-.1-1.9-.3-.4-.6.2-.5 1.3zm0 14c0 1.1.3 1.4.6.6.3-.7.2-1.6-.1-1.9-.3-.4-.6.2-.5 1.3zm0 33c0 1.1.3 1.4.6.6.3-.7.2-1.6-.1-1.9-.3-.4-.6.2-.5 1.3zm.3 17.4c0 6.3.1 8.9.3 5.7.2-3.1.2-8.3 0-11.5-.2-3.1-.3-.5-.3 5.8zm-.1 16c0 2.5.2 3.5.4 2.2.2-1.2.2-3.2 0-4.5-.2-1.2-.4-.2-.4 2.3zm-.1 7.5c0 1.6.2 2.2.5 1.2.2-.9.2-2.3 0-3-.3-.6-.5.1-.5 1.8zm146.7-213.8c-1.3 1.6-1.2 1.7.4.4 1.6-1.3 2.1-2.1 1.3-2.1-.2 0-1 .8-1.7 1.7z"/><path fill-opacity=".3" d="M394.4 288.5c0 14.3.2 20 .3 12.7.2-7.3.2-19 0-26-.1-7-.3-1-.3 13.3z"/><path fill-opacity=".47" d="M432.3 445.7c4.3.2 11 .2 15 0 4-.1.5-.3-7.8-.3-8.2 0-11.5.2-7.2.3z"/><path fill-opacity=".05" d="M379.4 288.5c0 14.3.2 20 .3 12.7.2-7.3.2-19 0-26-.1-7-.3-1-.3 13.3z"/><path fill-opacity=".27" d="M174.8 593.7c11.6.2 30.8.2 42.5 0 11.6-.1 2.1-.2-21.3-.2-23.4 0-32.9.1-21.2.2z"/><path fill-opacity=".25" d="M402 249.5c5.2 5.2 9.7 9.5 10 9.5.2 0-3.8-4.3-9-9.5s-9.7-9.5-10-9.5c-.2 0 3.8 4.3 9 9.5z"/><path fill-opacity=".33" d="M374.3 369.7c30.6.2 80.8.2 111.5 0 30.6-.1 5.5-.2-55.8-.2s-86.4.1-55.7.2zm-1.5 224c23.2.2 61.2.2 84.5 0 23.2-.1 4.2-.2-42.3-.2s-65.5.1-42.2.2z"/><path fill-opacity=".38" d="M230.2 386c0 1.9.2 2.7.5 1.7.2-.9.2-2.5 0-3.5-.3-.9-.5-.1-.5 1.8zm.1 12.5c0 2.7.2 3.8.4 2.2.2-1.5.2-3.7 0-5-.2-1.2-.4 0-.4 2.8zm.1 22.5c0 8.5.2 12 .3 7.7.2-4.2.2-11.2 0-15.5-.1-4.2-.3-.7-.3 7.8zm.1 108.5c0 26.9.1 37.8.2 24.2.2-13.7.2-35.7 0-49-.1-13.3-.2-2.2-.2 24.8z"/><path fill-opacity=".03" d="m473 309.7-9.5 9.8 9.8-9.5c5.3-5.2 9.7-9.6 9.7-9.7 0-.8-1.2.4-10 9.4z"/><path fill-opacity=".18" d="M398 266.5c1.9 1.9 3.6 3.5 3.9 3.5.3 0-1-1.6-2.9-3.5s-3.6-3.5-3.9-3.5c-.3 0 1 1.6 2.9 3.5z"/><path fill-opacity=".02" d="M584 256.4c0 .2.8 1 1.8 1.7 1.5 1.3 1.6 1.2.3-.4s-2.1-2.1-2.1-1.3z"/><path fill-opacity=".01" d="M542.9 535.7c-1.3 1.6-1.2 1.7.4.4 1.6-1.3 2.1-2.1 1.3-2.1-.2 0-1 .8-1.7 1.7z"/><path fill-opacity=".06" d="m371 249.7-9.5 9.8 9.8-9.5c5.3-5.2 9.7-9.6 9.7-9.7 0-.8-1.2.4-10 9.4z"/><path fill-opacity=".12" d="M435 303.4c0 .2.8 1 1.8 1.7 1.5 1.3 1.6 1.2.3-.4s-2.1-2.1-2.1-1.3z"/><path fill-opacity=".29" d="M445 292.4c0 .2.8 1 1.8 1.7 1.5 1.3 1.6 1.2.3-.4s-2.1-2.1-2.1-1.3z"/></svg>