<svg xmlns="http://www.w3.org/2000/svg" version="1.0" viewBox="0 0 752 752"><path fill-opacity=".27" d="M505.8 382.7c2.8.2 7.6.2 10.5 0 2.8-.2.5-.3-5.3-.3s-8.1.1-5.2.3zm-64 87c.6.2 1.8.2 2.5 0 .6-.3.1-.5-1.3-.5-1.4 0-1.9.2-1.2.5zm-168.5 9c18.5.2 48.9.2 67.5 0 18.5-.1 3.3-.2-33.8-.2-37.1 0-52.3.1-33.7.2zm130.5 13c.6.2 1.8.2 2.5 0 .6-.3.1-.5-1.3-.5-1.4 0-1.9.2-1.2.5zm29.5 8c.9.2 2.3.2 3 0 .6-.3-.1-.5-1.8-.5-1.6 0-2.2.2-1.2.5z"/><path fill-opacity=".33" d="M323.3 241.7c.9.2 2.3.2 3 0 .6-.3-.1-.5-1.8-.5-1.6 0-2.2.2-1.2.5zm187 204c.9.2 2.3.2 3 0 .6-.3-.1-.5-1.8-.5-1.6 0-2.2.2-1.2.5zm-101 46c.9.2 2.3.2 3 0 .6-.3-.1-.5-1.8-.5-1.6 0-2.2.2-1.2.5zm18.5 8c.6.2 1.8.2 2.5 0 .6-.3.1-.5-1.3-.5-1.4 0-1.9.2-1.2.5z"/><path fill-opacity=".02" d="M522.2 451c0 1.9.2 2.7.5 1.7.2-.9.2-2.5 0-3.5-.3-.9-.5-.1-.5 1.8z"/><g stroke-width="0"><path d="M306.5 243.5c-24.5 5.4-44.8 19.5-58.3 40.3-11.3 17.5-16.5 41.7-13.2 61.6.5 3.3.8 6.1.6 6.4-.2.2-3.3.9-6.8 1.7-28.9 6-49.8 31.9-49.8 61.5.1 27.2 16.4 50.4 42.2 59.8l7.3 2.7 73.3.3 73.2.3V470h-70.3c-77.4 0-76.1.1-88.1-6.3-26-13.9-36.5-47.3-23.1-73.7 8.1-16 25.8-28 43.8-29.6 9.2-.8 8.8-.4 6.9-7.6-1-4.2-1.6-11-1.6-20.3-.1-16.7 1.8-24.8 9.2-39 3.7-7.1 6.7-11 14.2-18.6 11-11.1 19.1-16.3 33-21.1 9.1-3.1 10.1-3.2 25-3.3 17.7 0 23.5 1.2 36.5 7.4 14.6 7 26.4 17.6 34.7 31.2 4.8 7.9 3.8 7.7 15.8 3.2 6.7-2.4 8.8-2.7 20-2.8 9.6 0 13.8.4 18 1.9 20.4 6.9 35 20.9 41.8 39.8 2 5.6 2.7 9.8 3 18l.4 10.8h11.2c19.3 0 31 4.4 42.9 15.8 7.7 7.5 13.7 18.2 15.7 27.9 1.8 8.5.8 22.3-2.2 30.4-4.2 11.3-12.7 21.7-23.2 28.3l-2.8 1.8 2.8 2.9c2.7 2.8 2.7 2.8 5.6 1.1 5.6-3.2 14.5-12.1 18.7-18.6 6.2-9.5 9.3-19.1 9.9-30.8.6-12.7-.9-20.1-6.4-31.6-10.4-21.6-32.3-35.1-57.1-35.2H502v-4.3c0-7.7-2.9-18.1-7.6-27.6-13.8-28-45.9-43.8-76.4-37.7-4.6 1-9.8 2.3-11.6 3.1l-3.2 1.3-3.3-5.1c-12-18.5-34.3-33.4-57.1-38.1-9.3-1.9-27.8-2-36.3-.1z"/><path d="M500 386c0 3.4-1.4 3.8-4.2 1.3-1.8-1.6-2.2-1.4-9.5 6-7.4 7.3-7.6 7.7-6 9.5 2.5 2.7 2.1 4-1.3 4.7l-3 .7V429h3c3.5 0 4 2.2 1.3 5.2-1.6 1.8-1.3 2.2 5.7 9.3l7.4 7.5 2.2-2.1c2.7-2.6 4.4-1.8 4.4 2.2v2.9h22v-2.9c0-4 1.7-4.8 4.3-2.2l2.2 2.1 7.7-7.7 7.8-7.7-2.1-2.2c-2.6-2.7-1.8-4.4 2.2-4.4h2.9v-21h-3c-3.9 0-4.9-2.4-2.1-5.3l2.1-2.3-7.5-7.4-7.4-7.4-2.3 2.1c-2.9 2.6-4.8 1.9-4.8-1.8V383h-22v3zm14 6.7c0 2.4 11.5 7 13.4 5.4 1.8-1.5 5.5 2.4 3.8 4.1-.8.8-.6 2.1.9 4.9 1 2.1 1.9 4.5 1.9 5.4 0 .8 1.1 2 2.5 2.5 3.3 1.3 3.5 5.7.3 6.2-1.5.2-2.4 1.3-3.1 3.7-.5 1.9-1.5 4.4-2.3 5.5-1.2 1.7-1.2 2.2.1 3.6 1.4 1.5 1.3 1.9-.5 3.5-1.6 1.4-2.2 1.5-3.5.5-1.2-1-1.9-1-3.7.2-1.3.8-4 2-6 2.7-2.7.9-3.8 1.8-3.8 3.2 0 3-4.8 2.6-6-.6-.5-1.4-1.7-2.5-2.5-2.5-.9 0-3.3-.9-5.4-1.9-3.3-1.8-4-1.8-5.3-.5-1.3 1.3-1.7 1.2-3.3-.6-1.4-1.6-1.5-2.2-.5-3.5 1-1.2.8-2.3-.9-5.8-1.2-2.4-2.1-5.1-2.1-6 0-1-.8-1.7-2-1.7-1.6 0-2-.7-2-3s.4-3 2-3c1.2 0 2-.7 2-1.8 0-.9.9-3.5 2-5.6 1.7-3 1.8-4.1.9-5.2-1.6-2 1.7-5.9 3.7-4.3 1.9 1.6 13.4-3 13.4-5.4 0-1.2.8-1.7 3-1.7s3 .5 3 1.7z"/><path d="M507.6 407c-9.1 2.8-11 14.1-3.5 20.5 7.3 6.1 18.9.4 18.9-9.2 0-4.1-3.5-9.2-7.5-10.9-3.8-1.6-3.9-1.6-7.9-.4zm5.8 8.3c3.6 2.6-.4 8.4-4.1 6.1-2.4-1.5-2.7-3.8-.8-5.8 2-1.9 2.6-2 4.9-.3zm-52.9 42.9-10 3-33.7-.2-33.8-.2v39.5l32-.8 32-.7 23.3 5.8 23.2 5.7 18.5-9.2c10.2-5.2 19.3-10.1 20.4-11 7.5-6.4 4-18.9-5.8-20.6-1.8-.3-9.5.9-18.2 2.8-13.9 3-15.4 3.2-19.2 1.9-3.8-1.2-4-1.5-3.5-4.6 1.1-6.9-5.4-14.7-12.2-14.5-1.6 0-7.5 1.4-13 3.1zm16 6.4c2.7 2.8 1.4 5.7-3.9 8.5l-4.8 2.7 12.5 4.1 12.6 4.2 16.3-3.6 16.3-3.6 1.7 2.2c1.4 1.6 1.5 2.5.7 4-.5 1.1-8.7 5.8-18.1 10.5l-17.1 8.6-22.6-5.7-22.6-5.6-28.2.7-28.3.7V469h29.8l29.7-.1 10-2.9c11.8-3.4 13.8-3.5 16-1.4z"/></g><path fill-opacity=".01" d="M529 398.4c0 .2.8 1 1.8 1.7 1.5 1.3 1.6 1.2.3-.4s-2.1-2.1-2.1-1.3z"/><path fill-opacity=".04" d="M490.9 399.7c-1.3 1.6-1.2 1.7.4.4.9-.7 1.7-1.5 1.7-1.7 0-.8-.8-.3-2.1 1.3z"/><path fill-opacity=".4" d="M538.2 418.5c0 1.6.2 2.2.5 1.2.2-.9.2-2.3 0-3-.3-.6-.5.1-.5 1.8z"/><path fill-opacity=".2" d="m540.4 439.2-2.9 3.3 3.3-2.9c1.7-1.7 3.2-3.1 3.2-3.3 0-.8-.8-.1-3.6 2.9zm-8 8-1.9 2.3 2.3-1.9c2.1-1.8 2.7-2.6 1.9-2.6-.2 0-1.2 1-2.3 2.2zm-96.1 22.5c.9.2 2.3.2 3 0 .6-.3-.1-.5-1.8-.5-1.6 0-2.2.2-1.2.5zm-37.5 22c.6.2 1.8.2 2.5 0 .6-.3.1-.5-1.3-.5-1.4 0-1.9.2-1.2.5zm40 8c.6.2 1.8.2 2.5 0 .6-.3.1-.5-1.3-.5-1.4 0-1.9.2-1.2.5z"/><path fill-opacity=".1" d="M529.9 437.7c-1.3 1.6-1.2 1.7.4.4.9-.7 1.7-1.5 1.7-1.7 0-.8-.8-.3-2.1 1.3z"/><path fill-opacity=".13" d="M477.3 429.7c.9.2 2.3.2 3 0 .6-.3-.1-.5-1.8-.5-1.6 0-2.2.2-1.2.5zm-91.5 31c.6.2 1.8.2 2.5 0 .6-.3.1-.5-1.3-.5-1.4 0-1.9.2-1.2.5zm-3.4 19.3c0 10.7.2 15.1.3 9.7.2-5.3.2-14.1 0-19.5-.1-5.3-.3-.9-.3 9.8zm48.4-10.3c.6.2 1.8.2 2.5 0 .6-.3.1-.5-1.3-.5-1.4 0-1.9.2-1.2.5zm-37.5 22c.9.2 2.3.2 3 0 .6-.3-.1-.5-1.8-.5-1.6 0-2.2.2-1.2.5zm50.5 8c.6.2 1.8.2 2.5 0 .6-.3.1-.5-1.3-.5-1.4 0-1.9.2-1.2.5z"/><path fill-opacity=".21" d="M535.9 443.7c-1.3 1.6-1.2 1.7.4.4.9-.7 1.7-1.5 1.7-1.7 0-.8-.8-.3-2.1 1.3z"/><path fill-opacity=".47" d="M476.8 407.7c.7.3 1.6.2 1.9-.1.4-.3-.2-.6-1.3-.5-1.1 0-1.4.3-.6.6zm8 8c.7.3 1.6.2 1.9-.1.4-.3-.2-.6-1.3-.5-1.1 0-1.4.3-.6.6zm51 0c.7.3 1.6.2 1.9-.1.4-.3-.2-.6-1.3-.5-1.1 0-1.4.3-.6.6zm-98 46c.6.2 1.8.2 2.5 0 .6-.3.1-.5-1.3-.5-1.4 0-1.9.2-1.2.5zm-17.5 30c.9.2 2.3.2 3 0 .6-.3-.1-.5-1.8-.5-1.6 0-2.2.2-1.2.5zm-2.5 8c.6.2 1.8.2 2.5 0 .6-.3.1-.5-1.3-.5-1.4 0-1.9.2-1.2.5z"/><path fill-opacity=".4" d="M542.3 407.7c.9.2 2.3.2 3 0 .6-.3-.1-.5-1.8-.5-1.6 0-2.2.2-1.2.5zm-99 54c.9.2 2.3.2 3 0 .6-.3-.1-.5-1.8-.5-1.6 0-2.2.2-1.2.5zm-28.5 30c.6.2 1.8.2 2.5 0 .6-.3.1-.5-1.3-.5-1.4 0-1.9.2-1.2.5zm8 8c.6.2 1.8.2 2.5 0 .6-.3.1-.5-1.3-.5-1.4 0-1.9.2-1.2.5z"/><path fill-opacity=".35" d="M475.4 418.5c0 6 .1 8.4.3 5.2.2-3.2.2-8.1 0-11-.2-2.9-.3-.3-.3 5.8z"/><path fill-opacity=".07" d="M542.3 429.7c.9.2 2.3.2 3 0 .6-.3-.1-.5-1.8-.5-1.6 0-2.2.2-1.2.5zm-63.3 7.7c0 .2.8 1 1.8 1.7 1.5 1.3 1.6 1.2.3-.4s-2.1-2.1-2.1-1.3zm-88.2 23.3c.6.2 1.8.2 2.5 0 .6-.3.1-.5-1.3-.5-1.4 0-1.9.2-1.2.5zm34.5 9c.9.2 2.3.2 3 0 .6-.3-.1-.5-1.8-.5-1.6 0-2.2.2-1.2.5z"/><path fill-opacity=".09" d="M508.1 392.6c0 1.1.3 1.4.6.6.3-.7.2-1.6-.1-1.9-.3-.4-.6.2-.5 1.3z"/><path fill-opacity=".34" d="M490 436.4c0 .2.8 1 1.8 1.7 1.5 1.3 1.6 1.2.3-.4s-2.1-2.1-2.1-1.3z"/><path fill-opacity=".03" d="M526 436.4c0 .2.8 1 1.8 1.7 1.5 1.3 1.6 1.2.3-.4s-2.1-2.1-2.1-1.3z"/><path fill-opacity=".25" d="M508.1 443.6c0 1.1.3 1.4.6.6.3-.7.2-1.6-.1-1.9-.3-.4-.6.2-.5 1.3z"/><path fill-opacity=".29" d="M488.9 389.7c-1.3 1.6-1.2 1.7.4.4 1.6-1.3 2.1-2.1 1.3-2.1-.2 0-1 .8-1.7 1.7zm-7.5 7.5-2.9 3.3 3.3-2.9c1.7-1.7 3.2-3.1 3.2-3.3 0-.8-.8-.1-3.6 2.9z"/><path fill-opacity=".28" d="M485.9 392.7c-1.3 1.6-1.2 1.7.4.4 1.6-1.3 2.1-2.1 1.3-2.1-.2 0-1 .8-1.7 1.7z"/></svg>