<svg xmlns="http://www.w3.org/2000/svg" version="1.0" viewBox="0 0 479 382"><g stroke-width="0"><path d="M20 3.9C13.1 6 7.9 10.4 4.4 17c-1.8 3.4-1.9 9.6-1.9 174v170.5l2.2 4c2.5 4.7 6.4 8.5 11.3 11.1 3.4 1.8 10.7 1.9 223 1.9h219.5l4-2.2c4.7-2.5 8.5-6.4 11.1-11.3 1.8-3.4 1.9-9.6 1.9-174s-.1-170.6-1.9-174c-2.6-4.9-6.4-8.8-11.1-11.3l-4-2.2-218-.2c-119.9-.1-219.1.2-220.5.6zm340.4 28.2c5.7 4.5 1.4 14.9-5.7 13.5-6.7-1.3-9.2-9.5-4.1-13.5 1.5-1.2 3.7-2.1 4.9-2.1 1.2 0 3.4.9 4.9 2.1zm43.1.4c7 6.9-2.5 17.7-10 11.3-3.8-3.4-3.9-8.2-.1-11.5 3.5-3 7.1-2.9 10.1.2zM446 32c6.1 6.1 0 16.3-7.8 13.1-5.4-2.2-6.7-8.7-2.7-12.6 3-3.1 7.7-3.3 10.5-.5zm22 184.4v143.3l-2.3 3.4c-1.2 1.8-3.8 4.4-5.6 5.6l-3.4 2.3H21.3l-3.4-2.3c-1.8-1.2-4.4-3.8-5.6-5.6l-2.3-3.4V73h458v143.4z"/><path d="M101.5 91.6C76.7 97.7 56 118.5 49.4 144c-2.3 8.6-2.3 25.3 0 33.9 6.2 23 21.8 41 43 49.2l7.1 2.7.3 12.6.3 12.6h-18c-17.2 0-18.1.1-19.1 2.1-.9 1.5-.8 2.4.1 3.5 1 1.2 4.8 1.4 22.3 1.2l21.1-.3.3-14.8.3-14.7h10.8c13.2 0 23-2.3 33.9-8 9.4-4.9 18.2-12.3 18.2-15.3 0-1.5-7.3-9.5-24-26.2l-24-24-.2-34-.3-34-7-.2c-3.8-.1-9.7.5-13 1.3z"/><path d="M134.8 90.6c-.5.4-.8 14.5-.8 31.3v30.5l20.7 20.8c14.4 14.5 21.4 20.8 22.9 20.8 5.1 0 16.8-18.6 19.3-30.8 1.5-7.4 1.3-19.5-.4-27-1.6-6.9-1.6-7.2 3.2-12.6l3.2-3.6h18.5c15.4 0 18.7-.3 20-1.6 1.9-1.8 1.9-2 .6-4.5-1-1.8-2.3-1.9-21.3-1.9-11.1 0-20.6.4-21.2.8-.5.4-2.7 2.6-4.7 4.9L191 122l-1.4-2.9c-5.3-10.1-19.5-21.8-31.7-26-6.5-2.3-21.8-3.9-23.1-2.5zm20.1 9.5c23.7 8.1 38.9 32.7 35.3 57.2-1.2 8.4-5.3 18.5-9.9 24.5l-2.6 3.4-18.3-18.3-18.4-18.4V97l4.3.6c2.3.4 6.6 1.5 9.6 2.5zM266 98.9c-.6 1.3-1 22.7-1 62.5 0 53.6.2 60.6 1.6 62 1.4 1.4 10 1.6 79.8 1.6 59.5 0 78.5-.3 79.4-1.2 1.8-1.8 1.4-4.6-.7-5.8-1.3-.7-27.2-1-77-1H273v-58.8c0-44.4-.3-59.1-1.2-60-1.8-1.8-4.6-1.4-5.8.7z"/><path d="M411.1 113.3c-5.2 2.6-7.2 7.7-5.9 15 .2 1-5.1 8.7-13.2 19.1l-13.5 17.3-5.8.6-5.9.5-11.3-8.1c-11.1-8-11.4-8.3-11.4-12.1-.1-5.6-5.3-10.6-11.1-10.6-3.5 0-4.8.6-7.7 3.5-3.2 3.2-3.5 3.9-3.1 8.4l.3 4.8-11.2 12.5c-10.7 11.8-11.4 12.4-14.6 12-10.8-1.2-16.8 12.3-8.6 19.2 3.6 3.1 10.1 3.5 13.8 1 3.2-2.3 5.1-7.4 4.4-11.7-.5-3.4-.1-4 10.7-15.6 10.7-11.6 11.3-12.1 15.1-12.1 2.2 0 4.8-.4 5.7-.9 1.3-.7 4.4 1.1 13.5 7.7 10.2 7.5 11.7 8.9 11.7 11.4 0 6.4 5 11.8 10.8 11.8 8.6 0 12.6-5.9 11-16.1-.2-1 5.9-9.6 13.5-19.3 10.8-13.8 14.2-17.6 15.6-17.1 4.5 1.4 11.7-3.8 12.7-9.2 1.7-8.8-7.6-16.1-15.5-12zm7.4 10.2c0 2.5-.4 3-2.4 3-2.8 0-4.7-2.5-3.8-4.9.5-1.2 1.6-1.6 3.4-1.4 2.4.3 2.8.8 2.8 3.3zm-83.1 20.1c.9.8 1.6 1.9 1.6 2.4 0 1.1-2.9 4-4 4-.9 0-4-2.8-4-3.6 0-.3.5-1.4 1-2.5 1.3-2.3 3.3-2.4 5.4-.3zm41.4 29.6c1.7 1.7 1.5 4.3-.4 5.9-3.1 2.6-7-2.5-4.4-5.6 1.5-1.8 3.2-1.9 4.8-.3zm-78 13.4c.4 2.7-2.1 4.7-4.8 3.9-2-.6-2.8-4.4-1.3-5.9 1.5-1.5 5.8-.1 6.1 2zM210 132.5c-.6.8-.9 2.3-.5 3.5.6 2 1.2 2 20.3 1.8l19.7-.3.3-2.4c.2-1.3-.2-2.8-1-3.2-.7-.5-9.5-.9-19.4-.9-14.7 0-18.4.3-19.4 1.5zm-11.6 127.9c-.3.8-.4 2.3-.2 3.3.3 1.7 4.5 1.8 96.7 1.8 87.6 0 96.5-.1 97.4-1.6.6-.9.7-2.4.4-3.3-.6-1.5-8.7-1.6-97.2-1.6-83.2 0-96.6.2-97.1 1.4zM51.9 275.6c-.9 1.1-1 2-.2 3.2.9 1.5 3.5 1.7 21.8 1.7 18 0 20.9-.2 21.8-1.6.6-.9.7-2.4.4-3.3-.6-1.4-3.1-1.6-21.5-1.6-17.9 0-21.1.2-22.3 1.6zm112.5 14.8c-.3.8-.4 2.3-.2 3.3.3 1.7 2.2 1.8 31.2 1.8 27.7 0 31-.2 31.9-1.7.8-1.2.7-2.1-.2-3.2-1.2-1.4-5.2-1.6-31.8-1.6-25.5 0-30.5.2-30.9 1.4zm86.5.2c-.9 1.1-1 2-.2 3.2.9 1.6 6.9 1.7 70.5 2 74.9.2 72.9.4 71.3-4.8-.6-2-1-2-70.4-2-62.5 0-70 .2-71.2 1.6zM165 320.5c-.6.8-1 2.2-.8 3.2.3 1.7 5.5 1.8 114 2.1l113.7.2.6-2c1.7-5.2 6.9-5-114-5-96.9 0-112.4.2-113.5 1.5z"/></g></svg>