<svg xmlns="http://www.w3.org/2000/svg" version="1.0" viewBox="0 0 286 274"><g stroke-width="0"><path d="M97.9 6.5c-36.7 6.9-68.6 32.8-82.5 66.8C9.7 87.4 7.9 96 7.3 111.5c-.8 20.3 2 34.4 10.3 52.3 19.1 41.5 65.4 68 110.7 63.2 17.9-1.8 35.8-7.8 49-16.3l5.9-3.8 30.4 30.2 30.3 30.2 8.8-8c4.8-4.5 9.9-9.3 11.3-10.7l2.4-2.7-30.2-30.2-30.3-30.3 4.7-6.9c12.9-19.4 18.8-38.6 18.7-62 0-14.1-1.1-21.4-5-34C213.1 46.7 183 18 146.5 8.4 134 5.1 110.2 4.2 97.9 6.5zm46.5 11.3c9.9 2.7 24.9 9.8 33.1 15.7 43.1 30.7 55.2 89.8 27.9 135.7-6.1 10.2-21.2 25.9-31.1 32.2-27.5 17.6-61.5 21.5-91.4 10.2-27.9-10.5-51.2-34.3-60.7-62.1-5.5-16.2-6.8-37.1-3.3-54C26.6 58 55 28 92.1 18.1c10.9-2.9 11.1-2.9 28.4-2.7 12.6.2 17.7.8 23.9 2.4zm103.9 232.4-4.2 4.2-26.8-26.6-26.7-26.7 4.4-4 4.5-4 26.5 26.5 26.5 26.4-4.2 4.2z"/><path d="M108.5 24c-39.8 4.3-72.9 34.4-81 73.5-1.9 9.3-2.2 26.3-.6 35.2 5.4 29.6 25.3 55.3 52.6 67.9 13.9 6.4 21.1 7.9 39 7.8 18.8 0 26.5-1.7 41-8.9 23.4-11.6 41.4-33.4 48.7-59 2-6.9 2.3-10.2 2.2-24.5 0-15-.3-17.3-2.7-25.3-5.9-19.3-16.4-34.9-31.7-47-8.2-6.6-24.1-14.7-33.5-17.1-5.8-1.5-22.4-3.7-25.5-3.5-.8.1-4.6.5-8.5.9zm32.3 11.9c41 11.9 67 52.7 59.8 94-8.8 50.6-60.1 81.5-108.6 65.5-12.5-4.2-21.5-9.9-32-20.4-12.4-12.4-18.1-22.1-22.7-39.1-2.7-9.8-2.4-30.9.5-41.3C42 79.9 49.3 67.5 60 57c11.2-11.2 25.4-18.8 41.6-22.4 9.7-2.2 29.4-1.5 39.2 1.3z"/><path d="M113.7 61.2c-2.1 1.6-50.7 80.6-50.7 82.5 0 2.3 2.8 7 4.5 7.7.9.3 24 .6 51.4.6h49.8l2.1-2.3c4.5-4.8 3.9-6.2-21.9-48-13.2-21.6-24.8-39.8-25.7-40.5-.9-.6-3-1.2-4.7-1.2-1.7 0-3.9.6-4.8 1.2zm27.6 46.3 21.6 35-21.9.3c-12 .1-32 .1-44.5 0l-22.6-.3L94.5 109C119.8 67.8 118 70.6 119 71.6c.4.5 10.5 16.6 22.3 35.9z"/><path d="M114 107.5V123h9V92h-9v15.5zm0 24.5c0 2.9.2 3 4.5 3s4.5-.1 4.5-3-.2-3-4.5-3-4.5.1-4.5 3zm146.8-31.3-.3 5.8-5.7.3-5.8.3v8.9h12v12h9v-12h12v-8.9l-5.7-.3-5.8-.3-.3-5.8-.3-5.7h-8.8l-.3 5.7zM17 240v6H5v10h12v12h9v-12h12v-10H26v-12h-9v6z"/></g></svg>