<svg xmlns="http://www.w3.org/2000/svg" version="1.0" viewBox="0 0 370 427"><g stroke-width="0"><path d="M158.3 9c-54.4 6.9-98.5 47.5-109.2 100.8-2.9 14-3.5 25.1-2.2 37.5 2.2 19.7 8 37.6 17.5 53.1 2.5 4.2 4.6 7.9 4.6 8.2 0 .3-14.9 39.5-33 87.2C17.1 345.4 3 384 3 385.9c0 4.5 1.6 7 5.3 8.6 2.9 1.2 6 .8 30.2-3.6 14.8-2.7 27.3-4.9 27.7-4.9.3 0 8 9.2 16.9 20.5l16.3 20.6 8.5-.3 8.5-.3 31.1-82c22.3-58.9 31.5-82.1 32.7-82.3.9-.2 2.2.7 2.9 2 .7 1.3 16.9 36.9 36.1 79.3 20.3 45 35.7 77.7 36.9 78.8 3.3 2.6 6.4 3 10.1 1.3 2.5-1.3 7.1-7.1 18.8-24.1 10.3-14.9 16.1-22.4 17.3-22.5 1 0 13.4 1.4 27.5 3 14.1 1.7 26.9 2.8 28.4 2.4 3.7-.8 6.8-4.9 6.8-9.1 0-2.4-12.1-30.5-39.5-91.5L286 193.7l3.4-8.1c8.3-19.3 11.1-35 10.3-56.5-1-27.1-9.2-50-25.6-71.6-18-23.7-46.7-41.4-76.5-47-10.1-1.9-29.8-2.7-39.3-1.5zm40.8 22.3c18.6 4.8 34.2 13.4 47.8 26.2 23.8 22.5 36.3 55.6 33 87.5-6.8 66.5-70.1 110.7-134.4 94-30.3-8-58.1-31.9-70.6-60.9-6.7-15.6-8.4-24.3-8.3-43.1.1-14.5.4-17.7 2.7-26.3 11-41.3 43.3-71.2 85.4-79.2 11.7-2.2 32.1-1.4 44.4 1.8zm107.2 255.8c18 40.3 32.6 73.4 32.3 73.6-.2.3-10-.7-21.8-2-17.8-2.1-21.8-2.3-24.3-1.3-2.2 1-6.4 6.1-15.3 18.9-6.8 9.8-12.7 17.7-13 17.7-.8-.1-60.7-132.5-60.7-134.1 0-.6 3.9-2.4 8.7-4 19.7-6.4 34.7-15.7 49.8-30.9 5.8-5.9 10.7-10.7 11-10.8.3-.1 15.3 32.7 33.3 72.9zM90.4 231.4c17.6 14.9 42.3 26.6 61.6 29.2 3 .4 5 1.2 5 1.9 0 2.1-51.8 137.9-52.7 138.1-.4.2-6.7-7.3-13.9-16.4-7.2-9.3-14.3-17.3-15.9-18.1-2.5-1.2-5.1-.9-24.4 2.7-11.9 2.2-21.7 3.9-21.8 3.8-.3-.3 55.1-146.5 55.5-146.6.1 0 3.1 2.4 6.6 5.4z"/><path d="M157.3 49.4c-27.7 5.3-49.9 21.9-61.9 46.1-6.9 14-8.7 22.3-8.7 39.5 0 11.7.4 16 2.1 22.4 8.8 31.9 35.6 56.9 67.4 62.6 10 1.9 27.5 1.4 37.5-1 31.3-7.4 56.8-32.8 64.3-64 2.4-10.2 2.7-28.1.6-38.2-6.8-31.8-31.6-57.6-63.5-65.9-9.9-2.6-28.1-3.3-37.8-1.5zM194 71c21.6 7.2 38.6 25.2 44.6 47 2.8 10.2 2.4 26.3-1 36.5-6.9 21.5-22.5 37.1-44.1 44.2-10.2 3.3-27.2 3.7-37.5.9-22.3-6.1-39.7-22.6-47-44.6-3-9-3.7-24.1-1.6-34 2.9-14 11.8-28.6 23.1-38 6.5-5.4 19.3-11.7 27.5-13.5 9.4-2.1 27.5-1.4 36 1.5z"/></g></svg>