<svg xmlns="http://www.w3.org/2000/svg" version="1.0" viewBox="0 0 752 752"><path d="M254.5 276.8c-100.3 50.3-101 50.7-101 53.7 0 2.9.7 3.4 31.7 19l31.8 16v106.2l2.8 4.1c13.7 20.4 76.2 33.7 150.2 31.9 34-.9 58-3.7 82.5-9.8 19.9-5 34.6-11.8 41.2-19 5.3-5.8 5.3-5.8 5.3-61.9v-52l27-13.5c14.8-7.4 27.2-13.5 27.5-13.5.3 0 .5 13.6.5 30.3v30.3l-5.2 1.7c-8.2 2.6-14.7 8.2-18.6 15.7l-3.2 6.5-5 49.9c-3.5 35.2-4.6 50.4-3.9 51.7.9 1.8 2.9 1.9 39.8 1.9 33.6 0 39-.2 40.1-1.5 1.1-1.3.4-10.9-3.8-52.1-4.7-47.2-5.2-50.9-7.7-55.9-3.3-6.9-10.1-12.9-17.6-15.6l-5.9-2.2v-34.6c0-19-.4-35.1-.8-35.7-1-1.7-202.9-102.4-205-102.3-.9 0-47.1 22.8-102.7 50.7zM449 281l89.5 44.9h-91.2c-81.5.1-91.3.3-92.7 1.7-2 2-2 3.8 0 5.8 1.4 1.4 11.2 1.6 92.7 1.7h91.2l-90.2 45.2-90.3 45.2-95-47.5-95-47.5 94.2-47.2c51.9-26 95-47.2 95.8-47.2.8 0 41.8 20.2 91 44.9zm-91 154c1.1 0 31.3-14.6 67-32.5l65-32.5v98.9l-3.2 3.6c-15.7 18-91.1 30-159.3 25.5-47.2-3.1-85.5-12.7-97.9-24.4l-3.6-3.3V370l65 32.5c35.7 17.9 65.9 32.5 67 32.5zm207.1-26c9 2.5 16.7 13.9 15.6 23.1-1.5 12.1-10.7 20.9-22 20.9-12.1 0-21-7.7-22.6-19.4-2.3-16.6 12.6-29.2 29-24.6zm-15.9 52.1c11 3.4 22.8.6 30.6-7.1 1.7-1.8 3.2-2.8 3.2-2.4 0 .5 1.4 14.2 3 30.4s3 30.7 3 32.2v2.8h-62.3l.6-4.8c.3-2.6 1.8-17.4 3.3-32.9l2.7-28.2 4.5 4c3.1 2.7 6.7 4.6 11.4 6z"/><path fill-opacity=".07" d="M402.8 325.7c25 .2 65.5.2 90 0 24.6-.1 4.2-.2-45.3-.2s-69.6.1-44.7.2zm-46.5 173c.9.2 2.5.2 3.5 0 .9-.3.1-.5-1.8-.5-1.9 0-2.7.2-1.7.5zm.5 10c.7.3 1.6.2 1.9-.1.4-.3-.2-.6-1.3-.5-1.1 0-1.4.3-.6.6z"/><path fill-opacity=".13" d="M350.8 498.7c.6.2 1.8.2 2.5 0 .6-.3.1-.5-1.3-.5-1.4 0-1.9.2-1.2.5zm12 0c.7.3 1.6.2 1.9-.1.4-.3-.2-.6-1.3-.5-1.1 0-1.4.3-.6.6z"/><path fill-opacity=".27" d="M342.8 498.7c.7.3 1.6.2 1.9-.1.4-.3-.2-.6-1.3-.5-1.1 0-1.4.3-.6.6zm197 28c10 .2 26.4.2 36.5 0 10-.1 1.8-.2-18.3-.2s-28.3.1-18.2.2z"/><path fill-opacity=".41" d="M553.4 369c0 16.8.2 23.6.3 15.2.2-8.3.2-22.1 0-30.5-.1-8.3-.3-1.5-.3 15.3z"/><path fill-opacity=".38" d="M216.5 416.5c0 28 .1 39.7.2 25.8.2-13.8.2-36.8 0-51-.1-14.2-.2-2.9-.2 25.2z"/><path fill-opacity=".16" d="M489.5 419c0 26.7.1 37.6.2 24.2.2-13.3.2-35.1 0-48.5-.1-13.3-.2-2.4-.2 24.3z"/></svg>