<svg xmlns="http://www.w3.org/2000/svg" version="1.0" viewBox="0 0 752 752"><path fill-opacity=".17" d="M459.9 539.7c-1.3 1.6-1.2 1.7.4.4.9-.7 1.7-1.5 1.7-1.7 0-.8-.8-.3-2.1 1.3z"/><g stroke-width="0"><path d="M365 188.7c-6.4 2.3-14.2 10.5-16.5 17.2-1.6 5-1.7 9.7-.3 21 .3 2.1-.4 2.5-6.7 4.3-14.2 3.9-31.3 13.4-43.9 24.2-20.2 17.5-35.6 49.8-35.6 74.7 0 3.9-.5 5.3-2.9 7.7-4.3 4.2-5.4 9.7-4.9 24.8.4 14.4 1.2 16.9 7.1 20.4 3.1 1.9 5.9 2 114.7 2s111.6-.1 114.7-2c5.9-3.5 6.7-6 7.1-20.4.5-15.1-.6-20.6-4.9-24.8-2.4-2.4-2.9-3.8-2.9-7.7 0-24.9-15.6-57.5-35.7-74.8-12.5-10.8-29.7-20.2-43.8-24.1-6.3-1.8-7-2.2-6.7-4.3 1.4-11.3 1.3-16-.3-21-2.4-7-10.1-14.9-16.9-17.2-6.1-2.1-15.6-2.1-21.6 0zm17.4 8.5c7.5 2.3 13.6 10.9 13.6 19.1 0 1.5-.7 4.4-1.5 6.4l-1.5 3.8h-34l-1.5-3.8c-2.9-7.2-1.3-14.9 4.4-20.6 5.6-5.6 12.5-7.3 20.5-4.9zm21.8 42.1c30.3 8 54.9 28.2 67.5 55.4 4.2 9.1 8 23.5 8.4 32.3l.4 6.5h-209l.3-6c2.3-40 32.9-76.4 73.6-87.5 12.7-3.5 16.2-3.9 33.1-3.6 13.3.3 17.6.8 25.7 2.9zm82.2 105.3c1.3 1.2 1.6 4.1 1.6 15.4 0 12.7-.2 14-1.9 15-2.7 1.4-217.5 1.4-220.2 0-1.7-1-1.9-2.3-1.9-15 0-11.3.3-14.2 1.6-15.4 1.4-1.4 12.8-1.6 110.4-1.6 97.6 0 109 .2 110.4 1.6z"/><path d="M394.2 264.2c-1.6 1.6-1.5 5.3.1 6.6.6.5 3.9 1.7 7.2 2.7 15.1 4.3 27.3 14.4 34.3 28.4 2.3 4.6 4.2 8.9 4.2 9.7 0 .7 1.1 2.1 2.4 2.9 1.9 1.3 2.9 1.4 4.5.5 6.3-3.3-3.4-24-16.9-36.3-11.5-10.4-31.7-18.6-35.8-14.5zm129.3 131.2c-3.1 1.4-18.8 14.1-40.5 32.4-21.6 18.3-36.3 30.2-37.6 30.2-1.9 0-2.2-.7-2.8-7.7-1.1-13.5-8.2-24.5-19.5-30l-5.6-2.8-33.5-.5-33.5-.5-41-8.4c-36.9-7.5-41.8-8.3-48.9-7.8-10 .7-19.9 5.3-27.5 12.8-5.6 5.7-10.6 14.9-11.7 21.7l-.7 4.2h-15.6c-16.5 0-18.1.4-18.1 4.5 0 4.2 1.4 4.5 21.7 4.5 21.8 0 20.6.5 21.6-8.7 1.3-11.3 9.3-21.9 20.5-27.1 9-4.1 14.2-3.6 60.3 5.7l40.6 8.1h28.6c16.1 0 30.7.5 33.4 1 11.3 2.5 19.3 12.7 19.3 24.7v6.3h-46.3c-34.7 0-46.6.3-47.5 1.2-1.7 1.7-1.5 4.4.4 6.2 1.4 1.4 7.9 1.6 56.7 1.6h55.2l36-30.6c19.8-16.9 37.8-31.5 40-32.5 16.3-7.6 34.2 10.3 26.6 26.6-1.3 2.7-20.9 22.9-60.7 62.7-60.3 60.1-63.2 62.7-70.6 62.8-1.4 0-36.7-6.1-78.3-13.5L268.9 529h-39.8c-41.8 0-42.1 0-42.1 4.5s.4 4.5 40.4 4.5h38l76.1 13.6c83.3 14.9 85 15.1 93.8 10.4 3-1.7 24.8-22.5 64.6-62 67.1-66.6 65.1-64.2 65.1-77.6 0-16.9-12.5-29.4-29.5-29.4-5.3 0-8.2.6-12 2.4z"/></g><path fill-opacity=".47" d="M322.3 385.7c29.5.2 77.9.2 107.5 0 29.5-.1 5.3-.2-53.8-.2-59.1 0-83.3.1-53.7.2zm43 72c12.5.2 32.9.2 45.5 0 12.5-.1 2.2-.2-22.8-.2s-35.3.1-22.7.2zm78.5 0c.6.2 1.8.2 2.5 0 .6-.3.1-.5-1.3-.5-1.4 0-1.9.2-1.2.5z"/><path fill-opacity=".04" d="m531.4 454.2-2.9 3.3 3.3-2.9c1.7-1.7 3.2-3.1 3.2-3.3 0-.8-.8-.1-3.6 2.9z"/><path fill-opacity=".16" d="M454.9 544.7c-1.3 1.6-1.2 1.7.4.4 1.6-1.3 2.1-2.1 1.3-2.1-.2 0-1 .8-1.7 1.7z"/><path fill-opacity=".14" d="M451.9 547.7c-1.3 1.6-1.2 1.7.4.4 1.6-1.3 2.1-2.1 1.3-2.1-.2 0-1 .8-1.7 1.7z"/><path fill-opacity=".04" d="m536.4 449.2-1.9 2.3 2.3-1.9c1.2-1.1 2.2-2.1 2.2-2.3 0-.8-.8-.2-2.6 1.9z"/><path fill="none" d="m539.5 461.2-4 4.3 4.3-4c3.9-3.6 4.7-4.5 3.9-4.5-.2 0-2.1 1.9-4.2 4.2z"/><path fill-opacity=".33" d="M323.7 333.7c28.8.2 75.8.2 104.5 0 28.8-.1 5.3-.2-52.2-.2s-81 .1-52.3.2zm-124.4 115c4.8.2 12.6.2 17.5 0 4.8-.1.8-.3-8.8-.3-9.6 0-13.6.2-8.7.3zm10.5 90c10.5.2 27.9.2 38.5 0 10.5-.1 1.9-.2-19.3-.2s-29.8.1-19.2.2z"/><path fill-opacity=".16" d="M488.9 496.7c-1.3 1.6-1.2 1.7.4.4 1.6-1.3 2.1-2.1 1.3-2.1-.2 0-1 .8-1.7 1.7z"/><path fill-opacity=".12" d="m502.4 483.2-1.9 2.3 2.3-1.9c2.1-1.8 2.7-2.6 1.9-2.6-.2 0-1.2 1-2.3 2.2z"/><path fill-opacity=".13" d="M322.3 343.7c29.5.2 77.9.2 107.5 0 29.5-.1 5.3-.2-53.8-.2-59.1 0-83.3.1-53.7.2zm-123.5 95c3.9.2 10.5.2 14.5 0 3.9-.1.7-.3-7.3-.3s-11.2.2-7.2.3zm12 90c10.6.2 27.7.2 38 0 10.3-.1 1.6-.2-19.3-.2-20.9 0-29.3.1-18.7.2z"/><path fill-opacity=".09" d="M513.9 471.7c-1.3 1.6-1.2 1.7.4.4.9-.7 1.7-1.5 1.7-1.7 0-.8-.8-.3-2.1 1.3z"/></svg>