<svg xmlns="http://www.w3.org/2000/svg" version="1.0" viewBox="0 0 323 420"><g stroke-width="0"><path d="M133.7 8.7c-.4.3-.7 6.3-.7 13.3v12.7L122.8 38c-5.7 1.9-15 5.8-20.7 8.7l-10.5 5.4-9.3-9.3-9.3-9.3-22.2 22.3L28.5 78l9.8 9.8 9.9 9.9-3.9 7.9c-4.1 8.2-7.5 16.9-9.3 24.1l-1.1 4.3H7v63h26.8l2.7 8.7c1.5 4.9 4.7 13 7.1 18.1l4.3 9.3-9.7 9.4-9.7 9.4 22.2 22.3L73 296.5l9.3-9.3 9.3-9.2 12.2 6.1 12.2 6.1v8.8h-3.8c-2.1 0-5.8 1-8.2 2.3-6.2 3.1-9 8.7-9 18 0 8 1.8 12.5 6.4 16.4l3.1 2.6-.3 9.2c-.4 10.1 1 14.9 5.2 18.3 2.1 1.6 2.2 2.4 1.8 11.4-.7 16.5 3.5 21.8 18 22.6 7.6.4 7.8.5 7.8 3.1 0 3.6 3.3 8.7 6.9 10.6 4.3 2.2 34.9 2.2 39.2 0 3.6-1.9 6.9-7 6.9-10.6 0-2.6.2-2.7 7.4-3.1 13.2-.9 16.6-5 16.6-20.3l.1-10 3.1-2c5.7-3.6 7.3-6.8 7.7-15.5.1-4.4-.2-9.4-.8-11.1-1-2.8-.8-3.3 2.1-5.7 4.2-3.6 5.8-7.9 5.8-16 0-9.2-2.8-14.8-9-18-2.4-1.2-5.9-2.2-7.7-2.2H212l.1-5.3.1-5.2 10.3-5.1 10.3-5.1 9.1 9 9 9 22.5-21.8c12.4-12 22.6-22 22.6-22.4 0-.3-4.1-4.7-9.1-9.7l-9.2-9.2 4.6-9.4c2.5-5.1 5.8-13.5 7.4-18.5l2.8-9.3H320l-.2-31.3-.3-31.2-13.3-.5-13.3-.5-3.5-10.4c-1.9-5.8-5.3-13.9-7.4-18l-4-7.6 9.5-9.5 9.5-9.5-22.3-22.3L252.5 33l-9.1 9.1-9.2 9.2-11.3-5.6c-6.3-3.1-14.8-6.7-18.9-8l-7.5-2.4-.3-13.7-.3-13.6h-30.8c-16.9 0-31.1.3-31.4.7zM187 30.5v12.4l4.3 1.1c15.2 3.9 30.5 10.3 40.1 16.9l4.3 3 8.4-8.5 8.4-8.4 15.7 15.7L284 78.5l-8.6 8.6-8.5 8.5 5.9 11.5c5.6 10.6 9.9 22 11.9 31.4l.9 4 12.4.5 12.5.5.3 21.7.2 21.7-12.7.3-12.8.3-2.8 10.4c-2.9 10.8-8.1 22.9-13.5 31.6l-3.1 5 8.7 8.8 8.7 8.7-15.8 15.8-15.8 15.7-8.2-8.7-8.2-8.7-5.5 3.5c-6.5 4.2-14.5 8.4-16 8.4-.6 0-1-6.3-1-18.3v-18.2l5.6-4c6.8-4.8 15-13.7 21-22.6 15.6-23.5 19.2-55.1 9.3-81.9-10.4-28.1-35.1-50-64.6-57.1-11.1-2.7-29.3-2.9-40.2-.5-29.2 6.5-53.7 27-65.1 54.3-16.3 39.2-2.5 86.4 32.3 110.2l4.7 3.2V261c0 9.9-.2 18-.5 18-1.2 0-18.2-9-21.5-11.4l-3.5-2.4-9 8.9-9 8.9L57 267.5 41.5 252l9.2-9.2 9.2-9.3-4.4-8c-5.3-9.5-10-21.3-12.4-31l-1.7-7-12.5-.5-12.4-.5-.3-21.8L16 143h24.9l1.1-4.3c.6-2.3 1.6-6 2.2-8.2 1.6-6.3 7.2-19.3 11.6-27l4-7-9.1-9.3-9.2-9.2 15.8-15.7L73 46.5l8.9 8.9 8.9 8.8 4.3-2.9c10.1-6.9 25-13.4 38.4-16.7l9-2.3.3-12.1.3-12.2H187v12.5zm-5 55.1c27.1 6.6 50 28.1 58.9 55.4 10.9 33-2.6 71.6-32 91.6l-6.9 4.8V299h-34l.2-43.6.3-43.7 6-1.6c9.8-2.7 15.6-6.1 22.6-13 15.3-15.3 18.2-35.7 7.7-55.2-5.7-10.8-17.9-19.9-30.7-22.9-7.1-1.7-19-.8-26.3 2-20.7 7.8-33.4 29.5-29.8 50.9 3 18.1 15.5 32.1 33.3 37.6l7.2 2.2.3 43.6.2 43.7h-34v-30.8l-.1-30.7-5.6-3.4c-7.4-4.5-18.6-15.2-23.5-22.4-5.1-7.5-10.3-18.6-12.3-26.2-2.6-9.6-3.1-25.6-1.1-35.5 5.7-27.8 24.5-50.4 50.6-60.9 4.1-1.6 10.2-3.4 13.5-4 3.3-.6 7.1-1.3 8.5-1.5 4.4-.8 20.3.4 27 2zm-10.8 42.5c19.9 4.2 32.8 22.6 29.7 42.1-2 12.4-10.2 23.3-21.7 28.6-4.9 2.3-7 2.7-15.2 2.7-8.5 0-10.1-.3-15.5-2.9-7.6-3.8-14.9-11-18.3-18.4-2.3-4.9-2.7-7-2.7-15.2 0-8.4.3-10.3 2.9-15.7 4.9-10.6 15.5-19 26.9-21.2 6-1.2 8-1.2 13.9 0zm46.7 181c4.1 1.4 5.1 3.5 5.1 10.2 0 3.9-.6 6.2-1.9 7.8l-1.9 2.4H108.8l-1.9-2.4c-1.4-1.7-1.9-3.9-1.9-8.6 0-5.7.3-6.6 2.6-8.4 2.6-2.1 3.6-2.1 54.9-2.1 35.5 0 53.2.4 55.4 1.1zm-3.5 32.1c1.1 1.5 1.6 4.5 1.6 8.5 0 11.1 3.7 10.3-50.8 10.3-55 0-51.2.8-51.2-10.2 0-11.7-4.5-10.8 51.1-10.8h47.8l1.5 2.2zm-11.2 29c1.2 1 1.7 3.3 2 9.1.2 6.8 0 8.1-1.7 9.3-1.5 1.1-8.9 1.4-40 1.4-45.3 0-42.5.7-42.5-10.5s-2.8-10.5 42.5-10.5c29 0 38.5.3 39.7 1.2zm-22.4 32c-.3 2.3-.5 2.3-16.8 2.3s-16.5 0-16.8-2.3l-.3-2.2h34.2l-.3 2.2z"/><path d="M159 101v12h9V89h-9v12zm-37.7.3c-1.8 1.2-3.3 2.5-3.3 3 0 1.2 12.4 19.7 13.3 19.7.4 0 2.3-1 4.2-2.3l3.4-2.3-6.7-10.2c-3.7-5.6-6.9-10.1-7.2-10.1-.3 0-2 1-3.7 2.2zm72.5 8.2-6.7 10.4 3.5 2c1.9 1.2 3.9 2.1 4.4 2.1.4 0 3.6-4.3 7-9.5 6.6-10.2 6.6-10.6 1.3-13.7l-2.9-1.6-6.6 10.3zm-99.3 24.1c-.8 2-1.5 4-1.5 4.4 0 .7 20.1 10 21.7 10 1.4 0 4.5-7.2 3.6-8.1-.8-.7-20.9-9.9-21.8-9.9-.3 0-1.2 1.6-2 3.6zm125 1c-5.5 2.5-10.4 4.9-10.8 5.3-1.1 1.1 1.8 8.1 3.3 8.1.9 0 20.7-8.7 21.8-9.5.5-.4-3-8.5-3.7-8.5-.3 0-5.1 2.1-10.6 4.6zM97.3 168.3l-9.3 1v4.3c0 2.3.3 4.5.8 4.8.5.3 18.9-1.5 24-2.4.1 0 .2-2 .2-4.5 0-5.2 1-5-15.7-3.2zm116.3 2.8c-.4 2.3-.5 4.4-.2 4.6.6.7 23.8 3.4 24.3 2.9.2-.2.5-2.3.6-4.7l.2-4.4-9.5-1.2c-15.2-1.8-14.6-1.9-15.4 2.8zM159 141.9c-7.4 2.3-12.7 6.9-15.9 14.1-6.9 15.3 4.9 33 21.8 33 14.6 0 25.1-11.5 23.8-25.8-.6-7-2.2-10.4-7.2-15.4-5.7-5.7-15.1-8.1-22.5-5.9zm17.2 11.8c2 1.8 2.4 6.3.6 8.1-2.8 2.8-9.8.1-9.8-3.7 0-2.7 3-6.1 5.2-6.1 1.2 0 3 .7 4 1.7z"/></g></svg>