<svg xmlns="http://www.w3.org/2000/svg" version="1.0" viewBox="0 0 512 512"><path id='dark' fill="#369" d="M266.3 111.8c-2.8 1-6.7 3.1-8.7 4.6-2 1.5-21 23.5-42.3 48.9-21.3 25.4-43.9 52.3-50.2 59.7-13.9 16.3-16.5 21.5-16.5 32 0 17.5 12.4 30.7 29.8 31.8 16.4 1 18.5-.6 52.4-41 15.3-18.3 38.2-45.5 50.7-60.3 23.1-27.5 26.8-32.9 28-41.7 1.9-12.7-6.6-27.4-19-32.9-6.9-3.1-17.4-3.5-24.2-1.1z"/><path id='light' fill="#6CC" d="M282.3 219.4c-2.3.7-6 2.7-8.1 4.2-2.1 1.6-13.8 14.6-25.8 28.9-70.1 83.3-82.2 98-84.8 103-2.5 4.6-2.9 6.7-3 13.3-.1 6.8.3 8.5 3.2 14.4 3.4 6.9 8.2 11.8 15.2 15.3 5.3 2.7 16.8 3.2 24.1 1 9.7-3 3.3 4.1 85.7-94.2 17.1-20.4 32.1-38.9 33.2-41.1 3.2-6 4.2-14.6 2.6-21.3-2.4-10.3-8-17.5-17.6-22.4-4.6-2.4-18.8-3-24.7-1.1z"/></svg>