<svg xmlns="http://www.w3.org/2000/svg" version="1.0" viewBox="0 0 142 484"><path d="M59.5 6.4c-20.1 3.9-37.8 17.1-47.2 35.1-5.7 10.9-7.6 18.8-7.6 31s1.8 20.1 7.5 31.5c7.4 14.8 22.8 28 38.8 33.2 9.1 2.9 27 3.6 36.5 1.4 24.2-5.7 43.9-25.1 50.1-49.6 2.2-8.5 2.2-23.5.1-32-6.2-24.1-25.2-43.4-48.6-49.5-8.8-2.3-21.2-2.7-29.6-1.1zm3 168.7c-15 2.3-27.1 8.4-38.1 19.4C11.2 207.6 4.7 223.4 4.7 242s6.5 34.4 19.7 47.6c13.2 13.2 29 19.7 47.6 19.7s34.4-6.5 47.6-19.7c13.2-13.2 19.7-29 19.7-47.6s-6.5-34.4-19.7-47.6c-12.2-12.1-26.2-18.5-43.7-19.7-4.1-.3-10.1-.1-13.4.4zm-8.8 171c-18.1 5.2-33.7 18-41.8 34.4-5.4 11-7.2 19-7.2 31 0 12.1 1.9 20.1 7.6 30.9 8.6 16.6 24.3 29.2 42.7 34.2 8.7 2.4 25.3 2.4 34 0 18.8-5.1 34.8-18.1 43-35 5.4-10.9 7.3-19.1 7.3-30.6 0-11.2-1.9-19.7-6.8-29.5-8.9-18-25.5-31.5-44.5-35.9-9.2-2.2-25.7-2-34.3.5z"/></svg>