<svg xmlns="http://www.w3.org/2000/svg" version="1.0" viewBox="0 0 411 411"><g stroke-width="0"><path d="M176.8 11.6c-33.7 4.9-66.2 18.6-93.3 39.3C75.3 57.1 58 74 51 82.5c-41.5 50.7-55.1 119.9-35.9 183 20.1 66.1 73.7 117 141.1 134 16.8 4.3 28.9 5.8 47.8 5.8 40.1-.1 76.1-10.7 109-32.3 12.9-8.5 21.7-15.9 33.5-28.1 16.1-16.6 25.9-30.5 35.5-50.4 20.4-42 25.5-90 14.4-134.5-3.9-15.8-5.5-18-12.9-18-2.7 0-4.4.8-6.6 2.9-3.5 3.5-3.6 6.1-.9 15.1 6.1 20 8 51.7 4.6 74.4-7.6 49-35.6 93.2-76.5 120.7-60.5 40.7-138 41-198.3.9C23.4 301.3 1.4 190.7 56.5 108.5 70 88.4 85.1 73.2 104.9 59.9c39.5-26.6 88.2-36.2 135-26.8 5.7 1.1 12.1 2.7 14.3 3.5 2.2.8 5.3 1.4 6.8 1.4 3.6 0 8.7-4.2 9.5-8 .8-3.7-1.6-8.5-5.3-10.4-4.3-2.2-22.7-6.5-34.7-8.1-13.7-1.8-40.7-1.8-53.7.1z"/><path d="M330 30.1c-3 1.2-62.5 60.3-64.6 64.1-1.1 2.1-1.4 7.1-1.4 21.5v18.8L229.5 169c-36.9 37-36.4 36.4-33.1 42.9.8 1.5 2.6 3.2 4.1 3.9 6.3 2.9 5.8 3.3 42.5-33.3l34.5-34.5h18.8c14.4 0 19.4-.3 21.5-1.4 4.2-2.2 63-61.7 64.2-64.9 1.4-3.9.3-7.2-3.2-10.2-2.9-2.4-3.3-2.5-19.4-2.5H343V36l-2.7-2.9c-3.2-3.5-6.7-4.5-10.3-3zm-5.1 53.7c1.9 3.5 7 5.2 15.8 5.2h7.8L329 108.5 309.5 128H284v-25.5l19.3-19.3L322.5 64l.5 8.7c.3 4.9 1.2 9.9 1.9 11.1z"/><path d="M183.5 70.6c-44.3 6.7-84.7 37.1-103.5 77.7-35.7 77.3 5.2 167.5 86.5 191.2 14.6 4.2 27.1 5.8 43 5.2 36.1-1.3 67.6-14.9 93-40.2 25.1-25.2 38.9-56.8 40.2-92.5.6-16.4-.4-20.5-5.8-23.4-4.2-2.3-7.9-1.7-11.4 1.8-2.1 2.1-2.3 3.3-2.8 19.2-.6 18.9-2.2 27.2-8.2 42-11.7 29.2-35.8 53.2-65.1 65-14.3 5.8-23.1 7.5-40.9 8.1-13.8.4-17.4.2-26.5-1.7-45.1-9.3-79.6-41.8-91.7-86.7-2.5-9-2.7-11.3-2.7-29.3s.2-20.3 2.7-29.3c11.4-42.4 43.4-74.4 85.4-85.4 7.8-2 13.3-2.7 26.4-3.2 14.3-.5 17-.9 18.7-2.5 4.9-4.4 3.1-13.5-3.2-16.1-4.5-1.9-21.6-1.8-34.1.1z"/><path d="M192.8 129c-31 5.3-55.3 27.1-64 57.7-3.2 11.1-3.2 29.5 0 40.7 7.9 27.7 28.2 47.9 55.9 55.8 11.1 3.2 29.5 3.2 40.6 0 33-9.4 55.7-37 58.4-70.9l.6-8.2-3.6-3.6c-4.4-4.4-8.4-4.7-12.8-.7-2.8 2.5-3.2 3.6-3.9 10.8-1.7 16.4-6.6 27.1-17.5 37.9-18.6 18.6-45.6 22.8-68.9 10.8-9.5-4.9-20-15.4-24.9-24.9-12-23.3-7.8-50.3 10.8-68.9 10.8-10.9 21.5-15.8 37.9-17.5 7.2-.7 8.3-1.1 10.8-3.9 3.9-4.4 3.7-8.4-.6-12.7-3.1-3.1-3.9-3.4-8.7-3.3-3 .1-7.5.5-10.1.9z"/></g></svg>