<svg xmlns="http://www.w3.org/2000/svg" version="1.0" viewBox="0 0 416 427"><g stroke-width="0"><path d="M199.5 5.9c-9.8 4.5-13.9 15.1-9.6 24.7 1.8 4.1 8.4 10.4 10.8 10.4 1 0 1.3 3.7 1.3 15.9v15.8l-7.5.6c-20.7 1.8-46.7 10.6-62.3 21.2l-3.7 2.5-.3-21.2c-.1-13.5-.6-21.6-1.3-22.5-.9-1-6.5-1.3-25.3-1.3l-24.1-.1-1.9-4c-4-8.7-16.4-12.6-25.4-8-4.6 2.3-6.7 4.6-8.7 9.4-5.7 13.6 6.1 28.6 20.6 26.2 5.3-.9 11.8-5.9 13.8-10.6l1.6-3.9H119v42.1l-9.8 9.7c-5.4 5.3-12.4 13.4-15.6 17.9l-5.8 8.3H56.7l-11.2 11c-10.6 10.5-11.3 11-13.9 10-6.8-2.5-17.3-.3-21.8 4.7C7.1 167.6 5 173.5 5 178c0 9.8 9.3 19 19.2 19 6.8-.1 15.3-6 17.7-12.3 1.4-3.8 1.4-11-.1-14.2-1.1-2.5-.7-3 8.7-12.5l10-10h10.7c6 0 10.8.2 10.8.4s-1.6 4.2-3.6 8.8c-15.3 35.7-15.3 75.9 0 111.6 2 4.6 3.6 8.6 3.6 8.8 0 .2-4.8.4-10.8.4H60.5l-10-10c-9.4-9.5-9.8-10-8.7-12.5 1.5-3.2 1.5-10.4.1-14.2-1.5-4-5.7-8.2-10.4-10.4-15.3-7.1-31.6 9.1-25 24.8 2 4.8 4.1 7.1 8.8 9.5 4.3 2.1 11.7 2.6 16.1.8 2.8-1 3.2-.8 14.1 10l11.2 11h31.1l5.8 8.2c3.2 4.6 10.2 12.7 15.6 18l9.8 9.7V365H77.5l-1.6-3.9c-2-4.7-8.5-9.7-13.8-10.6-14.5-2.4-26.3 12.6-20.6 26.2 2 4.8 4.1 7.1 8.7 9.4 9 4.6 21.4.7 25.4-8l1.9-4 24.1-.1c18.8 0 24.4-.3 25.3-1.3.7-.9 1.2-9 1.3-22.5l.3-21.2 3.7 2.5c15.6 10.6 41.6 19.4 62.3 21.2l7.5.6v31.5l-2.9 1.2c-5.9 2.4-11.1 10.4-11.1 17 0 1.7.7 4.7 1.5 6.8 6.7 16 28.3 16 35 0 .8-2.1 1.5-5.1 1.5-6.8 0-6.6-5.2-14.6-11.1-17l-2.9-1.2V353h3.8c5.8 0 20.9-2.7 30.2-5.4 11-3.2 22.6-8.2 32.3-13.9l7.7-4.6v21.2c0 15.2.3 21.6 1.2 22.5.9.9 7.9 1.2 25.2 1.2l24.1.1 1.9 4c5.7 12.3 24.6 13.4 32.3 1.8 11.6-17.6-9.7-38.1-26.8-25.7-2.4 1.7-4.8 4.6-5.8 6.9l-1.6 3.9H295v-42.8l6-5.2c6.2-5.4 16.3-17 21.9-25.3l3.2-4.7h31.2l11.2-11c10.9-10.8 11.3-11 14.1-10 6.7 2.6 17 .4 21.6-4.7 2.7-2.9 4.8-8.8 4.8-13.3 0-9.8-9.3-19-19.2-19-6.8.1-15.3 6-17.7 12.3-1.4 3.8-1.4 11 .1 14.2 1.1 2.5.7 3-8.7 12.5l-10 10h-10.7c-6 0-10.8-.4-10.8-.8 0-.5 1.2-3.2 2.6-6.1 3.5-7.3 7.9-20.9 10.1-31.1 2.5-12 2.5-42 0-54-2.2-10.2-6.6-23.8-10.1-31.1-1.4-2.9-2.6-5.6-2.6-6.1 0-.4 4.8-.8 10.8-.8h10.7l10 10c9.4 9.5 9.8 10 8.7 12.5-1.5 3.2-1.5 10.4-.1 14.2 1.5 4 5.7 8.2 10.4 10.4 15.3 7.1 31.6-9.1 25-24.8-2-4.8-4.1-7.1-8.7-9.4-4.1-2.1-12.1-2.5-16.4-.9-2.6 1-3.3.5-13.9-10l-11.2-11h-31.2l-3.2-4.8c-5.6-8.2-15.7-19.8-21.9-25.2l-6-5.2V61h41.5l1.6 3.9c2 4.7 8.5 9.7 13.8 10.6 14.5 2.4 26.3-12.6 20.6-26.2-2-4.8-4.1-7.1-8.7-9.4-9-4.6-21.4-.7-25.4 8l-1.9 4-24 .1c-17.4 0-24.4.3-25.3 1.2-.9.9-1.2 7.3-1.2 22.5v21.2l-7.7-4.6c-9.7-5.7-21.3-10.7-32.3-13.9-9.3-2.7-24.4-5.4-30.2-5.4H212V57c0-12.3.3-16 1.3-16 2.4 0 9-6.3 10.8-10.4 2.4-5.2 2.4-10 0-15.1-4.5-9.8-15.2-14-24.6-9.6zm14.1 10.5c2.5 2.4 3.4 4.3 3.4 6.6 0 4.4-5.6 10-10 10s-10-5.6-10-10 5.6-10 10-10c2.3 0 4.2.9 6.6 3.4zm-148.3 33c7 6.5 2.5 17.2-7 16.9-2.9-.1-4.4-.9-6.6-3.3-2.5-2.8-2.8-3.9-2.4-7.4 1.1-8 10.2-11.5 16-6.2zm296.2-.1c1.7 1.4 2.8 3.6 3.2 6.3.4 3.5.1 4.6-2.4 7.4-2.2 2.4-3.7 3.2-6.6 3.3-4.4.1-8.7-2.7-10-6.7-3-9.1 8.5-16.6 15.8-10.3zM233.4 84.5c43.1 9.7 77.1 37.7 94.3 77.6 14.5 33.4 13.4 74.5-2.7 107.4-16.3 33.3-43.1 56.8-77.4 68-15.8 5.1-22.2 6-41.6 6-15.5-.1-18.7-.4-28.2-2.8-37.3-9.3-66-30.7-84.6-63-16.9-29.5-21.6-64.1-13.1-97.1 8.8-34.5 31.2-63.6 62.4-81.5 13.7-7.9 30-13.5 46.4-16.1 8.2-1.3 36.3-.4 44.5 1.5zM31.1 170.9c4.7 4.7 3.6 12.1-2.3 15.5-4.1 2.5-8.9 1.4-12.3-2.6-2.3-2.7-2.6-3.9-2.2-7.2 1.2-8.4 10.8-11.7 16.8-5.7zm365.4-.6c1.7 1.4 2.8 3.6 3.2 6.3.4 3.3.1 4.5-2.2 7.2-6.5 7.7-17.5 3.4-17.5-6.9 0-7.5 10.6-11.7 16.5-6.6zM29 239.7c8.7 5.1 5.2 18.3-4.9 18.3-5.4 0-9-3.2-9.8-8.5-1.1-8.2 7.6-14 14.7-9.8zm368.4 2.4c2.4 2.7 2.7 3.8 2.3 7.3-.8 5.4-4.4 8.6-9.8 8.6-10 0-13.6-12.9-5.1-18.3 3.9-2.5 9-1.5 12.6 2.4zM64.9 361.9c7.4 5.2 3.3 17.1-6 17.1-5.2 0-8.9-3.3-9.6-8.6-.4-3.3-.1-4.5 2.1-7.1 3.8-4.6 8.4-5 13.5-1.4zm297.5 1.3c2.4 2.7 2.8 3.6 2.3 7.2-1.4 10-14 11.9-18.7 2.7-1.5-2.9-.6-8.3 1.8-10.4 4.8-4.3 10.2-4.1 14.6.5zm-148.8 33.2c2.5 2.4 3.4 4.3 3.4 6.6 0 4.4-5.6 10-10 10-2.3 0-4.1-.9-6.6-3.4-4.6-4.6-4.6-8.6 0-13.2s8.6-4.6 13.2 0z"/><path d="M188.3 112.5c-20.2 3.7-40.4 14.5-54.6 29.4-5.7 5.9-6.8 8.6-4.5 10.9 2.4 2.4 5.4 1.2 10.8-4.4 11.8-12 27.4-21.2 43.5-25.6 11.4-3.1 35.5-3.1 46.7 0 35.8 9.9 61.8 38 68.4 74.2.9 5 1.5 9.3 1.2 9.5-.3.3-2.7-.2-5.4-1s-6.1-1.5-7.6-1.5c-5.1 0-5.1 2.2.3 22.6 2.8 10.4 5.6 19.5 6.1 20.1 2.5 3.1 5.5 1.2 19.7-13.1 12.8-12.8 14.3-14.7 13.7-17-.5-2.1-1.6-2.8-6.4-4.1-11.7-3.3-10.5-2.1-11.9-12.4-3.1-23.4-12.5-42.4-29.3-59.1-15.8-15.9-34.5-25.5-56-29-8.7-1.3-25.8-1.1-34.7.5zM304 217.6c3.6.9 7.1 1.9 7.7 2.3.9.4-1 3-5.7 7.6-3.8 3.8-7.1 6.7-7.3 6.4-.5-.6-4.7-16.5-4.7-17.8 0-.7.8-1 1.8-.7.9.3 4.6 1.3 8.2 2.2z"/><path d="M194.1 145.8c-5.3 2.6-7.2 6-7.8 13.6l-.6 6.6-4.6 2.6-4.6 2.6-5.3-2.6c-6.2-3.1-11.5-3.3-15.7-.8-3.9 2.4-13.5 19.5-13.5 24.1 0 4.8 3.2 9.4 8.8 12.4l4.8 2.6-.1 6.1-.1 6.1-4.9 2.8c-10.1 5.8-10.8 11.4-3.3 25 7.6 13.6 12.9 16 24 10.5l5.3-2.6 4.6 2.6 4.6 2.6.6 6.6c.9 11.9 5.7 15.4 20.7 15.4s19.8-3.5 20.7-15.4l.6-6.6 4.6-2.6 4.6-2.6 5.3 2.6c11.1 5.5 16.4 3.1 24-10.5 7.5-13.7 6.9-19-3-24.9l-5.3-3.2v-11.7l4.8-2.8c5.6-3.3 8.7-7.6 8.7-12.4 0-4.6-9.6-21.7-13.5-24.1-4.2-2.5-9.5-2.3-15.7.8l-5.3 2.6-4.6-2.6-4.6-2.6-.6-6.6c-.9-11.9-5.7-15.4-20.7-15.4-7.1 0-10.4.5-12.9 1.8zm22 8.2c1.6.9 1.9 2.2 1.9 7.3 0 8.8.6 10.2 5.2 12.3 2.3 1 5.8 3.1 7.9 4.6 4.9 3.5 7 3.5 13.6-.2 2.9-1.7 6.1-3 7.2-3 2.5 0 11.5 15.1 10.7 17.8-.3 1-3.5 3.4-7 5.5l-6.5 3.7v22l6.5 3.7c3.5 2.1 6.7 4.5 7 5.5.8 2.7-8.2 17.8-10.7 17.8-1.1 0-4.3-1.4-7.2-3-6.6-3.7-8.7-3.7-13.6-.2-2.1 1.5-5.6 3.6-7.9 4.6-4.6 2.1-5.2 3.5-5.2 12.3 0 7.6-.9 8.3-11 8.3s-11-.7-11-8.3c0-8.8-.6-10.2-5.2-12.3-2.3-1-5.8-3.1-7.9-4.6-4.9-3.5-7-3.5-13.6.2-2.9 1.6-6.1 3-7.2 3-2.4 0-11.5-15.2-10.6-17.8.3-.9 3.4-3.4 7-5.5l6.5-3.8v-21.8l-6.5-3.8c-3.6-2.1-6.7-4.6-7-5.5-.9-2.6 8.2-17.8 10.6-17.8 1.1 0 4.3 1.3 7.2 3 6.6 3.7 8.7 3.7 13.6.2 2.1-1.5 5.6-3.6 7.9-4.6 4.6-2.1 5.2-3.5 5.2-12.3 0-4.8.4-6.4 1.8-7.2 2.2-1.4 15.8-1.4 18.3-.1z"/><path d="M199 182.9c-8.6 2.8-15.9 9-20.1 17.1-2 3.7-2.4 6-2.4 13 0 7.3.4 9.2 2.7 13.5 3.2 6 8.7 11.4 14.8 14.6 3.7 2 6 2.4 13 2.4s9.3-.4 13-2.4c6.1-3.2 11.6-8.6 14.8-14.6 2.3-4.3 2.7-6.2 2.7-13.5 0-7-.4-9.3-2.4-13-5.6-10.8-15.1-17.1-26.6-17.6-3.8-.2-8.1 0-9.5.5zm14.5 9.2c2.5.7 5.8 2.9 8.6 5.8 9.2 9.1 9.2 21.1 0 30.2-9.1 9.2-21.1 9.2-30.2 0-9-8.9-9.2-20.7-.6-29.8 6.3-6.6 13.5-8.6 22.2-6.2z"/><path d="M101.1 192.4c-12.7 12.7-14.3 14.7-13.7 16.9.5 2.1 1.7 2.9 6.4 4.2 11.7 3.3 10.5 2.1 11.9 12.4 3.1 23.4 12.5 42.4 29.3 59.1 19.9 20 44 30 72.1 30 10.9 0 23.5-1.9 32.4-5 15-5.2 31-15.3 41.3-26.3 5.2-5.6 6.2-8.3 4-10.5-2.4-2.4-5.4-1.2-10.8 4.4-11.8 12-27.4 21.2-43.5 25.6-11.6 3.1-35.5 3.1-47 0-30.9-8.5-56.2-32.6-65.3-62.2-2.1-7-4.7-20.9-4-21.6.3-.2 2.7.3 5.4 1.1s6.1 1.5 7.6 1.5c5.1 0 5.1-2.2-.3-22.6-2.8-10.4-5.6-19.5-6.1-20.2-2.5-3-5.5-1.1-19.7 13.2zm16.8 8.6c1.3 5 2.2 9.3 1.9 9.5-.3.3-2.9-.2-5.9-1-3-.8-7.2-2-9.3-2.6l-3.9-1.1 6.9-6.9c3.8-3.8 7.1-6.9 7.4-6.9.3 0 1.6 4.1 2.9 9z"/></g></svg>