<svg xmlns="http://www.w3.org/2000/svg" version="1.0" viewBox="0 0 752 752"><path fill-opacity=".27" d="M572.3 147.7c5.4.2 13.9.2 19 0 5.1-.1.7-.3-9.8-.3-10.4 0-14.6.2-9.2.3zm-214.5 189c42 .2 110.4.2 152 0 41.6-.1 7.3-.2-76.3-.2s-117.7.1-75.7.2zm52.5 221c21.3.2 56.1.2 77.5 0 21.3-.1 3.8-.2-38.8-.2-42.6 0-60.1.1-38.7.2z"/><g stroke-width="0"><path d="M560.2 149.2c-1.6 1.6-1.5 5.5.1 6.5.6.4 7.5 1 15.1 1.3l13.9.5-41.2 47c-22.7 25.8-42.3 48-43.5 49.3l-2.3 2.3-46.9-22.1c-25.8-12.1-47.7-21.9-48.6-21.8-1 .2-23.8 20.2-50.8 44.6-52 46.9-52.6 47.6-46.5 50.4 2 .9 2.8.8 4.2-.4 1-.8 22.5-20.1 47.7-42.9 25.2-22.8 46.2-41.5 46.6-41.7.4-.1 21.7 9.7 47.4 21.8 25.7 12.1 47.6 22 48.6 22 1.2 0 17.8-18.2 46.2-50.4l44.3-50.5.5 12.7c.3 7 .9 13.3 1.3 13.9 1 1.6 4.9 1.7 6.5.1 1.7-1.7 1.7-40.9 0-42.6-.9-.9-7-1.2-21.3-1.2s-20.4.3-21.3 1.2z"/><path d="M158 239.1c-6.2 2.5-10 8.5-10 15.7 0 5.4 2.5 10 7.3 13.6 2.7 2 4.1 2.1 38.9 2.4 26.2.2 36.4 0 37.4-.9.8-.7 1.4-3.1 1.4-6V259h5.4c3.6 0 6.1.6 7.5 1.7 1.6 1.4 11.3 30 40 118.3 20.9 64.1 38.2 117.2 38.5 118 .5 1.2-.4 2-3.1 2.9-12.4 4.5-19.9 15.2-19.7 28.2 0 8.4 3.6 16.2 10 21.8 4.3 3.8 11.6 7.1 15.6 7.1 2.3 0 2.3.6-.2 3.7-2.4 3-5 11.4-5 15.8 0 9.3 6.9 20.4 15.4 24.7 5.8 3 16.2 3.6 22.3 1.3 5.7-2.2 12.7-8.5 15.6-14 1.7-3.1 2.2-5.8 2.2-12 0-7.2-.3-8.6-3.3-13.8L371 557h155.9l-3.1 5.1c-3.7 5.9-4.9 15-2.9 22.2 5.3 18.8 29.9 26 44.9 13.1 12.3-10.5 12.6-30.3.7-41.3-8.9-8.2 2.1-7.5-127.6-8.1l-115.5-.5-3.6-2.4c-11.1-7.6-12.7-22.3-3.5-31.5 2.4-2.4 6-4.7 8.3-5.4 3.2-.9 29.4-1.2 111.1-1.2h107l3.3-2.2c1.8-1.3 4.1-3.4 5.2-4.8 2.2-3 50.8-152.1 50.8-155.9-.1-3.4-3.2-10.1-5.8-12.4-5.3-4.8-.1-4.6-163.8-4.7h-154l-10.8-33.3c-5.9-18.2-11.7-34.6-12.7-36.4-2.7-4.4-9.2-7.3-16.2-7.3H233v-4.8c0-2.6-.5-5.3-1.2-6-1.5-1.5-70-1.6-73.8-.1zm66 15.4v7.5h-30.9c-17 0-31.7-.3-32.6-.6-2.4-1-4.6-6-3.9-8.9 1.3-5.4 2.2-5.5 36.1-5.5H224v7.5zm366.1 84.4c1.6 1.6 2.9 3.7 2.9 4.7 0 1.6-43.5 137-47.6 148.2-.9 2.3-2.4 4.7-3.4 5.2-1.2.6-38.5 1-103.8 1-100.3 0-101.9 0-103.7-2-1.6-1.7-52.4-155.5-52.5-158.8 0-.9 31.2-1.2 152.6-1.2h152.6l2.9 2.9zM355.3 558.1c8.4 2.3 14.5 11.5 13.5 20.4-2.3 19.9-30.1 22.6-36.6 3.6-2.6-7.4-.1-15.8 6.1-20.5 5.7-4.4 10.5-5.4 17-3.5zM557 560c5.5 2.8 9.5 9.8 9.4 16.5-.3 19.5-26.3 25.7-35.5 8.5-2.3-4.2-2.5-12.9-.5-16.8 5.2-9.9 16.5-13.4 26.6-8.2z"/></g><path fill-opacity=".36" d="M604.4 170.5c0 9.9.2 13.8.3 8.7.2-5.1.2-13.2 0-18-.1-4.8-.3-.6-.3 9.3z"/></svg>