<svg xmlns="http://www.w3.org/2000/svg" version="1.0" viewBox="0 0 752 752"><g stroke-width="0"><path d="M254 155.4c-14.1 3.9-24.9 13.5-30.4 27-2.1 5.1-2.1 5.6-2.6 162.1l-.5 157-33.2.3-33.3.2v28.3c0 30 .6 35.1 5.1 43.9 3 5.8 11.9 15 17.7 18.1 11 6 2.7 5.7 167.7 5.7 122.6 0 151.9-.3 156-1.4 13.7-3.6 24-13.1 28.6-26.3 1.8-5.4 1.9-9.4 1.9-122V332h67.1l-.3-73.3c-.3-67.4-.4-73.6-2.1-77.7-4.7-12-14.7-21.4-26.5-25-6.3-2-9.6-2-158.6-1.9-118.5.1-153.1.4-156.6 1.3zm271 14.2c0 .3-.8 1.8-1.9 3.2-1 1.5-2.7 4.5-3.7 6.7-1.8 3.8-1.9 11.3-2.4 194-.5 178.2-.6 190.2-2.2 193.7-9.3 19.6-35.8 21.3-46.6 2.9l-2.7-4.6-.3-31.7-.3-31.8-114.7-.2-114.7-.3V347c0-124.3.3-155.2 1.3-158.2 2.9-8.2 10.2-15.3 18.9-18.4 3.1-1.1 27.5-1.3 136.6-1.4 73 0 132.7.3 132.7.6zm41.3 1c2.8 1 6.5 3.4 9.1 6 7.8 7.8 7.6 5.5 7.6 77.1V317l-25.7-.2-25.8-.3v-64c0-70.9-.3-67.1 6.6-75 6.8-7.7 17.9-10.4 28.2-6.9zM450 539.9c0 25.1 1 31.3 6.5 39.3l2.6 3.8h-133c-130.7 0-133.1 0-138.4-2-7.1-2.6-14.1-9.6-16.7-16.7-1.8-4.8-2-7.8-2-26.3v-21h281v22.9z"/><path d="m353.8 200.1-.3 9.1-6 2.4-5.9 2.4-6.3-6.2-6.3-6.3-15.7 15.8-15.8 15.7 6.3 6.3 6.3 6.4-2.3 5.9-2.4 5.9-9.2.3-9.2.3V302h18.5l2.4 6.1 2.3 6.1-6.3 6.4-6.4 6.4 15.8 15.7 15.7 15.8 6.4-6.4 6.4-6.3 6.1 2.3 6.1 2.4V369h44v-18.5l6.1-2.4 6.1-2.3 6.4 6.3 6.4 6.4 15.7-15.8 15.8-15.7-6.4-6.4-6.3-6.4 2.3-6.1 2.4-6.1H465v-43.9l-9.2-.3-9.2-.3-2.4-5.9-2.3-5.9 6.3-6.4 6.3-6.3-15.8-15.7-15.7-15.8-6.3 6.3-6.3 6.2-5.9-2.4-6-2.4-.3-9.1-.3-9.1h-43.8l-.3 9.1zm29.4 13.1.3 7.3 7 1.8c3.9 1 10.3 3.6 14.4 5.8l7.4 4 5.4-5.3 5.3-5.3 5.2 5.3 5.3 5.2-5.4 5.3-5.3 5.4 3.1 4.9c3.1 5.2 6.3 13 8.1 20.1l1.1 4.3H450v15h-14.7l-1.7 6.7c-1.6 6.6-4.9 14.4-8.3 19.5l-1.8 2.8 5.3 5.3 5.2 5.2-5.2 5.3-5.3 5.2-5.1-5.1-5.2-5.1-7.3 4c-7.2 3.9-10 4.9-18.6 7.2l-4.3 1.1V354h-14v-7.5c0-7.3 0-7.5-2.7-8-7.5-1.6-16.4-4.9-21.3-8l-5.5-3.4-5.3 5.2-5.2 5.2-5.2-5.3-5.3-5.2 5.2-5.1 5.1-5.2-3.8-7.1c-2.1-3.9-4.9-10.6-6.1-14.9l-2.2-7.7H302v-15h14.8l1.2-5.3c1.3-5.5 6.7-17.9 9.3-21.2 1.5-1.9 1.3-2.3-3.9-7.5l-5.4-5.6 5.3-5.2 5.3-5.2 5.3 5.4 5.3 5.4 5.9-3.5c3.2-1.9 9.8-4.7 14.6-6.2l8.8-2.7.3-7.2.3-7.2h13.8l.3 7.2z"/><path d="M365.3 244.4c-24.1 7.8-33.6 35.2-19.7 56.2 4.1 6.1 8.2 9.5 16.2 13.2 4.8 2.2 7.1 2.7 14.2 2.7 7.5 0 9.3-.4 15.2-3.2 8.4-3.9 14.1-9.7 18.1-18.1 2.9-6 3.2-7.7 3.2-15.7 0-8.2-.3-9.7-3.2-15.6-6.3-12.8-17.6-20-31.8-20.6-4.9-.2-9.6.3-12.2 1.1zm20.2 15.5c8.1 3.6 13 12.1 12.3 21.2-1.2 17-19.1 26.2-33.4 17.3-8.7-5.3-12.8-17.7-9.1-26.7 3.6-8.6 11.3-13.7 20.7-13.7 3.2 0 7.2.8 9.5 1.9zM265 398.5v7.5h118v-15H265v7.5zm133.2-.3.3 7.3 7.3.3 7.2.3V391h-15.1l.3 7.2zM265 435.5v7.5h192v-15H265v7.5zm207.2-.3.3 7.3 7.3.3 7.2.3V428h-15.1l.3 7.2zM265 472.5v7.5h148v-15H265v7.5zm163 0v7.6l7.3-.3 7.2-.3.3-7.3.3-7.2H428v7.5z"/></g><path fill="none" d="M427 237.5c-2.4 2.5-4.2 4.5-3.9 4.5.3 0 2.5-2 4.9-4.5 2.4-2.5 4.2-4.5 3.9-4.5-.3 0-2.5 2-4.9 4.5zM302.3 280c0 4.1.2 5.8.4 3.7.2-2 .2-5.4 0-7.5-.2-2-.4-.3-.4 3.8zM417 330.3c0 .2 1.5 1.6 3.3 3.3l3.2 2.9-2.9-3.3c-2.8-3-3.6-3.7-3.6-2.9z"/><path fill-opacity=".2" d="M302.2 464.7c20.1.2 53.4.2 74 0 20.5-.1 4-.2-36.7-.2s-57.5.1-37.3.2zm129.1 0c2 .2 5.4.2 7.5 0 2-.2.3-.4-3.8-.4s-5.8.2-3.7.4z"/><path fill-opacity=".4" d="M292.3 257.7c2.6.2 6.7.2 9 0s.2-.3-4.8-.3c-4.9 0-6.8.1-4.2.3zm159 0c2.6.2 6.7.2 9 0s.2-.3-4.8-.3c-4.9 0-6.8.1-4.2.3zm-145.6 15c1.8.2 5 .2 7 0 2.1-.2.7-.4-3.2-.4-3.8 0-5.5.2-3.8.4zm133.6 0c2 .2 5.4.2 7.5 0 2-.2.3-.4-3.8-.4s-5.8.2-3.7.4zm18 162.3c0 4.1.2 5.8.4 3.7.2-2 .2-5.4 0-7.5-.2-2-.4-.3-.4 3.8z"/><path fill-opacity=".02" d="M300 236.5c1.9 1.9 3.6 3.5 3.9 3.5.3 0-1-1.6-2.9-3.5s-3.6-3.5-3.9-3.5c-.3 0 1 1.6 2.9 3.5zm116 115.8c0 .2 1.5 1.6 3.3 3.3l3.2 2.9-2.9-3.3c-2.8-3-3.6-3.7-3.6-2.9z"/><path fill-opacity=".07" d="M324 238.4c0 .2.8 1 1.8 1.7 1.5 1.3 1.6 1.2.3-.4s-2.1-2.1-2.1-1.3zm115.9 103.3-3.4 3.8 3.8-3.4c2-1.9 3.7-3.6 3.7-3.8 0-.8-.8 0-4.1 3.4zm-14.5 14.5-1.9 2.3 2.3-1.9c1.2-1.1 2.2-2.1 2.2-2.3 0-.8-.8-.2-2.6 1.9z"/><path fill-opacity=".06" d="M311 341.5c1.9 1.9 3.6 3.5 3.9 3.5.3 0-1-1.6-2.9-3.5s-3.6-3.5-3.9-3.5c-.3 0 1 1.6 2.9 3.5zm14.5 14.5c1 1.1 2 2 2.3 2 .3 0-.3-.9-1.3-2s-2-2-2.3-2c-.3 0 .3.9 1.3 2z"/><path fill-opacity=".03" d="m447.4 240.2-1.9 2.3 2.3-1.9c1.2-1.1 2.2-2.1 2.2-2.3 0-.8-.8-.2-2.6 1.9zM334.9 352.7c-1.3 1.6-1.2 1.7.4.4 1.6-1.3 2.1-2.1 1.3-2.1-.2 0-1 .8-1.7 1.7z"/><path fill-opacity=".07" d="M321 235.4c0 .2.8 1 1.8 1.7 1.5 1.3 1.6 1.2.3-.4s-2.1-2.1-2.1-1.3zm-18 97.8c4.1 4.5 5 5.3 5 4.5 0-.2-2.1-2.3-4.7-4.7l-4.8-4.5 4.5 4.7zm145 .3c-2.4 2.5-4.2 4.5-3.9 4.5.3 0 2.5-2 4.9-4.5 2.4-2.5 4.2-4.5 3.9-4.5-.3 0-2.5 2-4.9 4.5zm-133 11.8c0 .2 1.5 1.6 3.3 3.3l3.2 2.9-2.9-3.3c-2.8-3-3.6-3.7-3.6-2.9zm118.4 2.9-2.9 3.3 3.3-2.9c1.7-1.7 3.2-3.1 3.2-3.3 0-.8-.8-.1-3.6 2.9z"/><path fill-opacity=".01" d="M414.5 328c1 1.1 2 2 2.3 2 .3 0-.3-.9-1.3-2s-2-2-2.3-2c-.3 0 .3.9 1.3 2z"/><path fill-opacity=".02" d="M305.5 242c1 1.1 2 2 2.3 2 .3 0-.3-.9-1.3-2s-2-2-2.3-2c-.3 0 .3.9 1.3 2zm138.4 1.7c-1.3 1.6-1.2 1.7.4.4 1.6-1.3 2.1-2.1 1.3-2.1-.2 0-1 .8-1.7 1.7zM323.5 332c2.7 2.7 5.1 5 5.4 5 .3 0-1.7-2.3-4.4-5-2.7-2.8-5.1-5-5.4-5-.3 0 1.7 2.2 4.4 5zm103 1.2-4 4.3 4.3-4c3.9-3.6 4.7-4.5 3.9-4.5-.2 0-2.1 1.9-4.2 4.2zm-87.6 15.5c-1.3 1.6-1.2 1.7.4.4 1.6-1.3 2.1-2.1 1.3-2.1-.2 0-1 .8-1.7 1.7zm74.1.8c1.3 1.4 2.6 2.5 2.8 2.5.3 0-.5-1.1-1.8-2.5s-2.6-2.5-2.8-2.5c-.3 0 .5 1.1 1.8 2.5z"/><path fill-opacity=".2" d="M353.4 200c0 5.2.1 7.4.3 4.7.2-2.6.2-6.8 0-9.5-.2-2.6-.3-.4-.3 4.8zm45 0c0 5.2.1 7.4.3 4.7.2-2.6.2-6.8 0-9.5-.2-2.6-.3-.4-.3 4.8zm145.8 116.7c7 .2 18.7.2 26 0 7.3-.1 1.6-.3-12.7-.3-14.3 0-20.3.2-13.3.3zm-190.8 42.8c0 4.9.1 7.1.3 4.8.2-2.3.2-6.4 0-9-.2-2.6-.3-.8-.3 4.2zm45 0c0 4.9.1 7.1.3 4.8.2-2.3.2-6.4 0-9-.2-2.6-.3-.8-.3 4.2zm-26.1-5.8c2 .2 5.4.2 7.5 0 2-.2.3-.4-3.8-.4s-5.8.2-3.7.4zm-77 37c16.4.2 43 .2 59 0 16.1-.1 2.7-.2-29.8-.2-32.4 0-45.6.1-29.2.2zm107 0c2 .2 5.4.2 7.5 0 2-.2.3-.4-3.8-.4s-5.8.2-3.7.4zm-89.1 37c26.2.2 69.4.2 96 0 26.6-.1 5.1-.2-47.7-.2-52.8 0-74.5.1-48.3.2zm163.1 0c2 .2 5.4.2 7.5 0 2-.2.3-.4-3.8-.4s-5.8.2-3.7.4zm-49 44.3c0 4.1.2 5.8.4 3.7.2-2 .2-5.4 0-7.5-.2-2-.4-.3-.4 3.8zm-256 29.7c9.3.2 24.1.2 33 0 8.9-.1 1.4-.3-16.8-.3-18.1 0-25.4.2-16.2.3zm121.5 0c31.4.2 83 .2 114.5 0 31.4-.1 5.7-.2-57.3-.2s-88.7.1-57.2.2z"/><path fill-opacity=".31" d="M424 202.4c0 .2.8 1 1.8 1.7 1.5 1.3 1.6 1.2.3-.4s-2.1-2.1-2.1-1.3zm4 4c0 .2.8 1 1.8 1.7 1.5 1.3 1.6 1.2.3-.4s-2.1-2.1-2.1-1.3zm11 11.1c1.3 1.4 2.6 2.5 2.8 2.5.3 0-.5-1.1-1.8-2.5s-2.6-2.5-2.8-2.5c-.3 0 .5 1.1 1.8 2.5z"/><path fill-opacity=".19" d="M299.9 323.7c-1.3 1.6-1.2 1.7.4.4 1.6-1.3 2.1-2.1 1.3-2.1-.2 0-1 .8-1.7 1.7z"/><path fill-opacity=".32" d="M427.5 227c2.7 2.7 5.1 5 5.4 5 .3 0-1.7-2.3-4.4-5-2.7-2.8-5.1-5-5.4-5-.3 0 1.7 2.2 4.4 5zm-103.6-.3-3.4 3.8 3.8-3.4c2-1.9 3.7-3.6 3.7-3.8 0-.8-.8 0-4.1 3.4z"/><path fill-opacity=".4" d="M516.5 375.5c0 100.1.1 140.9.2 90.7.2-50.3.2-132.2 0-182-.1-49.9-.2-8.8-.2 91.3zM383.3 398c0 4.1.2 5.8.4 3.7.2-2 .2-5.4 0-7.5-.2-2-.4-.3-.4 3.8z"/><path fill-opacity=".03" d="m451.4 236.2-1.9 2.3 2.3-1.9c1.2-1.1 2.2-2.1 2.2-2.3 0-.8-.8-.2-2.6 1.9zM331.9 355.7c-1.3 1.6-1.2 1.7.4.4.9-.7 1.7-1.5 1.7-1.7 0-.8-.8-.3-2.1 1.3z"/><path fill-opacity=".39" d="M220.5 349.5c0 83.6.1 117.7.2 75.7.2-42 .2-110.4 0-152-.1-41.6-.2-7.3-.2 76.3z"/><path fill-opacity=".28" d="M325.9 203.7c-1.3 1.6-1.2 1.7.4.4.9-.7 1.7-1.5 1.7-1.7 0-.8-.8-.3-2.1 1.3zm-4 4c-1.3 1.6-1.2 1.7.4.4.9-.7 1.7-1.5 1.7-1.7 0-.8-.8-.3-2.1 1.3zm-10 10-2.4 2.8 2.8-2.4c2.5-2.3 3.2-3.1 2.4-3.1-.2 0-1.4 1.2-2.8 2.7z"/><path fill-opacity=".4" d="M531.5 255c0 33.8.1 47.7.2 30.7.2-16.9.2-44.5 0-61.5-.1-16.9-.2-3-.2 30.8zm0 189.5c0 62.1.1 87.4.2 56.2.2-31.3.2-82.1 0-113-.1-30.9-.2-5.4-.2 56.8z"/><path fill-opacity=".41" d="M235.5 349.5c0 83.6.1 117.7.2 75.7.2-42 .2-110.4 0-152-.1-41.6-.2-7.3-.2 76.3z"/><path fill-opacity=".29" d="m317.4 212.2-2.9 3.3 3.3-2.9c3-2.8 3.7-3.6 2.9-3.6-.2 0-1.6 1.5-3.3 3.2zm113.6-2.9c0 .2 1.5 1.6 3.3 3.3l3.2 2.9-2.9-3.3c-2.8-3-3.6-3.7-3.6-2.9zm-126.5 15.9-5 5.3 5.3-5c4.8-4.6 5.7-5.5 4.9-5.5-.1 0-2.5 2.4-5.2 5.2zm142-.2c2.7 2.7 5.1 5 5.4 5 .3 0-1.7-2.3-4.4-5-2.7-2.8-5.1-5-5.4-5-.3 0 1.7 2.2 4.4 5z"/></svg>