<svg xmlns="http://www.w3.org/2000/svg" version="1.0" viewBox="0 0 469 384"><g stroke-width="0"><path d="M194.6 13.9C175 32.5 159.5 41 145 41c-8.2 0-9 1.2-9 13.3V64h-8.5c-9.4 0-12.5 1.6-12.5 6.4 0 4.5 4.2 6.6 13.1 6.6h7.9v17l-18.2-.2-18.2-.3-4.8-8.2-4.9-8.2 1.9-3.8c2.9-5.6 3.5-9.6 2.2-14.5C91.5 49.7 84.3 44 75.1 44c-8.7 0-14.6 3.7-18.2 11.5C51 68.1 60.5 83 74.4 83h4.4l6.1 10.3c3.3 5.7 6.6 10.9 7.4 11.5.9.8 8.4 1.2 22.2 1.4 15.6.2 20.9.6 21.3 1.5.3 1-9 1.3-44.5 1.3H46.5l-5 2.4c-6 2.8-8.7 5.6-11.4 11.6-2 4.4-2.1 6-2.1 107.2V333h-4.7c-13.8.1-23.8 13.1-20.4 26.5 1.5 6 8.3 16 11.3 16.9 1.3.3 100.4.6 220.3.6 171.1 0 218.5-.3 220.4-1.3 3.2-1.7 9.9-13 10.7-18.2 1.9-12.9-8.1-24.5-21.1-24.5H440V127.5l-2.4-5c-2.8-6-5.6-8.7-11.6-11.4-4.3-2-6.4-2.1-49.3-2.1-35.4 0-44.8-.3-44.5-1.3.4-.9 5.8-1.3 21.6-1.5l21.2-.2 2.8-3.9c1.5-2.2 4.6-7.3 7-11.5L389 83h4.6c7.7 0 14.8-4.8 17.9-12.2 5.6-13.6-6.6-29.5-21-27.2-5.4.9-8.6 2.6-12.3 6.8-5.6 6.4-6.5 16.1-2.1 23.2l1.9 3.2-4.8 8.3-4.8 8.4-18.2.3-18.2.2V77h7.9c8.9 0 13.1-2.1 13.1-6.6 0-4.8-3.1-6.4-12.5-6.4H332v-9.8c0-12-.8-13.2-9.1-13.2-14.5 0-30.3-8.7-49.6-27.2L264.2 5h-60.3l-9.3 8.9zm73.2 12.2c15.3 14.3 33.6 24.8 46.4 26.7l5.3.7.3 49c.2 29.6-.1 52.2-.8 57-1.8 14.1-9.2 25.8-24 37.7-2.5 2-17.2 12.2-32.8 22.6l-28.2 19-28-18.8c-39.4-26.4-46.6-32.7-53.1-46.3-4.6-9.8-5-15.1-4.7-69.7l.3-50.5 5.3-.7c12.7-1.9 31.5-12.7 46.2-26.6l8.5-8.1 25.3-.1h25.4l8.6 8.1zM79.5 58.5c4.3 4.2 2.3 10.6-3.5 12-3.8.9-8-2.7-8-6.8 0-3.7.7-4.9 3.5-6.5 3.1-1.8 5.4-1.4 8 1.3zm318.3-.5c3.2 3 3 8.2-.4 10.9-1.5 1.2-3.4 2.1-4.4 2.1-1 0-2.9-.9-4.4-2.1-3.6-2.8-3.6-8 0-10.8 3.4-2.7 6.4-2.7 9.2-.1zM136 122.9c0 .5-5.9 1.1-13.1 1.3-11.6.3-13.2.5-14.5 2.2-1.9 2.6-1.8 6.5.3 8.8 1.4 1.6 3.3 1.8 14.5 1.8H136v19h-20c-21.5 0-23.2.3-27.8 5.3-2.1 2.2-2.8 2.4-5.4 1.5-1.6-.6-5.1-.8-7.8-.6-15.7 1.5-23.2 20.5-12.8 32.4 4.3 4.8 8.3 6.7 14.8 6.8 13.6.1 23.7-13.7 19-26-.8-2.1-.7-3.1.6-4.5 1.6-1.7 3.5-1.9 21.4-1.9h19.7l1.2 4.2c3 10.1 12 21.9 24.6 32.3 9 7.5 68.4 47.5 70.5 47.5 1.5 0 53.6-34.5 64.9-43.1 9.2-6.8 21.6-19.7 25.2-25.9 1.5-2.5 3.5-6.9 4.5-9.8l1.9-5.2h19.6c17.7 0 19.7.2 21.3 1.8 1.3 1.6 1.4 2.4.5 5.1-2.8 8.1 1.5 19.2 8.9 23 9 4.6 17.1 3.5 23.8-3.3 7.2-7.1 8-16 2.4-24.9-4.5-7.2-14.7-10.7-22.6-7.7-2.3.9-3.1.6-7-3l-4.4-4h-41v-19h12.3c13.8 0 16.7-1 16.7-5.8 0-5.9-3.1-7.2-17.4-7.2-7.1 0-11.6-.4-11.6-1 0-.7 15.5-1 44.6-1h44.6l2.9 2.9 2.9 2.9V333H41V127.8l2.9-2.9 2.9-2.9h44.6c26.5 0 44.6.4 44.6.9zm-53.7 53.9c4 3.5.7 12.2-4.7 12.2-3.5 0-7.6-3.7-7.6-6.9 0-6.8 6.9-9.9 12.3-5.3zm315.1 2.5c3 8.5-9.6 13.5-13 5.1-1.5-3.7-.2-7.2 3.5-9.1 3.4-1.6 8.3.4 9.5 4zm52.2 167.5c3.7 2.4 4.4 9.1 1.4 14l-2 3.2H19l-2-3.3c-3-4.8-2.3-11.5 1.4-13.9 1.4-1 429.8-1 431.2 0z"/><path d="M206.5 38.6c-8.9 8.4-21.6 16.8-33.9 22.3-6.9 3.2-9.8 5-10.2 6.5-.2 1.2-.4 23-.2 48.6l.3 46.5 2.6 5.5c4.8 10.2 15.7 19.4 49.2 41.3 9.8 6.4 18.7 11.7 19.7 11.7 2 0 34-20.7 47.5-30.7 10.9-8.1 17.9-15.4 21.2-22.2l2.8-5.6.3-47.5c.1-26.1-.1-48-.5-48.6-.5-.7-5.2-3.2-10.7-5.8-12.3-5.7-24.2-13.6-33.3-22l-7.1-6.6h-20.3l-20.4.1-7 6.5zM255 49.9c9 7.8 19.5 14.8 29.8 20l8.3 4.2-.3 43.8-.3 43.8-2.9 4.2c-4 5.8-14.7 14.1-36.9 28.9L234 207.3l-20.3-13.5c-23.8-16-33.2-23.7-36.4-29.7l-2.3-4.4V74l8.3-4.1c9.8-5 23.1-14 30.7-20.8l5.5-5 14.3-.1h14.3l6.9 5.9z"/><path d="M243.8 121.7 223 142.5l-9.8-9.8c-8.3-8.2-10.2-9.7-12.9-9.7-3.9 0-6.9 3.7-6 7.3.4 1.2 6.5 8 13.6 15.1 11.9 11.8 13.2 12.8 15.8 12.2 3.4-.9 49.1-46 49.9-49.4 1-3.5-2-7.2-5.9-7.2-2.8 0-5.5 2.3-23.9 20.7z"/></g></svg>