<svg xmlns="http://www.w3.org/2000/svg" version="1.0" viewBox="0 0 752 752"><g stroke-width="0"><path d="M345.3 152c-4.5 1.8-5.1 4.4-6.7 28.5-.9 12.7-1.6 24.2-1.6 25.6 0 2.3-.8 2.8-9.6 5.7-5.4 1.8-14.4 5.5-20.1 8.2-5.8 2.8-10.9 4.7-11.6 4.3-.7-.4-8.4-7-17.2-14.8-20.8-18.3-21.1-18.5-25.3-18.5-3.3 0-5.1 1.5-24 20.2-11.2 11.2-21 21.6-21.7 23.2-.8 1.9-1 4-.4 5.8.4 1.5 8.2 11.3 17.3 21.7l16.6 18.9-5 10.2c-2.7 5.6-6.4 14.6-8.1 20l-3.3 9.8-6 .6c-3.4.3-14.4 1.1-24.6 1.7-10.2.6-19.8 1.5-21.3 2.1-5.6 2.2-5.7 2.6-5.7 35.4v30.1l2.5 2.6c3.1 3 3.7 3.1 38.3 5.3 28.9 1.9 29.9 1.7 32.7-3.6 2-3.8 1.3-8-1.8-10.8-3.1-2.8-4.1-2.9-23.2-4.1-9.3-.6-19.8-1.4-23.3-1.7l-6.2-.6.2-17.6.3-17.7 24.3-1.6c29.8-1.9 28.5-1.3 32.4-15.5 3.4-12.5 7.5-22.6 13.8-33.5 7.6-13.3 8-12.1-11.5-34.5L229 238.5l12.2-12.2c6.8-6.8 12.6-12.3 13-12.3.4 0 8.9 7.2 18.9 16 10.9 9.5 19.4 16.2 21.1 16.5 2.3.5 4.6-.3 11.1-4 11.8-6.7 22.5-11.2 34.6-14.5 10.8-3 15.1-5.8 15.1-9.8 0-.9.7-10.9 1.5-22.2.8-11.3 1.5-21.7 1.5-23.3V170h36v2.3c0 1.3.7 12.4 1.6 24.8 1.6 23.5 2.2 26.1 6.7 27.9 1.2.5 6.5 2 11.7 3.4 6.2 1.7 15.1 5.4 25.6 10.7 12.3 6.1 16.7 7.9 18.6 7.4 1.4-.4 10.7-7.8 20.7-16.6 10-8.7 18.5-15.9 18.9-15.9.4 0 6.2 5.5 13 12.3l12.2 12.2-16.5 18.9c-19.6 22.3-19.2 21.2-11.5 34.5 6.3 10.9 9.5 18.8 13.4 32.5 4.4 15.4 2.8 14.5 32.8 16.5l24.3 1.6.3 17.7.2 17.6-6.2.6c-3.5.3-13.5 1.1-22.3 1.6-8.8.6-17.4 1.2-19.1 1.5-3.8.6-7.2 4.1-7.9 8-.7 3.8 2.5 9.2 6 10.1 2.4.6 47.6-1.9 58.7-3.2 3.2-.4 5.5-1.4 7.3-3.1l2.5-2.6v-30.1c0-32.8-.1-33.2-5.7-35.4-1.5-.6-11.1-1.6-21.3-2.1-10.2-.6-21.2-1.4-24.6-1.7l-6-.6-3.3-9.8c-1.7-5.4-5.4-14.4-8.1-20l-5-10.2 16.5-18.8c9.1-10.3 16.9-20 17.5-21.4.7-2 .6-3.6-.4-5.9-.8-1.8-10.6-12.3-21.8-23.5-19-18.8-20.7-20.2-24-20.2-4.1 0-3.6-.4-25.8 19-8.5 7.5-16.1 14-16.8 14.4-.7.4-5.4-1.3-11.5-4.3-5.6-2.8-14.6-6.4-20-8.2-9-2.9-9.7-3.3-9.7-5.8 0-1.4-.7-12.9-1.6-25.6-1.7-24.4-2.2-26.7-7-28.5-3.2-1.2-58.1-1.2-61.1 0z"/><path d="M363 252.1c-22.8 2.6-45.1 13.3-62.4 29.9-14.5 13.9-25.1 32-30.3 51.7-2.2 8.4-2.6 12-2.7 25.3-.2 31.4 6.4 45.7 18.3 39.5 4.6-2.3 5.3-6.1 3-15.2-1.1-4.3-2.2-13-2.5-19.3-2.2-43.3 26.9-81.1 70.4-91.7 4.4-1 11-1.6 19.2-1.6s14.8.6 19.2 1.6c33.8 8.2 59 32.5 68 65.5 3.1 11.4 3.1 33.5.1 44.9-2.6 9.5-1.9 13.4 2.8 15.8 11.9 6.2 18.5-8.1 18.3-39.5-.1-13.3-.5-16.9-2.7-25.3-3-11.1-9.5-25.5-15.7-34.7-5.6-8.2-16.7-19.8-24.9-26.1-14-10.6-34.9-18.8-53.4-20.8-10.7-1.2-13.9-1.2-24.7 0z"/><path d="m369.5 303.5-2.5 2.4v228l-5.4 2.4c-6.9 3.2-13.1 9.4-16.5 16.6-2.2 4.7-2.6 7-2.6 14.1 0 7.3.4 9.3 2.8 14.1 3.2 6.7 10.9 14.2 17.5 17.2 3.6 1.6 6.7 2.1 13.2 2.2 7.3 0 9.3-.4 14.1-2.7 7-3.5 13.2-9.7 16.7-16.8 3.7-7.5 3.9-19.9.4-27.4-3.6-7.9-8.5-13.2-15.7-16.7l-6.5-3.2V305.9l-2.5-2.4c-3.4-3.5-9.6-3.5-13 0zm14.6 250.8c9.7 6.4 8.7 21.2-1.7 26.2-7.2 3.4-16.4.2-19.8-6.9-4.8-10.2 2.3-21.6 13.4-21.6 3.2 0 5.8.7 8.1 2.3zm-75.6-237.9c-1.7.7-3.6 2.5-4.3 4-.9 2-1.2 16.6-1.2 58.6v56h-70.5l-1.8-4.5c-2.8-6.8-8.9-13-16.5-16.7-5.9-2.9-7.6-3.3-14.7-3.3-6.7 0-8.9.5-13.7 2.8-12.2 6-18.9 15.9-19.6 29.2-.6 11 2.1 17.9 9.7 25.6 7.7 7.6 14.6 10.3 25.6 9.7 6.2-.4 9.2-1.1 13.3-3.2 6.6-3.3 12.6-9.4 15.4-15.7l2.3-4.8 41.8-.3 41.9-.3 2.9-3.3 2.9-3.2V322l-2.7-2.9c-3.4-3.7-6.8-4.5-10.8-2.7zm-103.2 114c7.8 3.2 11.3 11.6 8.1 19.4-2.8 6.8-7.3 9.5-14.7 9-5.1-.4-6.3-.9-9.4-4.1-3.2-3.1-3.7-4.3-4.1-9.4-.3-4.9 0-6.4 2-9.2 4.3-6.3 11.4-8.5 18.1-5.7z"/><path d="M340.3 316.4c-1.7.8-3.6 2.3-4.2 3.5-.8 1.3-1.1 28.1-1.1 87V492h-14.5l-2-4.8c-2.4-5.9-9.4-13-16-16.2-7.2-3.5-18.9-4-26.7-1-12.6 4.7-20.8 16.1-21.6 29.9-.5 9.9 2 17 8.8 24.4 7 7.6 14.9 11.1 25.2 11.1 6.5 0 8.6-.5 14.2-3.3 7.4-3.6 13.5-9.9 16.3-16.6l1.8-4.5h12.8c15.1 0 18-1 19.7-6.8.8-2.6 1-31 .8-93.4l-.3-89.8-2.5-2.4c-3.2-3.2-6.7-3.9-10.7-2.2zm-44.2 172.9c9 6 8.9 18.1-.2 25-9 6.6-22.9-1-22.9-12.6 0-5.7 4.2-12.2 9-14 3.9-1.4 10.8-.6 14.1 1.6zm108.4-173.4c-1.1.5-2.9 1.9-4 3.1-2 2.2-2 3.8-2.3 91.9-.2 62.4 0 90.7.8 93.3 1.7 5.8 4.6 6.8 19.7 6.8h12.8l1.8 4.5c4.2 10.1 15.7 18.6 27.4 20 6.2.8 15.5-1.4 21.1-4.9 5.8-3.6 11.9-11.1 14.3-17.5 2.9-7.8 2.3-18.6-1.5-26.4-3.4-7.1-11-13.9-18.4-16.7-7.8-3-19.5-2.5-26.7 1-6.6 3.2-13.6 10.3-16 16.2l-2 4.8H417v-85.1c0-59-.3-85.6-1.1-87.1-.6-1.1-2.6-2.6-4.4-3.4-3.9-1.6-4.2-1.6-7-.5zm69.1 174.2c4.2 3.9 5.7 7.7 5.2 12.9-.6 6.2-3.7 10.4-9.3 12.5-5.7 2.2-10.4 1.4-15-2.6-7.8-6.9-6.9-18.5 1.8-24 4.6-2.9 13.6-2.3 17.3 1.2z"/><path d="M436.4 316c-1.2.4-3.1 2.1-4.3 3.6-2.1 2.7-2.1 2.9-2.1 64.5 0 44.1.3 62.5 1.1 64.3 2.5 5.4 4.2 5.6 48.1 5.6h40.3l2.2 4.9c2.9 6.3 8.9 12.3 15.5 15.7 7.6 3.9 19 4.5 27.3 1.3 8.2-3.1 16.3-11.2 19.4-19.4 3.2-8.3 2.6-19.7-1.3-27.3-3.6-7-9.5-12.8-16.5-16-4.5-2.2-7.1-2.6-13.6-2.7-7.1 0-8.8.4-14.7 3.3-7.6 3.7-13.7 9.9-16.5 16.7l-1.8 4.5H449v-56c0-61.8.1-60.7-6.1-62.9-3.7-1.3-3.7-1.3-6.5-.1zM559 430.9c1.9 1 4.6 3.3 5.8 5.2 2 2.8 2.3 4.3 2 9.2-.4 5.1-.9 6.3-4.1 9.4-3.1 3.2-4.3 3.7-9.4 4.1-7.4.5-11.9-2.2-14.7-9-2.3-5.6-1.6-10.4 2.1-14.9 4.9-5.8 12-7.4 18.3-4z"/></g><path fill-opacity=".05" d="M302.5 379.5c0 30.2.1 42.8.2 27.8.2-14.9.2-39.7 0-55-.1-15.3-.2-3.1-.2 27.2z"/><path fill-opacity=".01" d="M509.5 226c6.6 6.6 12.2 12 12.5 12 .2 0-4.9-5.4-11.5-12s-12.2-12-12.5-12c-.2 0 4.9 5.4 11.5 12z"/><path fill-opacity=".29" d="M585.2 351c0 1.9.2 2.7.5 1.7.2-.9.2-2.5 0-3.5-.3-.9-.5-.1-.5 1.8zm0 7c0 1.4.2 1.9.5 1.2.2-.6.2-1.8 0-2.5-.3-.6-.5-.1-.5 1.3zm-418.9 18.5c0 2.7.2 3.8.4 2.2.2-1.5.2-3.7 0-5-.2-1.2-.4 0-.4 2.8z"/><path fill-opacity=".19" d="m235.5 204.2-5 5.3 5.3-5c4.8-4.6 5.7-5.5 4.9-5.5-.1 0-2.5 2.4-5.2 5.2zm-8.6 8.5c-1.3 1.6-1.2 1.7.4.4.9-.7 1.7-1.5 1.7-1.7 0-.8-.8-.3-2.1 1.3z"/><path fill-opacity=".3" d="M166.3 338c0 2.5.2 3.5.4 2.2.2-1.2.2-3.2 0-4.5-.2-1.2-.4-.2-.4 2.3zm418.9 46c0 1.9.2 2.7.5 1.7.2-.9.2-2.5 0-3.5-.3-.9-.5-.1-.5 1.8z"/><path fill-opacity=".01" d="m244.4 223.2-2.9 3.3 3.3-2.9c1.7-1.7 3.2-3.1 3.2-3.3 0-.8-.8-.1-3.6 2.9zm-11.5 11.5-3.4 3.8 3.8-3.4c2-1.9 3.7-3.6 3.7-3.8 0-.8-.8 0-4.1 3.4z"/><path fill-opacity=".2" d="M512 200.5c1.9 1.9 3.6 3.5 3.9 3.5.3 0-1-1.6-2.9-3.5s-3.6-3.5-3.9-3.5c-.3 0 1 1.6 2.9 3.5zm23 22.9c0 .2.8 1 1.8 1.7 1.5 1.3 1.6 1.2.3-.4s-2.1-2.1-2.1-1.3zM249.7 434.7c9.4.2 25.2.2 35 0 9.8-.1 2.1-.2-17.2-.2-19.2-.1-27.3.1-17.8.2zm217 0c9.4.2 25.2.2 35 0 9.8-.1 2.1-.2-17.2-.2-19.2-.1-27.3.1-17.8.2z"/></svg>