<svg xmlns="http://www.w3.org/2000/svg" version="1.0" viewBox="0 0 752 752"><path fill-opacity=".13" d="M350.3 146.7c4.8.2 12.6.2 17.5 0 4.8-.1.8-.3-8.8-.3-9.6 0-13.6.2-8.7.3zm73.5 147c5.7.2 14.7.2 20 0 5.3-.1.7-.3-10.3-.3s-15.4.2-9.7.3zm0 165c5.7.2 14.7.2 20 0 5.3-.1.7-.3-10.3-.3s-15.4.2-9.7.3zm-73.5 147c4.8.2 12.6.2 17.5 0 4.8-.1.8-.3-8.8-.3-9.6 0-13.6.2-8.7.3z"/><path fill-opacity=".01" d="M206.5 515c4.9 4.9 9.2 9 9.5 9 .2 0-3.6-4.1-8.5-9-4.9-5-9.2-9-9.5-9-.2 0 3.6 4 8.5 9z"/><path fill-opacity=".2" d="M374.3 285.7c.9.2 2.5.2 3.5 0 .9-.3.1-.5-1.8-.5-1.9 0-2.7.2-1.7.5zm.5 181c.6.2 1.8.2 2.5 0 .6-.3.1-.5-1.3-.5-1.4 0-1.9.2-1.2.5z"/><g stroke-width="0"><path d="M335.5 148.9c-5.6 3.4-6.5 5.9-9 26.1-1.3 10.4-2.6 19.4-3 19.9-.3.6-1.3 1.1-2.1 1.1-2.1 0-22.7 8.1-30.3 11.9-3.4 1.8-6.6 2.9-7.2 2.5-.6-.3-7.6-5.7-15.7-12-15.6-12.1-18.4-13.4-24.9-11.4-5.5 1.8-54.5 50.8-56.3 56.3-2 6.5-.7 9.3 11.4 24.9 6.3 8.1 11.7 15.1 12 15.7.4.6-.7 3.8-2.5 7.2-3.8 7.6-11.9 28.2-11.9 30.3 0 .8-.5 1.8-1.1 2.1-.5.4-9.2 1.7-19.2 2.9-19.8 2.5-23.6 3.8-26.7 8.9-1.9 3-2 5.3-2 40.7 0 35.4.1 37.7 2 40.7 3.1 5.1 6.9 6.4 26.9 8.9 10.1 1.3 18.6 2.5 18.8 2.8.3.2 1.9 4.7 3.7 9.9 1.8 5.1 5.4 13.8 8 19.2 2.5 5.4 4.6 9.9 4.6 10 0 .1-5.4 7.1-12 15.5-12.7 16.4-14.1 19.2-12 25.7 1.8 5.5 50.8 54.5 56.3 56.3 6.5 2.1 9.3.7 25.7-12 8.5-6.6 15.9-11.8 16.5-11.6.5.3 6 2.7 12.1 5.5s14.4 6.1 18.3 7.4c4 1.4 7.4 2.7 7.7 3 .3.3 1.6 8.8 2.8 18.9 3.6 29 3.4 28.8 32.2 28.8 14.2 0 20.3-.3 21.2-1.2 1.8-1.8 1.7-122.1 0-123.6-.7-.5-5.1-1.3-9.8-1.7-26.7-2.2-48.3-12-66.4-30.1-20.1-20-29.9-43.8-29.9-72.4 0-28.6 9.8-52.4 29.9-72.4 18.1-18.1 39.7-27.9 66.4-30.1 4.7-.4 9.1-1.2 9.8-1.7 1.7-1.5 1.8-121.8 0-123.6-.9-.9-7-1.2-21.2-1.2-17.8 0-20.4.2-23.1 1.9zm35.3 61.3-.3 52.3-7 .8c-41.6 4.5-78.6 33.1-93.3 72-5.2 13.9-7.2 24.9-7.2 40.7 0 15.8 2 26.8 7.2 40.7 14.7 38.9 51.7 67.5 93.3 72l7 .8.3 52.2.2 52.3h-15.5c-11.6 0-15.7-.3-16-1.3-.2-.6-1.6-10.4-2.9-21.6-1.5-12.3-3-21-3.8-21.7-.7-.7-6.2-2.9-12.3-4.9-6-2-16.5-6.3-23.1-9.6-6.7-3.2-12.8-5.9-13.6-5.9-.8 0-9 5.9-18.1 13-9.2 7.2-17.3 13-17.9 13-1.7 0-50.8-49.1-50.8-50.7 0-.7 5.9-8.8 13-18 7.2-9.1 13-17.3 13-18.2 0-.8-2.7-7-5.9-13.6-3.3-6.6-7.6-17-9.6-23-2-6.1-4.2-11.6-4.9-12.3-.7-.7-10-2.4-22.7-4l-21.4-2.7-.3-36.3c-.2-28.5 0-36.3 1-36.7.7-.2 10.5-1.6 21.7-2.9 12.3-1.5 21-3 21.7-3.8.7-.7 2.9-6.3 4.9-12.3 2-6.1 6.3-16.5 9.6-23.1 3.2-6.7 5.9-12.8 5.9-13.6 0-.8-5.8-9-13-18.1-7.1-9.2-13-17.3-13-17.9 0-1.7 49.1-50.8 50.7-50.8.7 0 8.8 5.8 18 13 9.1 7.1 17.3 13 18.1 13 .8 0 6.9-2.7 13.6-5.9 6.6-3.3 17.1-7.6 23.1-9.6 6.1-2 11.6-4.2 12.3-4.9.8-.7 2.3-9.4 3.8-21.7 1.3-11.2 2.6-21 2.9-21.7.3-.9 4.5-1.2 16-1.2H371l-.2 52.2z"/><path d="M448 168.7c-6.9 2.5-15.1 11.3-17.4 18.7-4.4 14 1.9 28.9 15.1 35.5 2.3 1.2 4.9 2.1 5.8 2.1 1.3 0 1.5 4.1 1.5 34.5V294h-20c-15.7 0-20.7-.3-22.9-1.5-10-5.1-33.4-7.9-48.1-5.6-32.1 5-60.6 28.8-71 59.3-17.8 51.6 13.5 107 66.5 117.9 16.3 3.4 38.2 1.7 51-4 4.3-1.9 6.6-2.1 24.6-2.1H453v34.5c0 30.3-.2 34.5-1.5 34.5-2.7 0-10.9 4.7-14.1 8.2-7.5 7.9-10.1 19-6.8 29.4 1.4 4.6 3.1 7.2 7.3 11.5 6.5 6.5 12.4 8.9 21.5 8.9 11.1 0 20.4-6 25.5-16.2 7.8-15.5.5-34.8-15.2-40.6l-5.2-2-.5-35.8c-.4-25.5-.9-36.5-1.7-38-2.3-4-7.2-5.4-19-5.4h-11l8.1-8.3c4.5-4.6 9.5-10.7 11.1-13.5l3-5.2H519v67.6l-5.7 2.4c-23.8 9.9-24.3 43.5-.8 54.2 7.3 3.3 18.1 3.1 25.1-.5 11-5.6 17.1-16.4 16.2-28.7-.9-11.8-7.2-20.5-18.5-25.2l-5.3-2.2v-34.8c0-38.3-.1-39.3-6-42.3-2.4-1.2-8.1-1.5-33.3-1.5h-30.5l1.8-5.8c1-3.3 2.4-9.6 3.1-14l1.2-8.2h39.9c37.1 0 39.9.1 40.4 1.7 4.4 14.4 15 22.7 28.9 22.7 11.8 0 20.9-5.7 26.7-16.7 3.3-6 3.3-19.4 0-25.4-5.8-11-14.9-16.7-26.7-16.7-13.9 0-24.5 8.3-28.9 22.6-.5 1.7-3.3 1.8-40.4 1.8h-39.9l-1.2-8.2c-.7-4.4-2.1-10.7-3.1-14l-1.8-5.8h30.5c25.2 0 30.9-.3 33.3-1.5 5.9-3 6-4 6-42.3v-34.8l5.3-2.2c11.3-4.7 17.6-13.4 18.5-25.2.8-12.3-5.1-23-16.2-28.8-4.3-2.2-6.4-2.7-13.1-2.7-6.7 0-8.8.5-13 2.7-22.6 11.9-21.5 44.1 1.8 53.8l5.7 2.4V332h-64.5l-3-5.2c-1.6-2.8-6.6-8.9-11.1-13.5l-8.1-8.3h11c11.8 0 16.7-1.4 19-5.4.8-1.5 1.3-12.5 1.7-38l.5-35.8 5-1.9c15.9-5.9 23.2-25.2 15.4-40.7-3.4-6.9-7.1-10.4-14.4-13.8-6-2.8-15.6-3.1-22.5-.7zm20.3 11.7c4.1 2.2 8.1 8 9.2 13.3 1.4 7-4.2 17-11.2 19.9-6.8 2.9-16.8.9-21.5-4.3-2.7-2.9-4.8-8.8-4.8-13.3 0-7.4 6.4-16.2 12.8-17.6 1.5-.3 3.2-.7 3.7-.9 2-.7 8.1.8 11.8 2.9zM533 218c6.2 3.2 9.3 8.1 9.8 15.5.5 7.9-2.2 13.5-8.3 17-8.2 4.7-15.7 4-22.5-2.1-4.7-4.3-6.4-8.9-5.8-15.9 1.1-12.7 15.3-20.4 26.8-14.5zm-181.6 83.2c-.5.7-2.3 3.4-4.1 5.9-1.8 2.5-4.4 7.1-5.9 10.3-1.4 3.1-2.9 5.6-3.3 5.6-1.3 0-12.1-7.3-12.1-8.2 0-1.3 12.3-9.1 19-12 7.6-3.2 7.3-3.1 6.4-1.6zm19.4 15-.3 16.3-3.5-.3c-5.6-.5-16.9-3.3-17.5-4.3-.9-1.3 4.8-12.7 9-18.2 3.3-4.3 9.8-9.7 11.8-9.7.4 0 .6 7.3.5 16.2zm14.9-14.1c1.9 1.2 5.2 4.4 7.4 7.1 4.3 5.5 10.3 17.3 9.4 18.7-.6 1-11.9 3.8-17.5 4.3l-3.5.3-.3-16.3c-.1-8.9 0-16.2.4-16.2s2.2 1 4.1 2.1zm26.7 3.1c1.2.6 4.7 2.9 7.9 5 4.6 3.2 5.6 4.2 4.7 5.3-1.2 1.5-10.3 7.5-11.3 7.5-.3 0-1.7-2.5-3.1-5.6-1.5-3.2-4.1-7.8-5.9-10.3-5.3-7.3-5.3-7.3.4-5.1 2.8 1.2 6.1 2.6 7.3 3.2zm-78.4 28c1 .3.8 2.6-.8 11.3-1.2 6.1-2.4 14.5-2.8 18.7l-.6 7.8h-33.1l.7-6.3c1.5-12.5 7.2-25.9 16.3-37.8l3.5-4.7 7.8 5.3c4.2 2.9 8.3 5.4 9 5.7zm109.7 1.6c5.3 8.4 9.8 21 10.9 30l.7 6.2h-33.1l-.6-7.8c-.4-4.2-1.6-12.6-2.8-18.7-1.6-8.7-1.8-11-.8-11.3.7-.3 4.7-2.8 8.9-5.7l7.6-5.2 2.3 2.6c1.2 1.4 4.3 5.9 6.9 9.9zm-90.5 5.7c3.2.9 8.5 1.9 11.6 2.3l5.7.7v27l-14.7.3-14.8.3v-4.3c.1-8.9 3.6-27.8 5.2-27.8.5 0 3.7.7 7 1.5zm54.7 3.7c1.6 7.9 3.1 18.8 3.1 23.1v3.8l-14.7-.3-14.8-.3v-27l5.6-.7c3.1-.4 8-1.4 11-2.2 8.6-2.3 8.6-2.2 9.8 3.6zm178 16.1c11.1 7.3 10.7 24.8-.6 31.8-5.7 3.5-14.5 3.3-20.1-.4-12.7-8.4-10.5-27.6 3.9-33.7 4.2-1.7 12.4-.6 16.8 2.3zm-255.5 28.4c.4 4.3 1.6 12.7 2.8 18.8 1.6 8.7 1.8 11 .8 11.3-.7.3-4.8 2.8-9 5.7l-7.8 5.3-3.5-4.7c-9.1-11.9-14.8-25.3-16.3-37.9l-.7-6.2h33.1l.6 7.7zm40.1 6.3v13.5l-3 .3c-1.6.1-7.2 1.2-12.3 2.3-5.2 1.1-9.5 1.9-9.7 1.7-1-.9-3.5-15.6-4.1-23.4l-.7-8.5 14.9.3 14.9.3V395zm40.1-5.9c-.7 8-3.2 22.8-4 23.6-.2.3-4.6-.5-9.8-1.6-5.1-1.1-10.6-2.2-12.3-2.3l-3-.3-.3-12.4c-.1-6.9 0-13.1.2-13.8.4-1 4.1-1.3 15.2-1.3h14.7l-.7 8.1zm44-2.4c-1.4 12.5-6.9 25.6-15.4 37.2l-4.4 5.9-7.7-5.2c-4.3-2.9-8.4-5.5-9.1-5.8-1-.3-.8-2.6.8-11.3 1.2-6.1 2.4-14.5 2.8-18.8l.6-7.7h33.1l-.7 5.7zM371 436.1c0 8.7-.4 15.9-.9 15.9-2.1 0-10.2-7.4-13.5-12.4-4.1-6.2-7.8-14.4-7.1-15.6.9-1.5 18.8-5.1 20.8-4.2.4.2.7 7.5.7 16.3zm23.7-14.5c4 .9 7.5 1.9 7.8 2.5.9 1.4-5 13.1-9.4 18.7-3.4 4.3-9.5 9.2-11.5 9.2-.7 0-.8-31.4-.1-32.2.6-.6 3.3-.2 13.2 1.8zm-53.3 13c1.5 3.2 4.1 7.8 5.9 10.3 5.3 7.3 5.3 7.3-.5 5.1-5.9-2.3-20-10.9-20.5-12.5-.3-1 10.1-8.5 11.8-8.5.4 0 1.9 2.5 3.3 5.6zm79-1.9c3.1 2.1 5.5 4.2 5.3 4.8-.5 1.6-14.6 10.2-20.5 12.5-5.8 2.2-5.8 2.2-.5-5.1 1.8-2.5 4.4-7.1 5.9-10.3 1.4-3.1 2.9-5.6 3.3-5.6.5 0 3.4 1.7 6.5 3.7zm114.1 68.8c6.1 3.5 8.8 9.1 8.3 17-.3 5-1 7-3.2 10-6.5 8.5-20 9.8-27.9 2.7-5.2-4.7-7.4-16-4.3-22 5.3-10.2 17.2-13.6 27.1-7.7zm-68.2 36.9c7.1 2.9 12.6 12.9 11.2 19.9-4 18.7-27.3 21.9-35.9 5-3.2-6.3-1.2-16.8 4-21.4 5.5-4.8 14.2-6.3 20.7-3.5z"/></g><path fill-opacity=".37" d="M381.5 210.5c0 31.9.1 45.1.2 29.3.2-15.8.2-41.9 0-58-.1-16.1-.2-3.2-.2 28.7zm-.1 146.5c0 7.4.1 10.5.3 6.7.2-3.7.2-9.7 0-13.5-.2-3.7-.3-.6-.3 6.8zm0 38c0 7.4.1 10.5.3 6.7.2-3.7.2-9.7 0-13.5-.2-3.7-.3-.6-.3 6.8zm.1 146.5c0 31.9.1 45.1.2 29.3.2-15.8.2-41.9 0-58-.1-16.1-.2-3.2-.2 28.7z"/><path fill-opacity=".36" d="M370.5 210c0 28.9.1 40.7.2 26.2.2-14.4.2-38 0-52.5-.1-14.4-.2-2.6-.2 26.3zm10.9 106.5c0 8.8.2 12.3.3 7.7.2-4.6.2-11.8 0-16-.1-4.2-.3-.5-.3 8.3zM370.5 542c0 28.9.1 40.7.2 26.2.2-14.4.2-38 0-52.5-.1-14.4-.2-2.6-.2 26.3z"/><path fill-opacity=".11" d="M464.4 492.5c0 18.7.2 26.2.3 16.7.2-9.5.2-24.8 0-34-.1-9.2-.3-1.4-.3 17.3z"/><path fill="none" d="m213 213.7-23.5 23.8 23.8-23.5c13-12.9 23.7-23.6 23.7-23.7 0-.8-2.2 1.4-24 23.4zm8.5 8.5-24 24.3 24.3-24c22.5-22.3 24.7-24.5 23.9-24.5-.1 0-11 10.9-24.2 24.2zM213 538.5c12.9 12.9 23.7 23.5 24 23.5.3 0-10.1-10.6-23-23.5S190.3 515 190 515c-.3 0 10.1 10.6 23 23.5zm17.5.5c8.2 8.2 15.2 15 15.5 15 .2 0-6.3-6.8-14.5-15-8.2-8.3-15.2-15-15.5-15-.2 0 6.3 6.7 14.5 15z"/><path fill-opacity=".27" d="M457.8 166.7c.7.3 1.6.2 1.9-.1.4-.3-.2-.6-1.3-.5-1.1 0-1.4.3-.6.6z"/><path fill-opacity=".38" d="M370.4 357c0 7.4.1 10.5.3 6.7.2-3.7.2-9.7 0-13.5-.2-3.7-.3-.6-.3 6.8zm0 38c0 7.4.1 10.5.3 6.7.2-3.7.2-9.7 0-13.5-.2-3.7-.3-.6-.3 6.8zm0 40.5c0 8.8.2 12.3.3 7.7.2-4.6.2-11.8 0-16-.1-4.2-.3-.5-.3 8.3zm11 0c0 8.8.2 12.3.3 7.7.2-4.6.2-11.8 0-16-.1-4.2-.3-.5-.3 8.3z"/></svg>