<svg xmlns="http://www.w3.org/2000/svg" version="1.0" viewBox="0 0 462 459"><g stroke-width="0"><path d="M195.6 5.1c-2.6 2-2.6 2.2-2.6 14.4v12.4l-5.7.6c-37.1 3.9-61.4 11.5-88 27.6-19.2 11.6-41.5 31.5-54.4 48.4-21.8 28.6-35.2 61.7-39.4 97.1-2.1 18-2 23.5.6 26.8l2 2.6h17.4c22.6 0 21.6.7 22.6-16.2 2.2-34.2 14.7-64.8 37.3-91 24.5-28.5 62.5-48 99.9-51.4l7.7-.7v12.5c0 11.2.2 12.7 2 14.3 1.1 1 3.4 1.8 5.1 1.8 2.7 0 6.1-3 27-23.9C245.2 62.2 251 55.8 251 54c0-3.2-47.4-51-50.6-51-1.2 0-3.3.9-4.8 2.1zM221 66.5c-6.9 6.9-12.8 12.5-13.2 12.5-.5 0-.8-3.1-.8-6.9 0-6.3-.2-7.1-2.6-9-3.1-2.4-6.8-2.6-21.2-1-24.6 2.7-48.5 10.5-68.5 22.5-21.9 13.2-43.1 34.1-57.5 56.9-10.7 17.1-20.5 45.2-22.7 65.5-.3 3-.8 7.4-1.1 9.7l-.5 4.3H18.7l.7-8.5c.8-11.4 4.1-28 7.8-39.5 23-71.7 87.6-121.7 162.6-125.9 16.6-.9 17.2-1.4 17.2-12.5v-7.1l13.2 13.2L233.5 54 221 66.5z"/><path d="M350.4 5.4c-15.9 7.4-16.5 30.2-1.1 38.2l2.7 1.5V76h-43.8l-2.2-3.4c-8.2-13.3-23.6-15.4-34.1-4.6-13.6 14-4.3 36.3 15.1 36.3 8.5 0 17.4-5.6 19.5-12.3.6-1.9 1.5-2 23.1-2H352v29H124.9l-2.4 2.5-2.5 2.4v82l-27.1.3-27.1.3-1.9 2.4c-1.8 2.2-1.9 4.6-1.9 50.7V308l-7.7-.1h-7.8l-3-4.7c-7.5-11.6-22.4-13.2-32.6-3.3-6.3 6.1-8.2 13-5.9 21 3.2 11.4 15.3 18.2 26.5 15.1 5.3-1.5 11.7-6.7 13.5-11l1.2-3h13.3c12.1 0 13.3-.2 15.1-2.1 1.8-2 1.9-4.5 2.2-50.5l.3-48.4H120v13.8l-12.6.4c-11.8.3-12.7.4-14.5 2.7-1.8 2.2-1.9 4.6-1.9 55v52.6l-3.7 2c-2.1 1.1-5.1 3.9-6.7 6.3-4.3 6-4.8 15.6-1.4 22.2 2.9 5.5 10 10.5 16 11.4 12.6 1.9 24.8-8.8 24.8-21.7 0-6.5-4.3-14.4-9.6-17.6l-4.3-2.6-.1-47.8V250h14v12c0 11.5.1 12.2 2.5 14.5l2.4 2.5H200v13.9l-23.5.3c-20.9.3-23.6.5-25.2 2.1-1.6 1.5-1.8 4.1-2.1 19.2l-.3 17.5 2.5 2.5 2.5 2.5h150.2l2.4-2.5c2.4-2.4 2.5-2.8 2.5-18.2 0-8.7-.3-16.8-.6-18.1-1.3-4.6-4.6-5.2-28.4-5.2h-22v-13.9l38.1-.3 38.1-.3 1.9-2.4c1.8-2.2 1.9-4.7 1.9-57.7V163h29v29.7l-4.3 2.7c-19.1 12.1-9.3 41 13.3 39.4 8-.6 13.5-4.3 17.3-11.8 2.4-4.6 2.8-6.4 2.4-10.6-.9-8.6-6.2-16.3-12.9-18.7-1.6-.6-1.8-2.5-1.8-21.1v-20.5l-2.6-2c-2.5-2-4-2.1-21.5-2.1H338v-14h47.9c46.9 0 47.9 0 50.5-2.1l2.6-2V89.3l4.8-3c11.1-6.9 13.3-21.6 4.9-31.9-8.3-10-25.7-9.8-33.4.3-8 10.5-5.3 24.7 6 32.2l3.7 2.4V119h-58V82.2l.1-36.7 4-2.5c12-7.3 13.3-25.8 2.5-34.7-7-5.7-15-6.7-23.2-2.9zm14.5 15.2c2.7 3.5 2.6 5.9-.4 8.9-4.5 4.6-11.8 1.9-11.8-4.3 0-6.9 8-9.9 12.2-4.6zm70.4 41.5c3 1.6 3.7 2.8 3.7 6.5 0 6.2-8.3 9.2-12.2 4.5-2.5-3.2-2.3-6.7.7-9.6 2.7-2.8 4.5-3.1 7.8-1.4zM292 78c6.5 6.5-3 16.1-9.7 9.8-4.6-4.3-1.6-11.8 4.7-11.8 1.7 0 3.9.9 5 2zm31 121v65H135V134h188v65zm55.4 9.1c3.6 2.8 3.6 8 0 10.8-1.5 1.2-3.5 2.1-4.6 2.1-2.7 0-6.8-4.5-6.8-7.5s4.1-7.5 6.8-7.5c1.1 0 3.1.9 4.6 2.1zM244 286v7h-30v-14h30v7zM30.7 310.2c4.5 4.2 1.6 11.8-4.5 11.8-4.4 0-7.2-2.6-7.2-6.6 0-6.6 6.9-9.7 11.7-5.2zM294 315v7H164v-14h130v7zm-190.5 46c2.6 2.9 2.4 7.9-.4 10.2-3.2 2.5-6.7 2.3-9.6-.7-3-3-3.1-5.4-.4-8.9 2.6-3.3 7.7-3.6 10.4-.6z"/><path d="m151.5 150.5-2.5 2.4v45.9c0 43.8.1 46.1 1.9 48.3l1.9 2.4h152.4l1.9-2.4c1.8-2.2 1.9-4.5 1.9-48.3v-45.9l-2.5-2.4-2.4-2.5H153.9l-2.4 2.5zM294 199v36H164v-72h130v36zm118.9 23.8c-2 1.7-2.3 3.1-3 14.4-2.4 37.9-17.6 71.5-44.4 98.3-25.2 25.2-58.5 41-92.7 44.1l-7.8.7v-12.5c0-11.2-.2-12.7-2-14.3-1.1-1-3.4-1.8-5.1-1.8-2.7 0-6.1 3-27 23.9-18.1 18.2-23.9 24.6-23.9 26.4 0 3.2 47.4 51 50.6 51 1.2 0 3.3-.9 4.8-2.1 2.6-2 2.6-2.2 2.6-14.4v-12.4l5.8-.6c41.8-4.3 70.3-14.6 101.4-36.5 10.8-7.6 29.3-25.1 38-35.9 23.9-29.6 38.6-65.5 42.8-104.3 1.6-15 1.3-20.1-1.1-23.2l-2-2.6h-17.4c-15.3 0-17.5.2-19.6 1.8zm25.7 20.9c-.9 12.3-4.9 31.1-9.2 43.4-24.2 69.6-87.8 117.6-161.3 121.8-16.5.9-17.1 1.4-17.1 12.5v7.1l-13.2-13.2-13.3-13.3 12.5-12.5c6.9-6.9 12.8-12.5 13.2-12.5.5 0 .8 3.1.8 6.9 0 6.3.2 7.1 2.6 9 3.1 2.4 6.8 2.6 21.2 1 25.2-2.7 47.5-10.1 68.7-22.7 42.9-25.4 74.8-74.2 80-122.2.3-3 .8-7.4 1.1-9.8l.5-4.2h14.2l-.7 8.7z"/></g></svg>