<svg xmlns="http://www.w3.org/2000/svg" version="1.0" viewBox="0 0 752 752"><path d="m342.2 192.9-33.2 36v35.6l-73.8 37.2c-40.5 20.5-74.6 37.9-75.7 38.7-1.8 1.4 6.2 1.5 73.8 1.6H309v82l-35.1 85.1c-19.3 46.8-34.9 85.2-34.7 85.3.1.2 30.9-25.5 68.3-57.1 37.4-31.5 68.2-57.3 68.5-57.3.3 0 31.1 25.7 68.4 57.1 37.2 31.4 67.9 56.9 68.1 56.7.2-.2-15.3-38.5-34.6-85.1L443 424v-82h75.5c41.5 0 75.5-.3 75.5-.8 0-.4-34-17.8-75.5-38.7l-75.5-38v-35.6l-33.2-36C391.5 173.2 376.3 157 376 157c-.3 0-15.5 16.2-33.8 35.9zm53.6 10.3c10.6 11.4 19.2 20.9 19.2 21.2 0 .3-17.8.6-39.5.6h-39.6l19.8-21.4c10.9-11.8 20.1-21.4 20.4-21.3.3.1 9.2 9.5 19.7 20.9zm7 46.1c-4 3.4-11.7 10-17 14.5l-9.8 8.4-17-14.6-17.1-14.6h68.2l-7.3 6.3zm-58 18.7c9.4 8 17.1 14.9 17.1 15.5 0 .9-28.6 25.6-34 29.4-1.9 1.3-1.9.9-1.9-29.4 0-16.8.4-30.5.8-30.3.5.1 8.6 6.8 18 14.8zm81.2 15.6c0 24.1-.3 30.4-1.2 29.8-2.8-1.7-34.8-29.5-34.7-30.2.1-.9 34.1-30 35.2-30.1.4-.1.7 13.7.7 30.5zm-117 17c0 9.8-.4 16.4-.9 16.2-.5-.2-7.5-4.1-15.4-8.8l-14.4-8.5 14.6-7.7c8-4.2 14.9-7.7 15.4-7.8.4 0 .7 7.5.7 16.6zm150.1-8.9 14.8 7.7-14.2 8.4c-7.8 4.6-14.8 8.6-15.4 8.9-1 .4-1.3-3.2-1.3-16.1 0-9.1.3-16.6.6-16.6.4 0 7.3 3.5 15.5 7.7zm-65.8 17.8 16.5 14-16.9.3c-9.3.1-24.5.1-33.8 0l-16.8-.3 16.6-14.2c9.1-7.8 16.9-14.1 17.3-14 .3.1 8.1 6.5 17.1 14.2zm-121.9 6c6.1 3.6 11.8 6.9 12.6 7.5 1 .6-7.5 1-26.5.9h-28l14.5-7.4c8-4.1 14.9-7.4 15.4-7.4.5-.1 5.9 2.8 12 6.4zm236.6 1 14.5 7.4h-27.9c-15.4.1-27.7-.1-27.5-.3 1.4-1.3 24.6-14.6 25.4-14.5.6 0 7.5 3.3 15.5 7.4zm-114.5 39.7c-9.2 7.9-17.1 14.3-17.5 14.3-.3 0-8.2-6.4-17.4-14.3L341.8 342h68.4l-16.7 14.2zM344.8 367c9.4 8 17.1 14.9 17.1 15.5 0 .9-28.9 25.9-33.9 29.4-2 1.3-2 1-2-29.4 0-16.8.4-30.5.8-30.3.5.1 8.5 6.8 18 14.8zm81 30.6-.3 15.7-17.7-15.2c-9.8-8.3-17.8-15.5-17.7-15.9 0-.4 8-7.4 17.7-15.6l17.7-15 .3 15.2c.1 8.3.1 22.1 0 30.8zm-33.7 9.9c8.4 7.1 16 13.5 16.8 14.2 1.3 1-5.6 1.2-32.7 1.3h-34.4l16.9-14.5c9.2-7.9 17.1-14.3 17.5-14.2.3.1 7.5 6 15.9 13.2zm-46.2 46.7c8.6 7.2 15.6 13.6 15.6 14.1 0 1.1-78.8 67.7-79.3 67.2-.2-.2 8.3-21.5 19-47.4l19.3-47.1h4.9c4.8 0 5.1.2 20.5 13.2zm48.1-12.8c0 .3-4.1 3.9-9 8.1l-9 7.6-9-7.7c-5-4.2-9-7.8-9-8 0-.2 8.1-.4 18-.4s18 .2 18 .4zm56.8 46.7c10.7 25.9 19.2 47.2 19 47.4-.4.4-79.2-66-79.4-67.1-.2-.5 6.8-6.8 15.4-14.1 15.5-13 15.8-13.2 20.7-13.2l5-.1 19.3 47.1z"/><path fill-opacity=".49" d="M425.4 283c0 16.8.2 23.6.3 15.2.2-8.3.2-22.1 0-30.5-.1-8.3-.3-1.5-.3 15.3zm0 99c0 16.8.2 23.6.3 15.2.2-8.3.2-22.1 0-30.5-.1-8.3-.3-1.5-.3 15.3zm-99-99c0 16.8.2 23.6.3 15.2.2-8.3.2-22.1 0-30.5-.1-8.3-.3-1.5-.3 15.3zm0 99c0 16.8.2 23.6.3 15.2.2-8.3.2-22.1 0-30.5-.1-8.3-.3-1.5-.3 15.3z"/></svg>