<svg xmlns="http://www.w3.org/2000/svg" version="1.0" viewBox="0 0 340 294"><g stroke-width="0"><path d="M100 9.4c-2.5.7-6 2.1-7.9 3-4.6 2.4-11.6 9.1-13 12.4-.8 1.8-2.6 3.3-5.5 4.5-2.4 1-6.2 3.5-8.4 5.5-3.9 3.7-4.3 4.6-26.4 71.7C25 148.2 14.5 178.2 11.7 184 6.1 195.7 4 204.9 4 217.7c0 13.5 2 21.9 8.1 34.3 4.5 9 6.4 11.7 13.8 19 17.2 16.9 34.5 23.7 58.6 22.7 13.9-.5 20.9-2.2 32.1-7.8 19.2-9.4 34.3-27.8 39.9-48.4 2.5-9.4 3.1-24.7 1.2-34-1.1-5.3-1.4-9.7-.9-13 .7-4.8.8-5 5.2-6.3 4.9-1.4 13.7-1.1 18.4.7l2.9 1.2-.9 9.2c-1.4 15-1 31.4 1 38.7 5.6 21.1 20.8 39.7 40.1 49 13.6 6.6 18 7.5 35.5 7.4 14.1 0 16.2-.3 23.5-2.7 12.7-4.3 22-10 31.1-19.1 15.5-15.5 22.4-32.3 22.4-54.3 0-12.3-2.1-21.4-8-34.3-2.6-5.8-14.6-39.9-26.5-75.8C286.4 58.8 279.1 38 277.4 36c-1.4-1.6-5.2-4.2-8.5-5.9-3.8-1.9-7.1-4.5-8.8-6.8-5.6-7.8-12.7-12.3-22.6-14.3-7.8-1.6-16.7-.6-23.2 2.6-6 2.9-13.6 10.9-15.3 15.9-.7 2-2.4 4.2-4.4 5.5-1.8 1.1-5.4 4.2-8 7l-4.6 4.9v28.9l-3.7-1c-3.9-1-15.3-.6-18.5.7-1.7.7-1.8-.4-1.8-13.8V45.2l-3.2-3.9c-1.8-2.2-5.2-5.4-7.5-7.2-2.4-1.9-5.2-5.4-6.7-8.6-3.1-6.2-9-11.9-15.5-14.8-5.7-2.5-18.6-3.2-25.1-1.3zm22.7 10.7c2.3 1.1 4.7 2.7 5.5 3.6 1.2 1.5 1 1.6-1.6.9-6.2-1.5-18.4-2.4-25.8-1.7-7.9.7-8.7.1-3.8-2.4 7.5-3.9 18.1-4 25.7-.4zm120.3.5 3.5 1.9-14.5.6c-8 .3-15.8 1-17.5 1.4-2.7.7-2.9.7-1.7-.8.7-.8 3.2-2.5 5.5-3.7 3.6-1.8 5.5-2.1 12.7-1.7 6 .2 9.5.9 12 2.3zM124.3 33.9c9.1 2.4 14.5 5 19.7 9.8l4 3.5v39.7c0 21.8-.3 50.7-.7 64.2l-.6 24.7-4.4-5.9c-9.2-12.1-24.3-22.1-40.7-26.6-8.7-2.4-31.7-2.4-40.5.1-8.6 2.3-18.2 6.8-24.2 11.1-2.7 1.9-4.9 3.2-4.9 2.9 0-.3 8.4-25.9 18.6-56.8 13.9-42 19.3-56.8 21.1-58.8 7.8-8.3 35-12.3 52.6-7.9zm124.7-.3c9.5 1.8 17.6 5.1 20.6 8.5 1.3 1.5 9 22.9 20.3 56.9 9.9 30 18.1 54.8 18.1 55.2 0 .5-2.2-.8-4.9-2.7-6-4.4-15.7-8.8-24.2-11.1-8.2-2.3-30.8-2.6-38.9-.5-17 4.4-32.9 14.5-42.3 27.1l-4.5 5.9-.5-4.7c-.4-2.6-.7-30.7-.8-62.5l-.2-57.8 2.8-2.9c5-5.2 18.2-11 28-12.3 7.2-1 18.9-.6 26.5.9zm-69.7 49.3c2.7 1 2.7 1.1 2.7 11v10l-3.7-.7c-5-.9-10.7-.9-16.5.1l-4.8.8v-9.5c0-8.9.2-9.6 2.3-10.7 5.3-2.9 13.8-3.3 20-1zm.2 30.5 3.5 1.5v30.2l-4.7-.8c-6.1-1-10.5-1-16.6 0l-4.8.8.3-15.3.3-15.3 3.5-1.2c4.9-1.7 14.4-1.6 18.5.1zm97 36.3c13.6 3.3 27.7 12.6 36.1 23.6 18.7 24.6 19 55.9.8 81.3-8.1 11.5-22.7 21.2-37.4 25.1-8.7 2.3-26.2 2.3-35-.1-12.3-3.2-20.6-8.2-30.5-18.1-14.1-14-19.8-27.7-19.8-47 .1-14.7 3.8-26.6 12.2-38.8 7.3-10.6 23.9-22.5 36-25.7 11.7-3.1 25.8-3.2 37.6-.3zm-177.6 2.9c22 4.9 42.6 25.4 48.6 48.4 2.3 8.6 2.3 24.4.1 33-3.3 12.3-8.2 20.6-18.1 30.5-9.9 9.9-18.2 14.9-30.5 18.1-8.8 2.4-26.3 2.4-35 .1-19.3-5.2-34.6-17.4-43.5-34.7-9.4-18.4-9.8-39.8-1.1-58.5 14-30 45.3-44.6 79.5-36.9zm79.7 1.5 4.4 1.1v20.7l-3.2-1c-1.8-.5-6.2-.9-9.8-.9-3.6 0-8 .4-9.8.9l-3.2 1v-20.7l3.8-1c5.1-1.4 12.5-1.4 17.8-.1z"/><path d="M245.1 166.6c-36.9 9.9-49.4 56-22.5 82.8 27.3 27.4 73.1 14.6 82.9-23 9.2-35.5-24.9-69.4-60.4-59.8zm25.4 10.1c18.3 6.4 29.8 25.5 26.5 44.2-3.8 21.8-25.3 37.2-46.1 33.2-17.1-3.4-30-16.4-32.9-33.3-4.4-25.1 17.6-48.6 43-46.1 3 .3 7.3 1.2 9.5 2zm-202.2-7.3c-32.7 8-47.9 46.8-29.5 75.2 17.4 26.8 55.3 30.2 77.2 6.8 13-13.9 17-32.3 11-50-8.2-23.8-34.1-37.9-58.7-32zm24.2 10.1c10.9 3 21.6 13.5 25.5 24.9 6.9 20.5-3.6 42.9-23.7 50.7-7.3 2.8-20.5 3-27.3.5-11.7-4.3-21.3-14.5-25-26.4-2.4-7.7-2.5-13.8-.4-21.7 2.9-11.2 10.2-20.3 20.6-25.6 9.6-4.8 18.7-5.6 30.3-2.4z"/></g></svg>