<svg xmlns="http://www.w3.org/2000/svg" version="1.0" viewBox="0 0 315 318"><g stroke-width="0"><path d="M134 10.4C101.4 16.3 74.9 30 52 53c-21.5 21.4-35.3 46.8-41.7 77-2.6 12.1-2.6 45.9 0 58 2.8 12.9 8.1 28 13.9 39.3l5.2 10-10.7 32.1C12.8 287.1 8 302.7 8 304.1c0 3.2 1.7 4.9 5 4.9 1.4 0 17-4.8 34.6-10.7l32.2-10.6 9.8 5c12.1 6.2 23.8 10.4 37.5 13.5 9 2 13.1 2.3 30.9 2.3 16 0 22.4-.4 29-1.8 60.6-12.9 105.8-58.1 118.7-118.7 2.6-12.1 2.6-45.9 0-58-6.4-30.2-20.2-55.6-41.7-77-21.4-21.4-46.1-34.9-76-41.5-10.2-2.3-43.6-2.9-54-1.1zm47.1 12.2c43.2 7.2 81.5 35.9 100.9 75.7 9.9 20.3 14 38.1 14 60.7s-4.1 40.4-14 60.7c-13.6 27.9-35.5 49.7-63.5 63.4-20.1 9.8-38 13.9-60.5 13.9-23.8 0-42.3-4.6-64.2-15.8l-13-6.6-28.8 9.6-28.7 9.5 9.5-28.7 9.6-28.8-6.6-13C24.6 201.3 20 182.8 20 159c0-15.6 1.7-27.1 6-41 15.1-48.8 57.7-86.3 108.5-95.4 11.1-2 34.9-2 46.6 0z"/><path d="M148.5 43.6c-30.7 5-54.2 26-61.6 55.3-1.3 5.1-1.9 10.3-1.7 14.7.4 9.3.9 9.5 20.5 9.2 11.9-.2 15.6-.6 16.7-1.8.8-.8 2-4.6 2.6-8.4 1.4-8.7 4.6-15.1 10.4-20.4 6.8-6.3 12.5-8.5 22.1-8.6 6.7-.1 8.9.3 13.6 2.5 7.3 3.5 12.8 8.5 16.4 15.1 2.4 4.4 3 6.8 3.3 13.9.4 7.8.2 9.3-2.3 14.8-3.6 8-10 13.9-20.8 19-14.9 7.1-24.4 18.1-28.2 32.6-1 3.9-1.5 10.6-1.5 19.7 0 18.7-1 17.8 20 17.8 20.8 0 20 .6 20-16.3 0-8.3.4-12.9 1.3-14 .6-.9 4.8-3.4 9.2-5.6 10.8-5.2 19.3-11.7 25.9-19.7 26.1-31.7 21.1-78.6-11.2-104.4-7.2-5.7-18-11.1-26.7-13.4-6.2-1.7-22.7-2.8-28-2zm18.4 12.5c19.7 3.1 36.1 14.8 45 31.8 5.7 10.9 7.4 19.1 6.8 32.1-.5 12.8-4 22.9-11.6 33.1-6.4 8.6-12.3 13.3-24.5 19.5-14.2 7.1-16 9.8-16.4 24l-.4 10.4h-16l.4-11.3c.3-9.7.8-12 3.2-17.4 3.8-8.4 10.2-14.1 21.8-19.7 11.4-5.4 19.2-12.9 24.1-23.3 3-6.5 3.2-7.4 3.2-18.8 0-11.6-.1-12.2-3.3-18.8-9-18.3-29.2-29.2-48.3-25.9-9.3 1.6-16.6 5.2-23.4 11.4-6.5 5.9-10.2 11.8-13.1 20.8l-2.1 6.5-7.8.3-7.8.3.7-4.3c5.3-32.9 37-56 69.5-50.7zm-27.3 181.1c-1.3 1.8-1.6 5.4-1.6 18 0 21-1.2 19.8 20 19.8s20 1.2 20-20c0-21.3 1.3-20-20.4-20-15.9 0-16.5.1-18 2.2zM166 255v8h-16v-16h16v8z"/></g></svg>