<svg xmlns="http://www.w3.org/2000/svg" version="1.0" viewBox="0 0 752 752"><path fill-opacity=".07" d="M306.3 187.7c1.5.2 3.9.2 5.5 0 1.5-.2.2-.4-2.8-.4s-4.3.2-2.7.4zm-2 36c.9.2 2.3.2 3 0 .6-.3-.1-.5-1.8-.5-1.6 0-2.2.2-1.2.5zm8 0c.9.2 2.3.2 3 0 .6-.3-.1-.5-1.8-.5-1.6 0-2.2.2-1.2.5zm-13.5 169c.6.2 1.8.2 2.5 0 .6-.3.1-.5-1.3-.5-1.4 0-1.9.2-1.2.5zm20 0c.7.3 1.6.2 1.9-.1.4-.3-.2-.6-1.3-.5-1.1 0-1.4.3-.6.6zm-21 16c.7.3 1.6.2 1.9-.1.4-.3-.2-.6-1.3-.5-1.1 0-1.4.3-.6.6z"/><path fill-opacity=".13" d="M299.3 187.7c.9.2 2.5.2 3.5 0 .9-.3.1-.5-1.8-.5-1.9 0-2.7.2-1.7.5zm17 0c.9.2 2.3.2 3 0 .6-.3-.1-.5-1.8-.5-1.6 0-2.2.2-1.2.5zm-17.5 36c.6.2 1.8.2 2.5 0 .6-.3.1-.5-1.3-.5-1.4 0-1.9.2-1.2.5zm19 0c.6.2 1.8.2 2.5 0 .6-.3.1-.5-1.3-.5-1.4 0-1.9.2-1.2.5zm-15.5 185c.9.2 2.3.2 3 0 .6-.3-.1-.5-1.8-.5-1.6 0-2.2.2-1.2.5z"/><path fill-opacity=".2" d="M307.8 408.7c.7.3 1.6.2 1.9-.1.4-.3-.2-.6-1.3-.5-1.1 0-1.4.3-.6.6z"/><path fill-opacity=".27" d="M306.8 281.7c1.2.2 3.2.2 4.5 0 1.2-.2.2-.4-2.3-.4s-3.5.2-2.2.4zm-2.5 161c.9.2 2.3.2 3 0 .6-.3-.1-.5-1.8-.5-1.6 0-2.2.2-1.2.5zm8.5 0c1.2.2 3 .2 4 0 .9-.3-.1-.5-2.3-.4-2.2 0-3 .2-1.7.4z"/><path fill-opacity=".33" d="M300.3 281.7c.9.2 2.3.2 3 0 .6-.3-.1-.5-1.8-.5-1.6 0-2.2.2-1.2.5zm15 0c.9.2 2.3.2 3 0 .6-.3-.1-.5-1.8-.5-1.6 0-2.2.2-1.2.5zm-16 15c.9.2 2.3.2 3 0 .6-.3-.1-.5-1.8-.5-1.6 0-2.2.2-1.2.5zm17.5 0c.6.2 1.8.2 2.5 0 .6-.3.1-.5-1.3-.5-1.4 0-1.9.2-1.2.5zm121 88c.6.2 1.8.2 2.5 0 .6-.3.1-.5-1.3-.5-1.4 0-1.9.2-1.2.5zm-139 58c.6.2 1.8.2 2.5 0 .6-.3.1-.5-1.3-.5-1.4 0-1.9.2-1.2.5zm-1 15c.6.2 1.8.2 2.5 0 .6-.3.1-.5-1.3-.5-1.4 0-1.9.2-1.2.5z"/><path fill-opacity=".4" d="M301.8 169.7c.7.3 1.6.2 1.9-.1.4-.3-.2-.6-1.3-.5-1.1 0-1.4.3-.6.6zm3 127c.6.2 1.8.2 2.5 0 .6-.3.1-.5-1.3-.5-1.4 0-1.9.2-1.2.5zm6.5 0c.9.2 2.3.2 3 0 .6-.3-.1-.5-1.8-.5-1.6 0-2.2.2-1.2.5zm132.5 88c1.2.2 3.2.2 4.5 0 1.2-.2.2-.4-2.3-.4s-3.5.2-2.2.4zm-140.5 73c.9.2 2.3.2 3 0 .6-.3-.1-.5-1.8-.5-1.6 0-2.2.2-1.2.5zm97 33c5.3.2 14.1.2 19.5 0 5.3-.1.9-.3-9.8-.3-10.7 0-15.1.2-9.7.3z"/><path fill-opacity=".47" d="M307.3 169.7c1.5.2 3.7.2 5 0 1.2-.2 0-.4-2.8-.4-2.7 0-3.8.2-2.2.4zm-3 72c.9.2 2.3.2 3 0 .6-.3-.1-.5-1.8-.5-1.6 0-2.2.2-1.2.5zm7 0c.9.2 2.3.2 3 0 .6-.3-.1-.5-1.8-.5-1.6 0-2.2.2-1.2.5zm142.4 143c1.8.2 5 .2 7 0 2.1-.2.7-.4-3.2-.4-3.8 0-5.5.2-3.8.4zm-141.9 73c2.3.2 6.1.2 8.5 0 2.3-.2.4-.4-4.3-.4s-6.6.2-4.2.4z"/><g stroke-width="0"><path d="M276.5 170.7c-22.8 1.5-51.1 6.2-64.4 10.8-14.9 5-25.5 12.5-26.6 18.8-.3 1.7-.4 63-.3 136.2.3 124.5.4 133.2 2.1 136.2 10.4 19.1 51.2 29.5 116.9 29.7l26.6.1 3.8 8.4c15.6 34.7 46.5 59.6 84.8 68.3 12.3 2.9 38.3 3.1 50.2.6 18-4 35.8-11.7 49-21.6 31-23.1 48.4-57.1 48.4-94.7 0-31-11.3-58.4-33.4-81.3-22.4-23.2-51.5-35.7-85.6-36.7l-14.5-.5-.2-72.4c-.2-81.7.4-75.7-8.3-82.1-13.2-9.7-40.8-16.4-79.9-19.5-12.2-.9-56.2-1.1-68.6-.3zm62.7 17.3c18.9 1.3 39 4.2 52.8 7.5 11.5 2.8 24 8.1 24 10.1 0 3-19.4 9.6-38.2 13-25.2 4.5-67.4 6.5-96.3 4.5-36-2.4-69.4-9.3-77.7-16l-2.2-1.9 3.4-2.1c7.8-4.8 30.3-10.4 52-13.1 23.9-2.9 56.6-3.7 82.2-2zm-132.9 39.6c21.1 8.6 57.4 13.4 101.8 13.4 43.5.1 83.6-5.2 104.3-13.6 3.3-1.3 6.1-2.4 6.3-2.4.2 0 .3 7.8.3 17.4 0 16.8-.1 17.4-2.4 19.9-4.7 5.1-16 9.3-35.1 13.2-62.1 12.6-164.5 4.8-180-13.7-2.4-2.9-2.5-3.3-2.5-19.9 0-9.3.2-16.9.5-16.9s3.3 1.1 6.8 2.6zm10.1 57.8c20.2 6.7 43.5 9.6 82.6 10.3 54.8 1 92.7-4 114.2-14.8l5.8-2.9v31.8l-3.5 3c-9.1 8-34.9 14.4-70.2 17.3-19 1.5-71.7.7-87.9-1.5-32.7-4.3-54.6-11.6-57.4-19.2-.6-1.4-1-9-1-17V278l4.8 2.4c2.6 1.3 8.3 3.5 12.6 5zm-11.3 53c42.2 18.6 159.2 19.1 206.4.7l7.5-2.9v12.3l-8.2 2.3c-10 2.8-24.5 9.5-34.1 15.9-4 2.6-11.8 9.2-17.4 14.6l-10.2 9.9-9.8.9c-5.4.4-18.3.8-28.8.9-52.6 0-98.5-8.3-108.5-19.7l-3-3.4V353c0-9.4.2-17 .4-17s2.8 1.1 5.7 2.4zm259.1 24.1c34.4 6 63.3 27.9 77.9 58.9 12.9 27.6 12.7 58.7-.6 86.3-14.3 29.4-41.8 50.6-74.7 57.4-13.6 2.8-34.9 2.3-47.8-1.1-37.1-9.8-64.5-36.1-75.7-72.5-2.5-8.4-2.7-10.2-2.7-27.5s.2-19.1 2.7-27.3c11.9-38.7 43.7-66.9 83.4-74.1 10.4-1.9 27.1-1.9 37.5-.1zm-257.8 30.8c11.9 5.5 28.6 9.4 52.6 12.4 11 1.3 22.4 1.7 47.1 1.8h32.5l-3.8 8.1c-2.1 4.5-4.8 12.2-6.1 17-2 7.5-2.7 9-4.8 9.5-6.3 1.8-46.9.2-69.4-2.7-28.5-3.6-48.8-10.2-53.9-17.6-1.3-1.8-1.6-5.2-1.6-17.1 0-8.2.3-14.7.8-14.5.4.2 3.3 1.6 6.6 3.1zm18.8 55.6c21.2 5.4 46.8 8.1 78.4 8.1h20.1l1.1 13.8c.6 7.6 1.4 14.6 1.8 15.6.7 1.8-.2 1.9-27.2 1.3-47.1-1-79.5-6.7-94.5-16.4-5.2-3.4-5.9-5.8-5.9-19.8v-12.4l7.4 3.5c4.1 1.9 12.6 4.7 18.8 6.3z"/><path d="m424.8 392.7-.3 7.8-8.5 4.5c-11.4 6-21 15.4-23.6 23-4.5 13.3-.7 27.1 10.2 36.8 10.3 9.2 21.8 13.7 38.1 14.8 10.7.8 14.7 2.6 16.9 7.9 1.7 4.2.8 7.2-3.4 10.7-6.6 5.6-15.7 4.4-22-2.7l-4-4.5h-37.5l.6 4.5c1.5 10.7 11.3 22.7 23.4 28.4 3.7 1.8 7.5 3.6 8.3 4 1.2.6 1.6 3.3 1.8 12l.3 11.1h38.8l.3-11.1c.2-8.7.6-11.4 1.8-12 .8-.4 4.5-2.2 8.1-3.8 8.5-3.9 17.1-12.1 20.7-19.8 2.3-4.9 2.7-7.1 2.7-14.3 0-7.5-.3-9.1-3-13.8-1.6-3-5.6-7.8-8.8-10.8-10-9.3-21.1-13.7-37.7-15-9.4-.7-12.8-2-15.9-6-8.5-10.8 11.9-22 23-12.7 1.7 1.5 3.5 3.7 4 5l.9 2.3 18.7-.2 18.8-.3-.3-4c-.4-6.4-5.6-15.7-11.8-21.4-4.7-4.3-13-9.1-19.6-11.4-1.5-.5-1.8-1.9-1.8-8.7v-8h-38.9l-.3 7.7z"/></g><path fill-opacity=".36" d="M199.4 241c0 9.1.2 12.8.3 8.2.2-4.5.2-11.9 0-16.5-.1-4.5-.3-.8-.3 8.3zm0 52c0 8 .2 11.2.3 7.2.2-3.9.2-10.5 0-14.5-.1-3.9-.3-.7-.3 7.3zm0 60c0 9.1.2 12.8.3 8.2.2-4.5.2-11.9 0-16.5-.1-4.5-.3-.8-.3 8.3zm0 51.5c0 7.7.2 10.7.3 6.7.2-4 .2-10.3 0-14-.2-3.7-.3-.4-.3 7.3zm0 47.5c0 6.9.1 9.7.3 6.2.2-3.4.2-9 0-12.5-.2-3.4-.3-.6-.3 6.3z"/><path fill-opacity=".09" d="M464.3 391.5c0 3.8.2 5.3.4 3.2.2-2 .2-5.2 0-7-.2-1.7-.4-.1-.4 3.8zm.1 149c0 5.5.1 7.6.3 4.7.2-2.9.2-7.4 0-10-.2-2.6-.3-.2-.3 5.3z"/><path fill-opacity=".3" d="M433.4 230.5c0 12.1.2 16.9.3 10.7.2-6.2.2-16.1 0-22-.1-5.9-.3-.8-.3 11.3zm0 52c0 13.2.2 18.5.3 11.7.2-6.8.2-17.6 0-24-.1-6.4-.3-.9-.3 12.3zm0 50c0 7.1.1 9.9.3 6.2.2-3.7.2-9.6 0-13-.2-3.4-.3-.4-.3 6.8z"/></svg>