<svg xmlns="http://www.w3.org/2000/svg" version="1.0" viewBox="0 0 431 373"><g stroke-width="0"><path d="M129.5 5.9c-6.7 1.7-37.2 15.4-39.8 17.9-7.3 6.9-7.8 11.4-3.3 31.4l3.7 16.3-11.2 11.4-11.2 11.3L52 90.6c-14.9-3.4-15.9-3.5-20.9-2.2-6.7 1.7-11.3 6.1-14.5 14-1.4 3.4-4.8 11.7-7.6 18.6-4.7 11.4-5.2 13-4.8 18.7.6 8.8 3.4 11.9 20.2 22.3l13.7 8.5-.5 7.5c-.3 4.1-.2 11.4.2 16.2l.7 8.6-12.3 7.8C10.5 220.4 9.4 221.4 7 226.1c-3.1 6-2.6 12.8 1.6 22.9 1.9 4.7 5.1 12.5 7 17.5 4.2 10.8 7.3 15.1 12.8 17.6 5.7 2.6 9.4 2.4 26.5-1.6L70 279l11.5 11.7L93 302.4l-3 13.9c-3.5 16.1-3.7 21.4-1.1 26.5 3.3 6.3 7 8.8 24.1 15.7 19.5 8 22.7 8.7 29.2 7 6.6-1.7 9.6-4.8 18.9-20l8.1-13 15.9-.1 15.9-.1 8.6 13.9c7.3 11.7 9.3 14.3 13.2 16.5 7.7 4.5 11.7 3.9 32.7-5 19.4-8.2 23.9-11 26.2-16.5 2.2-5.2 1.8-10-2-26.4l-3.4-14.6 9.3-9.3c5.2-5.1 10.7-11.2 12.4-13.5l3-4.2-5.6-4-5.6-4-4.8 5.6c-5.2 6.3-18.5 19.2-22.3 21.7l-2.4 1.5 3.3 14.3c5.5 23.4 6 26.6 4.3 28.1-2.2 2.1-32.5 14.6-35.2 14.6-3.2 0-4.5-1.6-15.9-20.2l-9.2-15-3.5.7c-9 1.7-21.8 2.3-31.3 1.4-8-.8-10.4-.7-11.3.3-.7.7-5.3 8.1-10.4 16.5-5 8.3-9.8 15.7-10.6 16.3-.8.7-2.9 1-4.7.7-4.3-.6-30.8-11.5-33-13.5-2.5-2.1-2.3-3.2 2.2-24.1 2.2-10.1 3.9-18.5 3.8-18.6-4.5-2.9-13.6-10.7-17.9-15.2-4.3-4.5-13.7-15.6-14.4-17-.1-.2-9.1 1.8-20 4.3-14.4 3.3-20.5 4.3-22 3.6-2.8-1.3-16-34-15.2-37.5.5-1.8 4.9-5.1 17.8-13.2l17.1-10.8-.8-3.1c-.4-1.7-.9-12.2-.9-23.4l-.1-20.4-15.6-9.7C18.2 141.5 18 141.4 18 138.6c0-2.5 12.1-32.8 13.9-35 2-2.3 5.1-2 23.5 2.4 9.1 2.2 17.2 4 17.8 4 .7-.1 3.3-2.8 5.8-6.1 4.4-5.9 14.3-16 22.8-23l4.2-3.6-4.5-19.9c-3.9-17.3-4.3-20.1-3.1-21.9 1.8-2.7 32.6-15.8 36.2-15.3 2.3.3 4.4 2.8 13.5 17.2 6 9.3 11 17 11.2 17.2.2.3 4.6-.3 9.8-1.2 7.1-1.2 11.9-1.5 19.9-.9 19.5 1.4 15.8 3.4 27.9-15.7 7.5-12 11.1-16.8 12.8-17.3 1.4-.3 5 .6 9.6 2.6 3.9 1.7 11.3 4.6 16.2 6.5 5 1.9 9.6 4.2 10.3 5.1 1.8 2.5 1.5 5.3-2.7 24.8l-4 18 2.2 1.8c1.2 1 5.1 4.2 8.6 7 3.5 2.9 9 8.3 12.3 12.2 3.4 3.8 6.5 7.1 6.9 7.3.5.2 3-1.3 5.6-3.4 2.7-2.1 5-3.9 5.2-4.1.9-.6-5.9-8.4-15.1-17.4l-9.8-9.7 3-13.6c1.7-7.5 3-16 3-18.8 0-6.3-3-13-7.4-16.2C268.9 18 235.5 5 231.1 5c-2.1 0-6.1 1.2-9.2 2.7-5 2.6-5.9 3.7-14 16.7l-8.7 13.8-16.7.1-16.8.1-8.1-12.6c-9-13.9-10.9-16.4-14.6-18.3-3.4-1.7-9.9-2.5-13.5-1.6z"/><path d="M361 103v12h-67.9l-19.6 17c-10.8 9.3-19.8 17-20.1 17-.3 0-6-4.7-12.7-10.5L228.5 128H147v14h76.1l9.5 8.2c5.2 4.5 9.3 8.5 9.2 8.9-.2.3-3.8 3.6-8.1 7.3l-7.7 6.8-4.9-4.1-4.9-4.1H147v14h31.9c29.2 0 32.1.2 34.1 1.8l2.2 1.8-5.5 4.7-5.5 4.7H147v14h62.7l39.4-34.1c21.7-18.8 41.7-36.1 44.5-38.5l5.1-4.4h77.2l.3-4.5.3-4.5 12.4 9.5c6.8 5.2 12.6 9.6 12.8 9.8.3.4-24.3 19.7-25.2 19.7-.2 0-.5-1.5-.7-3.3l-.3-3.2-35.1-.3-35-.2-44.5 38.5-44.4 38.5H147v15h73.8l16.2-14c14.1-12.3 16.4-13.9 17.8-12.8 1 .7 11.5 9.7 23.4 20l21.7 18.8H336v11c0 6 .3 11 .6 11 .7 0 59-44.3 61.7-46.9 1.7-1.6.1-3-30-26l-31.8-24.2-.3 12-.3 12.1h-18.2l-8.1-6.9c-4.4-3.8-10.3-8.9-13-11.3l-4.8-4.3 9.5-8.3 9.6-8.2H361v11c0 6 .3 11 .8 11 .8 0 58.6-44.1 61.5-46.9 1.8-1.7.6-2.7-29.7-25.9-17.4-13.3-31.8-24.2-32.1-24.2-.3 0-.5 5.4-.5 12zm-64.5 102.5 15.6 13.5H350v-4.5c0-2.5.3-4.5.6-4.5.6 0 17.4 12.5 23.6 17.6l2.7 2.2-11.9 9.1c-14.8 11.3-15 11.4-15 6.7V242h-44.5l-20.3-17.6c-11.2-9.6-20.2-17.9-20-18.3.3-.7 14.9-14 15.5-14.1.1 0 7.2 6.1 15.8 13.5z"/><path d="M165 94.4c-34.8 7.8-61.1 32.4-71 66.7-3.1 10.6-3.9 31.5-1.5 43 8.3 41.4 43.9 72.3 86.1 74.6 23.1 1.3 44.7-5.6 63-20.1 7.4-5.8 19.4-19 19.4-21.2 0-1-9.4-7.4-10.9-7.4-.5 0-2.8 2.6-5.2 5.7-5.9 7.7-17.7 16.8-27.5 21.4-46.6 21.9-100.7-5.4-111-56-2.2-11.2-1.5-27.6 1.6-37.6 8.2-26.1 27.5-45.3 53.5-53.5 9-2.8 25.9-3.8 35.8-2 15.6 2.7 31.5 11.1 42.6 22.4l5.4 5.5 5.1-4.1c2.8-2.3 5.3-4.3 5.5-4.5.3-.2-2.4-3.3-6-6.9-12.5-12.8-29.9-22.3-47.1-25.8-9.1-1.9-29.7-2-37.8-.2z"/></g></svg>