<svg xmlns="http://www.w3.org/2000/svg" version="1.0" viewBox="0 0 307 315"><path d="M134.2 9.2c-.5.7-2.5 5.9-4.3 11.5l-3.3 10.2-7.1 2.2c-3.8 1.1-10.9 4-15.6 6.4l-8.6 4.3-9.4-4.9C80.7 36.3 75.6 34 74.5 34 72.3 34 49 56.6 49 58.8c0 .7 2.2 5.7 5 11.2l5 9.9-4.3 8.9c-2.4 4.8-5.2 11.8-6.3 15.5l-1.9 6.7-9.5 3.1c-14.6 4.8-14 4.1-14 16.4V141h-7.8c-4.7 0-8.3.5-9 1.2-1.7 1.7-1.7 105.9 0 107.6.9.9 7 1.2 21.3 1.2l20 .1 35 28.1c19.3 15.4 36.4 28.7 38.2 29.4 7.1 3.1 15.9 1.2 20.2-4.2l2.1-2.6 3.7 1.7c11.8 5.6 26.1-2.1 28.7-15.6.5-2.2.9-2.5 4.1-2.1 4.4.5 11.1-1.9 14.9-5.4 3.5-3.3 6.5-9.8 6.6-14 0-3 .2-3.2 5-3.6 5.7-.6 10.6-3.5 14-8.5l2.3-3.3h37.1c27.6 0 37.5-.3 38.4-1.2 1.7-1.7 1.7-105.9 0-107.6-.7-.7-4.3-1.2-9-1.2H281v-10.5c0-12.3.6-11.6-14-16.4l-9.5-3.1-1.9-6.7c-1.1-3.7-3.9-10.7-6.3-15.5l-4.3-8.9 5-9.9c2.8-5.5 5-10.5 5-11.2 0-2.1-23.3-24.8-25.4-24.8-1.1 0-6.1 2.2-11.3 5l-9.3 5-8.7-4.4c-4.9-2.4-12-5.4-15.9-6.6l-7.1-2.1-2.8-9.2C170.2 7 171.9 8 152.1 8c-12.3 0-17.1.3-17.9 1.2zm31.2 13.5c1 3.2 2.7 8.1 3.8 11 1.8 4.9 2.1 5.2 7.1 6.3 7.3 1.8 19.3 6.6 25.1 10.2 2.7 1.6 5.7 3 6.6 3.1 1 .1 6.1-2.1 11.4-4.8l9.5-5 8.2 8.1 8.1 8.1L240 70l-5.2 10.3 4.7 8.8c4.6 8.8 9.5 21.7 9.5 25 0 3 2.7 4.6 13 7.8l10 3.2V141h-44.7l-.6-9.3c-1.3-20.5-11.3-40.1-27.2-53-7.6-6.1-21.9-13.1-31.2-15.1-33.4-7.4-68.6 9.5-83.3 39.9-4.9 10.1-6.9 17.6-7.7 28.7l-.6 8.8H32v-15.9l10.1-3.2c10.4-3.3 12.9-4.8 12.9-7.8 0-3.3 4.9-16.2 9.5-25l4.7-8.8L64 70l-5.2-10.3 8.1-8.1 8.1-8.1 9.7 4.9c5.4 2.8 10.5 4.9 11.4 4.9.8-.1 3.8-1.4 6.5-3 6.9-4.1 14.7-7.3 23.3-9.7l7.5-2.1 3.5-10.8 3.5-10.7h23.2l1.8 5.7zm2.4 49.8c22.9 5.4 42.2 24.7 48.2 48.1 1.1 4.3 2 10.6 2 14.1v6.3h-41.3l-14.9 8.6c-13 7.5-15.1 8.4-16.5 7.3-1-.8-5.3-4.7-9.7-8.7l-8-7.2H86v-5.8c.1-23.1 15.1-46.9 36-57.1 4.7-2.2 11-4.7 14-5.5 7.2-1.9 23.9-2 31.8-.1zM45 196.5V243H14v-93h31v46.5zm86.5-40c3.8 3.5 6.7 6.6 6.5 6.8-.3.2-9.8 5.7-21.2 12.2-25.2 14.3-26.3 15.5-26.3 27.6 0 7.1.2 8 3.1 11.6 4.5 5.7 10.6 8.5 17.5 8.1 5.2-.4 7.9-1.7 31.2-15.1 14.1-8.1 26-14.7 26.4-14.7.5 0 10.8 10 23 22.2 14.7 14.9 22.3 23.2 22.7 25.2 1.7 6.9-3.6 13.6-10.9 13.6-5.7 0-8.3-2.1-31-24.9-13.3-13.4-19.6-19.1-21.2-19.1-2.8 0-4.8 3.3-3.4 5.7.5 1 10 10.8 21.1 21.8 11.1 11 20.8 21.2 21.6 22.7 4 7.6-1.6 16.8-10.4 16.8-4.3 0-8.5-3.6-31.7-26.9-21.5-21.6-24.1-23.5-26.5-19.2-.5 1.1-1 2.3-1 2.7 0 .4 10.1 10.9 22.4 23.3 17.1 17.3 22.5 23.4 23.1 25.9 1 4.6-2 10.2-6.6 12.5-7.1 3.4-8 2.8-35.1-24.1-23.8-23.6-24.8-24.5-27.3-23.4-5.1 2.3-3.5 4.6 17.5 25.7 13.4 13.5 20 20.8 20 22.2 0 3.3-2.7 5.3-7.1 5.3-3.6 0-6.5-2.1-38.9-28l-35-28v-95h35.3l35.2.1 7 6.4zm118.5 40V243h-26l-.6-2.8c-.3-1.5-1.1-4.1-1.7-5.7-1.2-3.4-47.9-51.1-50.7-51.8-1.2-.3-12.5 5.6-29.7 15.4-29.1 16.6-31.3 17.5-37.1 14.5-5.5-2.8-7.4-11.2-3.6-16.2 1.1-1.5 18-11.8 39.9-24.4l38-21.8 35.8-.1 35.7-.1v46.5zm40 0V243h-31v-93h31v46.5z"/></svg>