<svg xmlns="http://www.w3.org/2000/svg" version="1.0" viewBox="0 0 424 371"><path d="M135.6 7.6c-1.4 1.3-1.6 5.6-1.6 31V68H70.1c-37.7 0-64.2.4-64.5.9-.4.5-.6 67.5-.6 148.8 0 137.8.1 147.9 1.7 149.1 1.3.9 44.1 1.2 205.9 1.2 184.4 0 204.4-.2 205.8-1.6 1.4-1.4 1.6-16.2 1.6-148 0-99.1-.3-147.2-1-148.5-1-1.8-2.8-1.9-63-1.9h-62V38.6c0-25.4-.2-29.7-1.6-31C291 6.2 282.5 6 214 6s-77 .2-78.4 1.6zm151.2 33.1-.3 26.8h-145l-.3-26.8L141 14h146l-.2 26.7zM412 117v42H264l-.2-16.3-.3-16.2-49.4-.3c-35.6-.1-49.8.1-50.7.9-1.1.9-1.4 4.8-1.4 16.5V159H12V75h400v42zm-155 45.5V192h-87v-59h87v29.5zm-95 18.7c0 8.4.5 16 1 16.8.8 1.3 7.6 1.5 49 1.8 32.1.2 48.7-.1 50-.8 1.8-1 2-2.3 2.2-16.8l.3-15.7 73.8-.3 73.7-.2v194H12V166h150v15.2z"/></svg>