<svg xmlns="http://www.w3.org/2000/svg" version="1.0" viewBox="0 0 375 375"><path d="M184 12.9v4.9l-7.7.7C121.7 23.3 77 48.7 47.2 91.8c-17.3 25-26.8 52.3-29.7 85.4l-.7 7.8h-5.4c-5.1 0-5.4.1-5.4 2.5s.3 2.5 5.4 2.5h5.3l.7 8.2c2.8 33.2 12.4 60.9 29.8 86 29.7 42.9 75 68.8 128.6 73.3l8.2.7v4.9c0 4.8.1 4.9 3 4.9s3-.1 3-4.9v-4.9l7.8-.7c33.1-2.9 60.4-12.4 85.4-29.7 43.1-29.8 68.8-75 73.3-129.1l.7-7.7h5.4c5.1 0 5.4-.1 5.4-2.5s-.3-2.5-5.5-2.5c-4.7 0-5.5-.3-5.5-1.9 0-6.2-2.5-24.2-4.6-34.1-6.8-30.5-21.5-57.4-44-80.6-29.3-30.1-66-47-110.6-50.9l-7.8-.7v-4.9c0-4.8-.1-4.9-3-4.9s-3 .1-3 4.9zm-.2 41.7c-.2.1-5 .8-10.7 1.4-26.1 2.9-51 13.3-70.3 29.4l-7.3 6.2-4.5-1.4c-10.6-3.1-22.2 2.2-27.5 12.7-2.7 5.3-1.8 15.6 1.8 21l2.8 4.2-3.9 9.7c-4.8 11.6-7.8 23.5-9.2 35.7-.5 4.9-1 9.6-1 10.2 0 1-3.8 1.3-15.8 1.3H22.4l.4-6.8c2-39.4 19.2-77.3 48.1-106.3 28.3-28.2 64.7-45.2 102.6-47.7l10-.7.3 15.4c.1 8.5.1 15.5 0 15.7zM216.5 26c31.2 5.4 62.2 21.8 86.3 45.5 6.7 6.6 12.2 12.6 12.2 13.2 0 .6-5.4 5.4-12 10.7l-11.9 9.6-8.6-8.9c-9.8-10.1-20.5-18.4-32.6-25-6.9-3.9-8.4-5.1-8.9-7.6-1.5-7.3-7.2-11.7-15-11.7-4.6 0-11.3 2.8-12.2 5.2-.2.5-2.5.5-5.3 0-2.7-.5-8-1.1-11.7-1.5l-6.8-.7V23.5l9.8.6c5.3.4 12.9 1.3 16.7 1.9zm-32.9 60.5c-.2.7-3.7 1.5-7.8 1.8-45.3 3.7-84.5 43.1-88.7 89.2l-.6 7-13.5.3-13.6.3.7-8.9c1.1-13.7 5.9-31.6 11.3-42 1.6-3.1 1.6-3.1 5.1-1.6 4.7 1.9 13.2 1.7 18.1-.5 7.7-3.5 13.4-12.5 13.4-21.1 0-4-3.2-11.5-6.1-14.6l-2-2.1 7.6-6c19.2-15.2 43.7-25.1 66.8-27l9.2-.8.3 12.4c.1 6.9.1 13-.2 13.6zm26.2-24c.7.2 1.2 2.2 1.2 4.6 0 8.2 6.3 14.1 15 14.1 5.6 0 10.9-2.7 13-6.7l1.3-2.5 7.6 4.1c13.3 7.1 27.3 18.3 35.3 28.1l3.6 4.4-9.1 7.5c-5 4-9.6 7.7-10.3 8.2-.8.4-4.1-2.1-9.1-7-17-16.8-38.7-27.2-60.8-29.2l-7-.6-.3-13.5-.3-13.6 9.3.8c5.1.5 9.9 1 10.6 1.3zM184 108v15h-3.2c-12.3.1-28.8 8-39.8 19-11 11-18.9 27.5-19 39.7v3.3H92v-4c0-11.1 5.8-29 13.6-42.5 6.4-10.8 21.1-25.5 31.9-31.9 13.6-7.9 30.2-13.3 41.8-13.5l4.7-.1v15zm28-12c16 4.4 31.9 14 44.3 26.8l5.9 5.9-11.1 9.2c-6.1 5-11.3 9.1-11.7 9.1-.4 0-3.6-2.8-7.3-6.3-10.4-9.8-27.6-17.6-38.8-17.7H190V92.7l7.3.6c3.9.4 10.6 1.6 14.7 2.7zm-28.2 46.2-.3 14.2-3.8.8c-10.6 2.2-20.5 11.9-23.3 22.8l-1.1 4.5-14.3.3-14.3.3.7-5.7c1.6-13.8 11.1-30.1 22.7-38.8 9.4-7.1 22.2-12.4 30.7-12.5l3.3-.1-.3 14.2zm24.9-10.2c10.4 4 25.3 15.2 25.3 19 0 .5-4.8 4.8-10.6 9.5l-10.6 8.5-4.3-3.9c-5-4.6-9-6.8-14.2-7.9l-3.8-.8-.3-14.3-.3-14.3 5.8.7c3.2.4 9 1.9 13 3.5zM184 173.5V185h-11.5c-13 0-13 0-9.6-7.5 2.7-6 6.6-10.1 12.3-12.9 8.8-4.4 8.8-4.4 8.8 8.9zm13.5-9.6c4.3 1.9 10.5 6.7 10.5 8.1 0 .9-16.3 13-17.4 13-.3 0-.6-5.2-.6-11.5 0-13 0-13 7.5-9.6zm-143 33.3c2.9 32.5 14.8 59.4 36.3 81.9 11.2 11.8 23.1 20.7 36.7 27.4 17 8.3 30.8 12.2 49.8 14l6.7.7v31.3l-10.3-.7c-38.3-2.6-74.4-19.4-102.8-47.7-24.5-24.6-40.3-54.6-45.9-87.6-1.5-8.9-2.5-21.4-2.1-25.8.1-.4 7-.7 15.5-.7h15.4l.7 7.2zm31.9-5.6c.3.9.6 3.3.6 5.4 0 5 2.4 16.3 5 23.7 1.1 3.1 2 5.9 2 6 0 .2-2.1.3-4.6.3-8.8 0-13.7 3.9-15.9 12.8l-1.2 4.5-3.2-7.8c-4.5-10.6-7.9-24.5-8.9-36-.4-5.3-.6-9.8-.3-10 .2-.3 6.2-.5 13.2-.5 10.6 0 12.8.3 13.3 1.6zm26.7-.6h8.9v3.6c0 9.4 6.5 25 14.5 34.8 3.6 4.5 4.5 6.3 4.5 9.5 0 8 9.1 13.9 16.9 10.9 3.1-1.2 4.2-1.1 8.8.4 2.9 1 8 2.1 11.3 2.5l6 .6v30l-7.2-.6c-13.7-1.2-30.1-7.1-42.5-15.4-23.2-15.4-39.9-43-42-69.7l-.6-7.9 6.3.6c3.5.4 10.3.7 15.1.7zm43.1 4.3c2.2 10.6 11.9 20.5 22.8 23.3l4.5 1.1.3 14.2.3 14.1-2.8-.1c-1.6 0-5.7-.8-9.3-1.7l-6.5-1.7.3-4.7c.6-8.4-4.3-13.8-12.5-13.8-2.1 0-5.2.9-6.9 1.9l-3.1 1.9-3.6-4.6c-7.2-9.6-10.9-18.3-12.2-28.6l-.7-5.7 14.3.3 14.3.3.8 3.8zm27.8 7.2c0 13 0 13-7.5 9.6-6-2.7-10.1-6.6-12.9-12.3-4.4-8.8-4.4-8.8 8.9-8.8H184v11.5zm28.5-8.8c-2 8.5-7.3 14.9-15 18.4-7.5 3.4-7.5 3.4-7.5-9.6V191h23.2l-.7 2.7zm34 2c-1.2 7.9-6.3 20.4-11.3 27.7-8.5 12.5-24.6 22.3-39.5 24.1l-5.8.7.3-14.2.3-14.3 4.5-1.1c9.5-2.4 17.4-9.6 20.9-19 1.1-3.1 2.1-6.3 2.1-7.1 0-1.3 2.5-1.5 14.6-1.5h14.6l-.7 4.7zm35.1 1.8c-.8 8.4-4.8 21.9-9.1 31.2-13.9 30.2-43.1 50.9-75.7 54l-6.8.6V253h3.3c11.8-.1 28.6-8 39.3-18.5 5.7-5.6 8-8.9 11.7-16.5 4.6-9.4 7.7-19.4 7.7-24.4V191h30.3l-.7 6.5zm32.8-1.3c-5.7 53.9-38.7 96.5-87.2 112.8-10.1 3.4-24.1 6-31.9 6h-5.4l.3-13.3.3-13.2 3.5-.2c23.8-1.6 47.4-12.4 64.1-29.4 14.5-14.7 26.1-38.6 28.4-58.4 1.2-10.3-.1-9.5 15-9.5h13.4l-.5 5.2zm37 1c-3.8 42.1-20.7 79.2-48.8 107.4-27.9 27.8-64.3 44.6-102.3 47.2l-10.3.7v-31.3l6.3-.7c11.9-1.2 23.3-3.4 31.2-6.1 50.5-16.7 84.7-59.2 91.5-113.7l1.2-9.7H352l-.6 6.2zm-241.1 55.7c15.8 19.3 41.3 32.7 66.2 35l7 .6.3 13.5.3 13.6-8.8-.8c-27.5-2.4-53-13.6-74.3-32.7-7.4-6.6-18.1-19.4-21.9-26.2l-2.4-4.2 2.9 2.2c6.9 5.1 17.3 3.2 22.1-4 1.4-2.1 2.6-3.9 2.7-3.9.1 0 2.8 3.1 5.9 6.9z"/></svg>