<svg xmlns="http://www.w3.org/2000/svg" version="1.0" viewBox="0 0 752 752"><g stroke-width="0"><path d="M367 187.9c-8.2 2.7-16.7 10.9-19.4 18.8-6.6 19.4 7.9 39.6 28.4 39.6s35-20.2 28.4-39.6c-1.9-5.7-9.2-14.1-14.8-16.9-4.5-2.3-17.9-3.5-22.6-1.9zm15.4 9.2c5.6 1.5 12 8.3 13.5 14.4 2.4 9.4-2.6 19.6-11.3 23.6-20.6 9.4-39-16.8-23-32.7 5.9-5.9 12.5-7.6 20.8-5.3zm-126.9 37.2c-13.9 4.7-21.9 15.2-22 29.2-.1 20.7 20 34.6 40.1 27.8 6.7-2.3 15.4-11 17.7-17.7 2.1-6.2 2.2-14.9.1-20.9-4.6-13.6-22.6-22.8-35.9-18.4zm19.5 12.1c4.5 3 9 10.9 9 16 0 11.4-10.2 21.6-21.6 21.6-1.6 0-5.2-1.1-8.1-2.4-15.2-7.1-15.1-29.6.2-36.8 5.9-2.8 14.9-2.1 20.5 1.6zm204.3-11.6c-12.8 4.6-20.3 15-20.3 28.3 0 25.5 30.4 39.5 49.4 22.8 13-11.5 13.6-31.7 1.3-43.7-8.2-8-20.4-11-30.4-7.4zm18.2 10.1c15.3 6.9 15.4 29.6.2 36.7-2.9 1.3-6.5 2.4-8.1 2.4-11.4 0-21.6-10.2-21.6-21.6 0-7 6.2-15.5 13.1-18.3 3.9-1.6 12.1-1.2 16.4.8zm-119.8 24.9c-4.1 4.5-.6 7.6 9.3 8.6 3.6.3 8.1.8 10.1 1.2 3.7.6 6.9-1.2 6.9-4 0-3.2-2.7-4.7-11.5-6.1-11.6-1.9-12.9-1.9-14.8.3zm-36.6 4.2c-8.4 2.9-10.1 4.1-10.1 7.2 0 1.5 2.5 4.8 3.6 4.8.2 0 5.4-1.6 11.4-3.6 11.5-3.8 13.2-5.3 11-9.4-1.5-2.8-5.8-2.6-15.9 1zm80.9 8c-1.2 1.2-2 2.8-1.8 3.7.4 2 18.2 14.3 20.6 14.3 2.4 0 4.2-1.9 4.2-4.6 0-2.5-4-6.2-12.2-11.1-7.6-4.6-8.4-4.7-10.8-2.3zm-120.4 16.1c-6.1 5.7-7.6 7.7-7.6 10 0 2.1.7 3.2 2.4 4.1 2.3 1 3.2.4 11.1-6.8 7.5-6.9 8.6-8.3 8.3-10.9-.3-2.6-.8-3-3.5-3.3-2.7-.3-4.2.6-10.7 6.9zm62.9 5.5c-1.1.3-3.7 1-5.7 1.5-4.7 1.2-6.1 3.5-4.8 8 1.4 4.8.2 9.5-3.1 12.9-5.2 5.1-12.2 5.1-18-.1-1.8-1.6-4.3-2.9-5.6-2.9-4.7 0-18 19.8-21.2 31.7-1.5 5.5-.3 7.9 4.3 8.7 3.8.7 9.2 6 10.2 10.1 1.4 5.7-4.1 13.6-10.6 15-4.2.9-5.3 3.5-3.9 8.8 3.2 11.9 16.5 31.7 21.2 31.7 1.3 0 3.8-1.3 5.6-2.9 5.8-5.2 12.8-5.2 18-.1 3.3 3.4 4.5 8.1 3.1 12.9-2.1 7.3 3.1 9.6 22 9.6 19.2 0 24-2.2 21.9-9.9-1.4-5-.4-9 3.2-12.5 5.2-5.2 12.1-5.2 18 0 1.8 1.6 4.3 2.9 5.6 2.9 4.7 0 18-19.8 21.2-31.7 1.5-5.5.3-7.9-4.3-8.7-2.2-.4-4.6-2-6.5-4.1-5.3-6.1-5.3-10.9 0-17 1.9-2.1 4.3-3.7 6.5-4.1 4.6-.8 5.8-3.2 4.3-8.7-3.2-11.9-16.5-31.7-21.2-31.7-1.3 0-3.8 1.3-5.6 2.9-5.9 5.2-12.8 5.2-18 0-3.6-3.5-4.6-7.5-3.2-12.5 1.3-4.8.1-7-4.7-8.5-3.9-1.2-25.3-2.1-28.7-1.3zm18.1 9 5.2.7.4 5.7c.8 11.2 8.9 19.1 20.4 19.8 5.1.3 7.2 0 11-1.9l4.7-2.2 2.4 2.9c1.2 1.6 3.9 6 6 9.8l3.6 7-2.4 1.5c-15.8 10-15.8 30.2 0 40.2l2.4 1.5-3.6 7c-2.1 3.8-4.8 8.2-6 9.8l-2.4 2.9-4.7-2.2c-3.8-1.9-5.9-2.2-11-1.9-11.5.7-19.6 8.6-20.4 19.8l-.4 5.8-5.9.6c-3.3.4-8.5.4-11.8 0l-5.9-.6-.4-5.8c-.8-11.2-8.9-19.1-20.4-19.8-5.1-.3-7.2 0-11 1.9l-4.7 2.2-2.4-2.9c-1.2-1.6-3.9-6-6-9.8l-3.6-7 2.4-1.5c15.8-10 15.8-30.2 0-40.2l-2.4-1.5 3.6-7c2.1-3.8 4.8-8.2 6-9.8l2.4-2.9 4.7 2.2c3.8 1.9 5.9 2.2 11 1.9 11.5-.7 19.6-8.6 20.4-19.8l.4-5.9 3.7-.4c6.5-.7 9.5-.7 14.7-.1z"/><path d="M369.3 344c-9.8 2.1-18.7 9.3-23.1 18.8-3.6 8-3.6 18.4 0 26.4 9.6 20.8 36.7 25.9 52.8 9.8 12.7-12.7 12.7-33.3 0-46-7.4-7.4-19.5-11.1-29.7-9zm15.5 10.6c8.5 3.5 14.2 12 14.2 21.4 0 12.9-10.1 23-23 23-20.2 0-30.6-24.2-16.7-38.9 6.4-6.7 17.1-9 25.5-5.5zm71.4-42.4c-2 2-1.4 4.4 2.7 11 2.2 3.5 4.8 7.6 5.8 9.3 2.2 3.7 5.3 4.3 7.8 1.5 1.9-2.1 1.8-2.2-1.2-8.3-6.4-12.8-11.4-17.2-15.1-13.5zm-176.1 15.7c-2.2 2.2-8.1 17-8.1 20.4 0 2.9 1.8 4.7 4.6 4.7s3.1-.4 7.2-11c4.7-11.9 4.8-12.5 2.1-14.4-3-2-3.5-2-5.8.3zm-73.8 19.8c-5.3 1.8-13.7 9.3-16.6 14.7-1.8 3.4-2.2 5.7-2.2 13.6 0 11.4 1.7 15.3 9.5 22.3 19.1 17.2 49.3 3.6 49.3-22.3 0-20.7-20.6-35.2-40-28.3zm15.1 8.4c16.2 4 20.9 25.1 8.1 35.6-8.4 6.9-19.4 6.4-27.1-1.3-11.2-11.1-6.4-30 8.6-34.2 4.7-1.4 5.4-1.4 10.4-.1zm303.1-8.1c-11.1 4.3-18.8 15.8-18.8 28 0 25.4 29.9 39.4 48.8 22.8 2.5-2.2 5.8-6.1 7.3-8.6 2.4-4.2 2.7-5.6 2.7-14.2 0-11.4-1.7-15.3-9.5-22.3-8.5-7.6-19.9-9.7-30.5-5.7zm16.3 8.2c8.2 2 15.2 11.1 15.2 19.8 0 8.8-7 17.7-15.5 19.9-12.8 3.2-25.5-6.7-25.5-19.9 0-8.8 6.1-17 14.7-19.7 4.9-1.5 5.6-1.5 11.1-.1zm-66.6-2c-1.6 1.6-.5 21.5 1.4 24.5 3.2 5 8.4 1.4 8.4-5.8 0-6.1-1.9-17.1-3.2-18.6-1.3-1.6-5-1.7-6.6-.1zM269.5 373c-1.6 1.7-1.7 3.1-1.1 11 .4 5 1.1 10.1 1.6 11.5 1.1 2.8 4.2 4 7 2.5 1.9-1 1.9-1.7 1.4-11.8-.7-11.2-2-15.2-5.3-15.2-1 0-2.6.9-3.6 2zm203.6 26.9c-1.1.7-6.6 13.3-8.8 20.4-.7 2.1 2.3 5.7 4.8 5.7 2.4 0 4.4-3 7.9-12.2 3.4-8.8 3.6-11 1.4-13.2-1.7-1.8-3.2-2-5.3-.7zm-193.5 17.6c-2.1 2.2-2.1 2.6 1.3 9.3 6.3 12.4 11.2 16.7 14.9 13 2-2 1.4-4.4-2.7-11-2.2-3.5-4.8-7.7-5.8-9.3-2.1-3.5-5.3-4.3-7.7-2zm165.3 28.9c-9.5 8.7-10.4 9.9-9 12.5 2.6 4.7 6.9 3 16.4-6.7 6.4-6.4 7.1-9.2 3-11.9-2-1.3-2.6-1-10.4 6.1zm-136.7 6.8c-1.9 1.9-1.4 5.3 1.1 7.5 4.5 4.2 15.1 10.3 17.8 10.3 3.1 0 5.3-2.8 4.3-5.4-.8-2-18-13.6-20.3-13.6-.9 0-2.2.5-2.9 1.2zm-55.9 7.4c-2.3.9-6.2 3.3-8.7 5.5-13 11.5-13.6 31.6-1.3 43.7 6.2 6 12.7 8.7 21.3 8.6 20.6 0 34.5-19.9 27.8-39.8-2.4-6.9-10.2-15-17-17.5-6.5-2.5-15.9-2.6-22.1-.5zm17.1 8.5c7.6 2.1 14.6 11.9 14.6 20.5 0 5.1-4.5 13-9 16-4.8 3.2-12.8 4.3-18.5 2.4-16.8-5.6-18.3-30.1-2.2-37.6 5.7-2.6 9.2-2.9 15.1-1.3zm208.2-8.1c-18.6 7.3-24.7 32.4-11.5 47.4 11.4 13 31.1 13.6 43.6 1.4 12.3-12 11.7-32.2-1.3-43.7-2.5-2.2-6.6-4.7-9.1-5.5-6.3-2.1-15.6-2-21.7.4zm20.1 9.4c9.6 4.5 13.8 15.7 9.9 26.1-6.2 16.1-29.9 16.8-37.2 1.2-4.1-8.8-2.8-16.4 4.1-23.3 6.8-6.7 14.4-8.1 23.2-4zm-92.7-.5c-8.9 3.1-10.6 4-10.8 5.9-.8 5.7 4 6.5 15.6 2.6 8.3-2.8 11.2-4.7 11.2-7.5 0-1.6-3.6-5.1-5-4.8-.3.1-5.2 1.8-11 3.8zm-56.1 4.4c-2.4 5.4-.2 6.8 13.9 8.7 8.5 1.2 9.4 1.2 11.2-.5 2.4-2.1 2.5-3.4.6-6-.9-1.3-3.2-2.1-7.7-2.6-3.5-.4-8.7-1-11.6-1.4-5-.7-5.3-.6-6.4 1.8zm21.4 31.7c-17.7 3.6-28.5 22.2-22.7 39.3 1.9 5.7 9.2 14 14.8 17 3.4 1.8 5.7 2.2 13.6 2.2 8.6 0 10-.3 14.2-2.7 13.4-8 19.1-23 13.8-37.1-4.8-12.9-20.1-21.4-33.7-18.7zm14.3 10.9c12.9 5.9 15.9 22.6 5.9 32.7-8.6 8.5-20.4 8.5-28.9 0-12.9-12.8-3.8-34.6 14.4-34.6 2.5 0 6.3.9 8.6 1.9z"/></g><path fill-opacity=".19" d="M298.9 299.7c-1.3 1.6-1.2 1.7.4.4.9-.7 1.7-1.5 1.7-1.7 0-.8-.8-.3-2.1 1.3z"/></svg>