<svg xmlns="http://www.w3.org/2000/svg" version="1.0" viewBox="0 0 408 429"><g stroke-width="0"><path d="M183.9 8.2c-4.4 2.5-7.1 7-9.5 15.8-2.4 9.2-2.5 9.3-9.6 11.8l-6.4 2.3-8.5-4.5c-8.8-4.8-13.9-5.7-19.5-3.5-4.1 1.5-24.3 21.7-26.5 26.4-2.9 6.2-2.4 9.5 3 19.9l4.9 9.3-3 6.6-3 6.5-8.6 2.3c-10 2.7-15.5 6.8-17.2 12.7-.5 2.1-1 10.4-1 18.7 0 12.5.4 15.7 1.9 19.1 2.5 5.4 4.7 6.9 16.2 10.5l9.7 3 2.1 5.5c1.1 3.1 2.1 6.2 2.1 7 0 .8-2 5.3-4.5 10-7.5 14.1-6.6 16.9 10.3 33.6 16 15.8 18.5 16.4 33.8 8.1l8.2-4.4 6.5 2.6 6.4 2.6 2.2 7.7c3.3 11.2 4.8 14 9.6 16.7 4 2.4 4.9 2.5 21.4 2.5 24.1 0 25.6-.9 30.7-17.8l2.7-9.1 6.5-2.6 6.4-2.6 8.2 4.4c15.3 8.3 17.8 7.7 33.8-8.1 16.9-16.7 17.8-19.5 10.3-33.6-2.5-4.7-4.5-9.2-4.5-10 0-.8 1-3.9 2.1-7l2.2-5.6 7.1-2c10.1-2.9 15.3-5.7 17.9-9.9 2-3.3 2.2-5.1 2.5-19.6.3-9.7 0-17.4-.7-19.6-1.8-6.1-7.4-10.1-17.5-12.9-8.7-2.3-8.9-2.4-10.7-6.6-3.5-7.9-3.4-9.2 1.5-18.7 5.1-9.7 5.6-13.1 2.7-19.2-2.2-4.7-22.4-24.9-26.5-26.4-5.6-2.2-10.7-1.3-19.5 3.4-4.5 2.5-8.8 4.5-9.3 4.5-.6 0-3.6-1.2-6.8-2.6l-5.7-2.6-2.7-8.8c-1.5-5-3.8-10.3-5.3-12-4.6-5.6-6.5-6-25.5-6-15.8 0-17.6.2-20.9 2.2zM222.2 31c3.3 11.3 5.6 13.8 17.5 18.7 10.7 4.5 13.3 4.3 24.6-1.6l9.4-4.9 9.9 9.9 9.9 9.9-4.8 8.9c-3.5 6.7-4.7 9.9-4.7 13.2 0 5 5.2 19.2 8.3 22.6 2.5 2.8 8.4 5.5 17 7.8l6.7 1.8v28.6l-5.7 1.6c-3.2.9-7.5 2.1-9.5 2.7-6.2 1.8-9.5 5.5-13.3 14.8-4.8 11.8-4.7 15.1 1.2 26.2l4.7 8.9-10.1 10-10 10.1-8.3-4.7c-11.1-6.3-13.1-6.5-24.2-2.4-12.4 4.6-14.9 7.1-18.3 18.4-1.4 5-2.8 9.6-3 10.2-.6 1.8-26.8 1.8-28.3 0-.5-.6-2.1-5.1-3.6-9.8-1.4-4.7-3.5-9.7-4.6-11.1-2.2-2.9-19.4-10.8-23.3-10.8-3.4 0-9.7 2.5-17.1 6.8l-5.8 3.4-10.1-10-10.1-10.1 4.8-9.1c4.4-8.3 4.8-9.7 4.4-14.3-.3-2.9-2-8.8-3.9-13.2-4.5-10.3-7.3-12.3-23.6-16.5l-4.3-1.1v-14c0-16-1.2-14.2 11.8-18 9.8-2.9 12.3-5.2 16.6-15.5 5-11.9 4.9-15.3-1.1-26.5l-4.8-8.9 10-10 9.9-9.9 9.2 4.9c11.1 6.1 13.4 6.2 25.4 1.4 10.9-4.4 13.1-6.7 16.5-17.7 1.4-4.5 2.8-8.8 3-9.5.4-1 3.8-1.2 14.7-1l14.2.3 2.8 9.5z"/><path d="M192.5 62.6c-23.4 4.9-40.4 17.5-49.9 36.9-4.8 9.6-6.6 17.2-7.3 29.5-.5 8.8-.2 11.9 1.6 18.9 3.5 13.9 8.2 22.3 18.6 32.7 7.8 7.9 10.3 9.8 18.5 13.7 12.4 5.9 18.1 7.2 31.5 7.2 19.8-.1 34.5-6.3 49-20.9 10.4-10.4 15.1-18.7 18.6-32.7 3.8-14.9 1.6-33.6-5.7-48.4-8.9-18.2-25.7-31.3-46.1-35.9-6.6-1.5-23.6-2-28.8-1zM218.4 78c10.2 2.6 16.6 6.2 24.7 13.8 11.1 10.4 16.9 23.8 16.9 39.2 0 32.2-23.1 55.4-55 55.4s-55-23.2-55-55.4c0-15.4 5.8-28.8 16.9-39.2 8-7.5 14.5-11.2 24.3-13.8 9.5-2.5 17.6-2.5 27.2 0zm-17.7 196c-2.6 2-2.6 2.5-2.9 14.8l-.3 12.7-75.7.3-75.7.2-2 2.6c-1.9 2.4-2.1 4-2.1 15v12.3l-4.2 1.2c-12.1 3.2-22.6 12.1-28.1 23.7-4.3 9.1-5 22.5-1.8 33 5.2 17.4 20.1 28.7 39.1 29.9 23.4 1.6 42.3-13.8 46.1-37.3 3.6-22.1-10.3-43.5-31.9-49.3l-4.2-1.2V317h141v14.8l-6.9 2.1c-16.9 5.1-28.6 20-29.8 38.1-1 14.2 3.6 26.9 13 35.8 6.2 5.7 11.3 8.6 19.4 10.7 29.5 7.7 57-15 55-45.5-1.2-19-12.5-33.9-29.8-39.1l-6.9-2.1V317h141v14.9l-4.2 1.2c-26.8 7.2-40.1 37-27.9 62.6 12.1 25.3 45.3 32.2 68.3 14.2 4.9-3.9 10.2-12.1 12.8-20 1.8-5.3 2.1-8.1 1.8-16.4-.3-8.7-.8-10.9-3.5-16.7-5.5-11.7-16-20.5-28-23.7l-4.3-1.2v-12.3c0-11-.2-12.6-2.1-15l-2-2.6-75.7-.2-75.7-.3-.3-12.7c-.3-12.3-.3-12.8-2.9-14.8-1.4-1.1-3.3-2-4.3-2s-2.9.9-4.3 2zM62.5 349.5c12.7 6.2 19.1 21 15.1 34.8-2.1 7.3-9.5 15.6-16.8 18.7-7.2 3.1-18.5 2.5-24.9-1.2-9.9-5.9-15.3-14.9-15.4-25.8-.1-22.1 22.3-36.2 42-26.5zm154.4-.5c17.7 7.7 22.7 31.4 9.7 46.7-1.5 1.7-5.4 4.6-8.8 6.2-19.1 9.6-41.8-4.2-41.8-25.5 0-8 2.3-14.3 7.2-19.9 8.8-10 21.3-12.8 33.7-7.5zm156.9 1.1c7.4 3.6 12.5 9.6 14.8 17.7 6.6 22.4-15.6 43.2-38 35.6-7-2.4-15-10.2-17.6-17.2-5.2-13.6 1-30.2 13.4-36.2 9.5-4.6 17.5-4.5 27.4.1z"/></g></svg>