<svg xmlns="http://www.w3.org/2000/svg" version="1.0" viewBox="0 0 372 369"><g stroke-width="0"><path d="M159 6.2c-5.8 3-7.6 6.4-10 18.9-2.3 12.2-3.4 13.5-13.7 16.9-3.7 1.3-10.6 4-15.2 6.1-4.6 2.2-9.7 3.9-11.4 3.9-2.1 0-5.9-1.9-11.9-6C80.5 35 78 35.7 56.9 56.9 35.7 78 35 80.5 46 96.8c4.1 6 6 9.8 6 11.9 0 1.7-1.7 6.8-3.9 11.4-2.1 4.6-4.8 11.5-6.1 15.2-3.4 10.4-4.7 11.5-16.7 13.6C13 151.1 9.2 153.1 6.2 159c-2.1 4.2-2.2 5.6-2.2 26s.1 21.8 2.2 26c3 5.8 6.4 7.6 18.9 10 12.2 2.3 13.5 3.4 16.9 13.7 1.3 3.7 4 10.6 6.1 15.2 2.2 4.6 3.9 9.7 3.9 11.4 0 2.1-1.9 5.9-6 11.9-11 16.3-10.3 18.8 10.9 39.9C78 334.3 80.5 335 96.8 324c6-4.1 9.8-6 11.9-6 1.7 0 6.8 1.7 11.4 3.9 4.6 2.1 11.5 4.8 15.2 6.1 10.3 3.4 11.4 4.7 13.7 16.9 2.4 12.5 4.2 15.9 10 18.8 4.2 2.2 5.6 2.3 26 2.3s21.8-.1 26-2.3c5.9-2.9 7.9-6.7 10.1-19 2.1-12 3.2-13.3 13.6-16.7 3.7-1.3 10.6-4 15.2-6.1 4.6-2.2 9.7-3.9 11.4-3.9 2.1 0 5.9 1.9 11.9 6 16.3 11 18.8 10.3 39.9-10.9 21.2-21.1 21.9-23.6 10.9-39.9-4.1-6-6-9.8-6-11.9 0-1.7 1.7-6.8 3.9-11.4 2.1-4.6 4.8-11.5 6.1-15.2 3.3-10.2 4.8-11.5 15.5-13.3 12.2-2 17.4-4.7 20.3-10.4 2.1-4.2 2.2-5.6 2.2-26s-.1-21.8-2.2-26c-2.9-5.7-8.1-8.4-20.3-10.4-10.7-1.8-12.2-3.1-15.5-13.3-1.3-3.7-4-10.6-6.1-15.2-2.2-4.6-3.9-9.7-3.9-11.4 0-2.1 1.9-5.9 6-11.9 11-16.3 10.3-18.8-10.9-39.9C292 35.7 289.5 35 273.2 46c-6 4.1-9.8 6-11.9 6-1.7 0-6.8-1.7-11.4-3.9-4.6-2.1-11.5-4.8-15.2-6.1-10.4-3.4-11.5-4.7-13.6-16.7C218.9 13 216.9 9.2 211 6.2c-4.2-2.1-5.6-2.2-26-2.2s-21.8.1-26 2.2zm50.9 7.6c2.3 2.2 3 4.2 4.1 11.2 2.2 15.3 4.7 18.6 17 22.9 3.6 1.3 10.9 4.4 16.4 6.8 13.6 6.3 16.9 6 29.1-2.5 9.2-6.4 11.7-7.2 16.3-4.8 3.2 1.7 28.5 27.2 30.1 30.3 2 4 1.1 6.9-5.1 15.8-8.5 12.2-8.8 15.5-2.5 29.1 2.4 5.5 5.5 12.8 6.8 16.4 4.3 12.3 7.6 14.8 22.9 17 7 1.1 9 1.8 11.2 4.1l2.8 2.7v44.4l-2.8 2.7c-2.2 2.3-4.2 3-11.2 4.1-10.4 1.5-16.1 3.8-18.6 7.6-1.1 1.6-3.5 6.9-5.3 11.9-1.9 4.9-4.9 12.1-6.8 15.9-3 6-3.5 7.7-3.1 12.6.3 4.9 1.1 6.6 6.6 14.5 6.2 8.9 7.1 11.8 5.1 15.8-1.6 3.1-26.9 28.6-30.1 30.3-4.6 2.4-7.1 1.6-16.3-4.8-7.9-5.5-9.6-6.3-14.5-6.6-4.9-.4-6.6.1-12.6 3.1-3.8 1.9-10.9 4.9-15.9 6.8-4.9 1.8-10.3 4.2-11.9 5.3-3.8 2.5-6.1 8.2-7.6 18.6-1.1 7-1.8 9-4.1 11.2l-2.7 2.8h-44.4l-2.7-2.8c-2.3-2.2-3-4.2-4.1-11.2-2.2-15.3-4.7-18.6-17-22.9-3.6-1.3-10.9-4.4-16.4-6.8-13.6-6.3-16.9-6-29.1 2.5-9.2 6.4-11.7 7.2-16.3 4.8-3.2-1.7-28.5-27.2-30.1-30.3-2-4-1.1-6.9 5.1-15.8 8.5-12.2 8.8-15.5 2.5-29.1-2.4-5.5-5.5-12.8-6.8-16.4-4.3-12.3-7.6-14.8-22.9-17-7-1.1-9-1.8-11.2-4.1l-2.8-2.7v-44.4l2.8-2.7c2.2-2.3 4.2-3 11.2-4.1 15.3-2.2 18.6-4.7 22.9-17 1.3-3.6 4.4-10.9 6.8-16.4 6.3-13.6 6-16.9-2.5-29.1-6.4-9.2-7.2-11.7-4.8-16.3 1.7-3.2 27.2-28.5 30.3-30.1 4-2 6.9-1.1 15.8 5.1 12.2 8.5 15.5 8.8 29.1 2.5 5.5-2.4 12.8-5.5 16.4-6.8 12.3-4.3 14.8-7.6 17-22.9 1.1-7 1.8-9 4.1-11.2l2.7-2.8h44.4l2.7 2.8z"/><path d="M108 101c-7.3 1.6-10 3-10 5.4 0 1.3 4.7 6.8 13.6 15.7l13.6 13.6-2.2 11-2.2 11.1-11.1 2.2-11 2.2-13.6-13.6c-8.7-8.7-14.4-13.6-15.7-13.6-2.6 0-4 2.9-5.5 11.6-2.1 12.1.7 26.1 7.4 37.6 6.1 10.4 18.9 20.3 31.2 24 7.7 2.4 22 2.9 28.6 1.1 3.7-1.1 3.7-1.1 10.8 6.1l7.1 7.1-18.8 18.8-18.8 18.7-3.1-3.2c-6.3-6.6-13.4-17.2-17.9-26.4-2.5-5.2-4.8-9.4-5-9.4-.1 0-1.5.5-2.9 1.2-3 1.3-2.9 2.1 2.3 12.3 5.5 11.1 12.1 20.3 21.2 29.6 24.8 25.3 60.2 36.9 96 31.4 24-3.6 45.3-14.5 62.5-32 9.2-9.3 15.8-18.7 21.7-31 4.1-8.7 4.2-9.7.2-10.9-1.9-.6-2.7.6-7.2 9.7-4.7 9.3-17.1 26.6-19.7 27.4-.6.2-9.3-8-19.5-18.2l-18.5-18.6 7.1-6.9 7.1-6.9 3.9 1.1c6.7 2 22 1.4 29.4-1.2 18.4-6.2 32.7-21.7 37-40 1.7-7 1.7-18 0-25-1.4-6.2-2.5-8-4.9-8-.8 0-7.7 6.1-15.2 13.6l-13.6 13.6-11.1-2.2-11.1-2.3-1-4.6c-.5-2.5-1.5-7.5-2.2-10.9l-1.2-6.4 13.8-13.8c14.4-14.5 15.5-16.3 10.4-18.7-5.4-2.6-17.4-3.7-25.6-2.5-31.1 4.7-52.3 34.9-46.1 65.6l1.1 5.7-6.9 7-6.8 6.9-7.2-7.1c-7.2-7.1-7.2-7.1-6.1-10.8 1.6-5.9 1.3-20.9-.7-27.6-6.8-23.1-26.9-39-50.6-40-4.7-.2-10.5 0-13 .5zm20.2 7.1c14.1 2.9 27.2 13.2 33.3 26 5.1 10.9 6.2 19.6 4 31l-1.7 9.2 45.1 45.1 45.1 45.1-7.2 5.3c-3.9 2.9-11.4 7.4-16.6 9.9l-9.4 4.6-41.8-41.8-41.7-41.7-9.2 1.7c-7.8 1.5-10.2 1.6-16.3.6-22.6-3.7-38.8-20.6-41.4-43.1-.3-3.2-.3-8 .1-10.6l.7-4.7 12.1 12.1C92.5 166 96.1 169 98 169c1.4-.1 8.4-1.3 15.5-2.8l13-2.7 2.7-13c1.5-7.2 2.7-14.1 2.8-15.5 0-1.9-2.9-5.4-12-14.5-10.9-10.9-11.8-12.1-9.8-12.7 3.7-1 12.3-.9 18 .3zm131.7-.5 3.2.7-12.6 12.8c-9.3 9.4-12.5 13.2-12.2 14.6.3 1 1.5 6.7 2.7 12.8 1.1 6 2.5 12 3 13.1.7 1.8 3 2.5 15.4 5l14.6 2.8 12.5-12.4c6.8-6.8 12.7-12.1 13.1-11.7.4.3.7 4.8.6 9.9-.1 19.3-9.9 35.1-26.7 43.3-10.2 5-19.3 6.2-30.8 4l-8.9-1.7-8.4 8.3-8.4 8.4-13.2-13.2-13.2-13.2 8.2-8.4c4.5-4.7 8.2-8.8 8.2-9.3-.1-.5-.7-3.6-1.5-6.9-6.1-25.2 9.3-51.1 34.4-57.7 6.9-1.8 14.7-2.2 20-1.2zM167.5 241l13 13-15 15c-12.1 12.1-15.4 14.9-17 14.4-5.1-1.6-18.8-9.1-25-13.6l-6.8-5 18.4-18.4c10.1-10.1 18.6-18.4 18.9-18.4.3 0 6.4 5.9 13.5 13zm31.5 31.5c7.4 7.4 13.2 13.7 12.9 13.9-1.2 1.2-19 3.6-26.9 3.6-7.9 0-25.7-2.4-26.9-3.6-.5-.5 25.9-27.4 26.9-27.4.3 0 6.6 6.1 14 13.5z"/></g></svg>