<svg xmlns="http://www.w3.org/2000/svg" version="1.0" viewBox="0 0 128 128"><g stroke-width="0"><path d="M0 63v50h127V13H0v50zm12.4-44.8c.8 1.4.7 2.1-.6 3.4-3 3-7.5-.9-4.8-4.2 1.6-1.8 3.9-1.5 5.4.8zm8.7-.6c.9 1.1 1 2 .3 3.2-1.5 2.3-2.9 2.5-4.8.7-1.2-1.2-1.3-2.1-.6-3.6 1.3-2.3 3.3-2.5 5.1-.3zm8.3-1c2 .8 2.1 3.8.2 5.3-1.9 1.6-4.6.3-4.6-2.3 0-3.4 1.2-4.2 4.4-3zM123 67.5V109H4V26h119v41.5z"/><path d="M61.7 66.7C56.9 77.6 53 87 53 87.7c0 1.1 3.8 2.9 4.5 2.1.1-.1 4.2-9.3 9-20.2 8.2-18.7 8.6-20 6.9-21.3-1-.7-2.1-1.3-2.4-1.3-.3 0-4.5 8.9-9.3 19.7zM31 58.5c-6.3 4-11.5 7.9-11.5 8.6 0 .7 5.3 4.4 11.9 8.2 11.2 6.7 11.9 7 13.2 5.2.8-1 1.4-2.2 1.4-2.5 0-.4-3.8-2.8-8.5-5.4-4.7-2.6-8.7-5.1-8.9-5.5-.3-.4 3.5-3.1 8.5-6 4.9-2.9 8.9-5.6 8.9-6-.1-.8-2.6-4.1-3.1-4-.2 0-5.6 3.3-11.9 7.4zm51.6-5.4c-1.8 2.6-2.3 2.1 9.2 8.9 3.9 2.3 7.2 4.5 7.2 4.9 0 .3-3.9 2.8-8.5 5.4-8.4 4.8-9.3 5.8-7.5 8.7.8 1.2 1.4 1.1 4.7-.8 2.1-1.2 7.5-4.4 12-7 4.6-2.6 8.3-5.4 8.3-6.2 0-.8-4-3.9-8.8-6.8-4.8-2.9-10.1-6.1-11.9-7.3l-3.1-2-1.6 2.2z"/></g><path fill-opacity=".4" d="M127.5 63.5c0 27.5.1 38.6.2 24.7.2-13.9.2-36.4 0-50-.1-13.6-.2-2.2-.2 25.3zm-93.7 45.2c16.7.2 43.7.2 60 0 16.3-.1 2.7-.2-30.3-.2s-46.4.1-29.7.2z"/><path fill-opacity=".07" d="M31.8 113.7c17.8.2 46.6.2 64 0 17.4-.1 2.9-.2-32.3-.2-35.2 0-49.5.1-31.7.2z"/></svg>